<svg version="1.1" xmlns="http://www.w3.org/2000/svg" xmlns:xlink="http://www.w3.org/1999/xlink" width="875.05976" height="491.41917" viewBox="0,0,875.05976,491.41917"><g transform="translate(177.52988,73.34408)"><g data-paper-data="{&quot;isPaintingLayer&quot;:true}" fill-rule="nonzero" stroke-miterlimit="10" stroke-dasharray="" stroke-dashoffset="0" style="mix-blend-mode: normal"><path d="M-153.59404,418.07509c-13.2194,0 -23.93584,-10.71644 -23.93584,-23.93583v-443.54751c0,-13.21939 10.71644,-23.93583 23.93584,-23.93583h827.18809c13.21939,0 23.93583,10.71644 23.93583,23.93583v443.54751c0,13.2194 -10.71644,23.93583 -23.93583,23.93583z" fill-opacity="0.10588" fill="#ffffff" stroke="none" stroke-width="0" stroke-linecap="butt" stroke-linejoin="miter"/><path d="M272.94827,233.38724l-28.25736,99.23972l-9.79535,-16.84982l-12.06007,1.49735l15.90994,-57.99119z" fill="#a54137" stroke="#000000" stroke-width="2.03119" stroke-linecap="round" stroke-linejoin="round"/><path d="M140.85024,222.66529l14.28058,-11.55109l69.63197,86.08575l-14.68285,11.87647z" fill="#5e5e5e" stroke="none" stroke-width="0" stroke-linecap="butt" stroke-linejoin="miter"/><path d="M205.92685,303.11926l-18.26207,7.45151l-53.36282,-65.97225l10.32862,-17.67095z" fill="#777777" stroke="none" stroke-width="0" stroke-linecap="butt" stroke-linejoin="miter"/><path d="M141.54469,276.74706l16.64554,20.57882c0,0 -3.04977,5.11463 -9.28739,6.75576c-6.23763,1.64112 -8.30564,1.42261 -8.30564,1.42261l-10.86837,-13.90416c0,0 -0.61567,-11.98438 11.81587,-14.85303z" fill="#777777" stroke="none" stroke-width="0" stroke-linecap="butt" stroke-linejoin="miter"/><path d="M143.03375,254.73864l37.54496,46.41668l-18.67932,2.62671l-26.58917,-33.33973z" fill="#5e5e5e" stroke="none" stroke-width="0" stroke-linecap="butt" stroke-linejoin="miter"/><path d="M129.72882,291.60009l11.85976,14.6622l-15.99073,12.93438l-1.68131,-23.75278z" fill="#999999" stroke="none" stroke-width="0" stroke-linecap="butt" stroke-linejoin="miter"/><path d="M106.62147,310.38094l17.74572,-16.72306l1.23066,25.53878l-17.41726,13.61442z" fill="#777777" stroke="none" stroke-width="0" stroke-linecap="butt" stroke-linejoin="miter"/><path d="M106.26152,309.06416l1.91907,23.74692l-4.46016,3.15931l-12.01749,-14.85719z" fill="#999999" stroke="none" stroke-width="0" stroke-linecap="butt" stroke-linejoin="miter"/><path d="M82.73101,322.60105c0,0 2.20357,-3.44604 5.51645,-3.46388c3.31288,-0.01783 4.49908,2.68273 4.49908,2.68273l10.97389,14.15049c0,0 2.13615,4.52553 0.08636,6.51627c-2.04979,1.99074 -3.86893,1.79852 -3.86893,1.79852z" fill="#5e5e5e" stroke="none" stroke-width="0" stroke-linecap="butt" stroke-linejoin="miter"/><path d="M82.73101,322.60105l17.20686,21.68413c0,0 -6.31207,5.77108 -13.50279,5.93101c-7.19072,0.15992 -21.50143,-8.89393 -3.70407,-27.61513z" fill="#999999" stroke="none" stroke-width="0" stroke-linecap="butt" stroke-linejoin="miter"/><path d="M79.66579,341.2463c-1.53681,-0.58123 -2.04514,-3.00242 -1.13538,-5.40786c0.90976,-2.40544 2.8931,-3.88426 4.42991,-3.30302c1.53681,0.58123 2.04514,3.00242 1.13538,5.40786c-0.90976,2.40544 -2.8931,3.88426 -4.42991,3.30302z" fill="#ffffff" stroke="none" stroke-width="0" stroke-linecap="butt" stroke-linejoin="miter"/><path d="M165.12113,221.39013l255.53479,-206.13214l-3.77699,70.99984l-219.55395,177.02843z" fill="#969696" stroke="none" stroke-width="0" stroke-linecap="butt" stroke-linejoin="miter"/><path d="M197.32497,263.28627l219.55395,-177.02843l26.73855,14.99333l-227.19012,184.90139l-17.75571,-21.95131" fill="#cfcfcf" stroke="none" stroke-width="0" stroke-linecap="butt" stroke-linejoin="miter"/><path d="M445.73319,-4.86096l-2.11571,106.11213l-26.73855,-14.99333l3.06449,-69.6909z" fill="#dde3f6" stroke="none" stroke-width="0" stroke-linecap="butt" stroke-linejoin="miter"/><path d="M164.5522,221.9119l282.28317,-228.32955l-4.21875,108.35457l-226.5847,183.27691" fill="none" stroke="#000000" stroke-width="3.53305" stroke-linecap="round" stroke-linejoin="round"/><path d="M75.81441,346.23616c-8.42242,-11.22345 5.92606,-23.48531 5.92606,-23.48531c4.1074,-6.27371 10.06042,-2.56276 10.06042,-2.56276l37.01301,-29.9386c0.46619,-9.55907 11.05523,-13.20528 11.05523,-13.20528l-5.29133,-6.54166l6.72505,-15.60545l-8.33785,-10.30806l10.52141,-16.05278l-4.32927,-5.35227l15.52549,-12.55806l42.00997,51.93677" fill="none" stroke="#000000" stroke-width="3.47347" stroke-linecap="round" stroke-linejoin="round"/><path d="M182.77921,245.36161l42.00997,51.93677l-15.52549,12.55806l-4.32927,-5.35227l-17.89722,6.93411l-8.33785,-10.30806l-16.66633,3.31507l-5.29133,-6.54166c0,0 -5.77874,9.59316 -15.22416,8.05125l-37.01301,29.9386c0,0 2.38484,6.59712 -4.60874,9.30265c0,0 -14.98986,11.46894 -24.2052,0.88687" fill="none" stroke="#000000" stroke-width="3.47347" stroke-linecap="round" stroke-linejoin="round"/><path d="M198.60412,262.31919l217.83172,-176.1969l26.18077,15.81463" fill="none" stroke="#000000" stroke-width="1.73673" stroke-linecap="round" stroke-linejoin="round"/><path d="M416.43584,86.12229l3.77062,-68.44191" fill="none" stroke="#000000" stroke-width="1.73673" stroke-linecap="round" stroke-linejoin="round"/><path d="M139.72166,221.75291l69.45467,85.86654" fill="none" stroke="#000000" stroke-width="1.73673" stroke-linecap="round" stroke-linejoin="round"/><path d="M187.61161,310.61549l-54.13473,-66.92656" fill="none" stroke="#000000" stroke-width="1.73673" stroke-linecap="round" stroke-linejoin="round"/><path d="M163.22143,304.0313l-28.13466,-34.78277" fill="none" stroke="#000000" stroke-width="1.73673" stroke-linecap="round" stroke-linejoin="round"/><path d="M140.87027,305.68976l-11.943,-14.76509" fill="none" stroke="#000000" stroke-width="1.73673" stroke-linecap="round" stroke-linejoin="round"/><path d="M103.42011,335.98195l-11.943,-14.76507" fill="none" stroke="#000000" stroke-width="1.73673" stroke-linecap="round" stroke-linejoin="round"/><path d="M82.6923,323.17364l16.93891,20.94151" fill="none" stroke="#000000" stroke-width="1.73673" stroke-linecap="round" stroke-linejoin="round"/><path d="M123.88296,295.00484l0.95914,23.64958" fill="none" stroke="#000000" stroke-width="1.73673" stroke-linecap="round" stroke-linejoin="round"/><path d="M106.30432,309.22364l0.95913,23.64957" fill="none" stroke="#000000" stroke-width="1.73673" stroke-linecap="round" stroke-linejoin="round"/><path d="M290.09492,236.04154l-22.88545,-108.03245l19.87099,-16.07299l21.78137,108.9255z" fill="#d65641" stroke="#000000" stroke-width="2.03119" stroke-linecap="round" stroke-linejoin="round"/><path d="M200.46394,182.17998l32.99688,-26.69008l42.61533,93.73563l-33.45328,27.05926z" fill="#d65641" stroke="#000000" stroke-width="2.03119" stroke-linecap="round" stroke-linejoin="round"/><path d="M218.9133,167.87754l37.98049,96.40279" fill="#f2de89" stroke="#000000" stroke-width="2.03119" stroke-linecap="round" stroke-linejoin="round"/><path d="M230.75924,194.92045l30.48672,65.97585l-3.95307,4.34616z" fill="#000000" stroke="none" stroke-width="0" stroke-linecap="butt" stroke-linejoin="miter"/><path d="M290.09492,236.04154l-10.0588,-2.25551l8.43504,-7.74137z" fill="#000000" stroke="none" stroke-width="0" stroke-linecap="butt" stroke-linejoin="miter"/><path d="M269.69977,136.973l-9.55785,6.35322l7.06755,-15.31714z" fill="#000000" stroke="none" stroke-width="0" stroke-linecap="butt" stroke-linejoin="miter"/><path d="M204.90583,190.30124l-8.22277,5.73258l3.78089,-13.85384z" fill="#000000" stroke="none" stroke-width="0" stroke-linecap="butt" stroke-linejoin="miter"/><path d="M242.62287,276.28479l-10.33914,-3.87344l7.27145,-6.34091z" fill="#000000" stroke="none" stroke-width="0" stroke-linecap="butt" stroke-linejoin="miter"/><path d="M75.41601,344.54727c0,0 12.25641,2.79128 18.57316,-6.93768l-1.20337,-3.16583c0,0 5.49541,1.81937 7.45789,-2.54983l36.76058,-30.42008c0,0 8.7969,-1.9189 10.82906,-6.64027l-7.78141,-18.00819l11.64413,13.28309l11.89305,-2.77009l-7.63457,-15.05142l20.46713,24.17811l12.66709,-2.98288l-7.85482,-19.48658l17.99446,20.02916l16.53354,-5.87743l-8.75705,-13.07775l20.17228,-16.86825l-23.09157,-68.24718l34.30264,76.32107l-21.15538,18.13756l7.63084,13.22085l-15.88769,11.86066l-4.86821,-4.98893l-17.02509,6.51209l-8.6799,-9.76881l-16.96286,2.49879l-4.16759,-6.68012c0,0 -1.74968,5.14323 -7.23763,6.98499c-5.48795,1.84176 -9.28845,2.55356 -9.28845,2.55356l-34.15972,28.37299c0,0 -1.04161,7.11317 -4.83837,9.65554c-3.79676,2.54236 -10.75938,6.2881 -12.65962,6.644c-1.90025,0.35591 -11.82709,0.58735 -13.67256,-6.73116z" fill="#000000" stroke="none" stroke-width="0" stroke-linecap="butt" stroke-linejoin="miter" opacity="0.42" style="mix-blend-mode: multiply"/><path d="M261.56705,271.53752l-34.67832,32.23572l9.4572,-34.62l6.39042,7.22233l23.95878,-19.46248z" fill="#000000" stroke="none" stroke-width="0" stroke-linecap="butt" stroke-linejoin="miter" opacity="0.42" style="mix-blend-mode: multiply"/><path d="M268.58702,130.68465l19.82323,95.52352l-17.38221,12.57191l-4.39364,-11.6679l9.08109,-8.25678l-7.23233,-68.82852z" fill="#000000" stroke="none" stroke-width="0" stroke-linecap="butt" stroke-linejoin="miter" opacity="0.42" style="mix-blend-mode: multiply"/><path d="M303.97044,198.38125l126.587,-103.41538l14.84491,-97.59999l-2.15774,101.22763l-135.52248,112.81805z" fill="#000000" stroke="none" stroke-width="0" stroke-linecap="butt" stroke-linejoin="miter" opacity="0.42" style="mix-blend-mode: multiply"/><path d="M234.54388,258.08102l32.88752,-27.33188l8.68252,17.27695l-33.37758,28.34949z" fill="#000000" stroke="none" stroke-width="0" stroke-linecap="butt" stroke-linejoin="miter" opacity="0.42" style="mix-blend-mode: multiply"/><path d="M287.84923,221.18168l17.38168,-15.61591l3.88892,13.01946l-18.95068,16.66653z" fill="#000000" stroke="none" stroke-width="0" stroke-linecap="butt" stroke-linejoin="miter" opacity="0.42" style="mix-blend-mode: multiply"/><path d="M366.44124,160.83755l-8.57274,-22.14623" fill="none" stroke="#201d1e" stroke-width="1" stroke-linecap="butt" stroke-linejoin="miter"/><path d="M361.44047,129.40419l17.85987,22.14623" fill="none" stroke="#201d1e" stroke-width="1" stroke-linecap="butt" stroke-linejoin="miter"/><path d="M388.58748,145.12087l-11.43032,-11.43032" fill="none" stroke="#201d1e" stroke-width="1" stroke-linecap="butt" stroke-linejoin="miter"/><path d="M412.8769,88.68371l10.71593,12.1447" fill="none" stroke="#201d1e" stroke-width="1" stroke-linecap="butt" stroke-linejoin="miter"/></g></g></svg>