<svg version="1.1" xmlns="http://www.w3.org/2000/svg" xmlns:xlink="http://www.w3.org/1999/xlink" width="875.05976" height="491.41917" viewBox="0,0,875.05976,491.41917"><g transform="translate(177.52988,73.34408)"><g data-paper-data="{&quot;isPaintingLayer&quot;:true}" fill-rule="nonzero" stroke-miterlimit="10" stroke-dasharray="" stroke-dashoffset="0" style="mix-blend-mode: normal"><path d="M-153.59404,418.07509c-13.2194,0 -23.93584,-10.71644 -23.93584,-23.93583v-443.54751c0,-13.21939 10.71644,-23.93583 23.93584,-23.93583h827.18809c13.21939,0 23.93583,10.71644 23.93583,23.93583v443.54751c0,13.2194 -10.71644,23.93583 -23.93583,23.93583z" fill-opacity="0.10588" fill="#ffffff" stroke="none" stroke-width="0" stroke-linecap="butt" stroke-linejoin="miter"/><path d="M39.84937,201.23453c12.21422,-41.78545 89.3566,-75.85666 89.3566,-75.85666l3.21426,-13.49991c0,0 4.49997,-3.21426 16.71418,-8.99994c12.21421,-5.78568 47.57115,-12.85706 52.71396,-12.85706c5.14282,0 16.71418,9.6428 16.71418,9.6428l5.14282,-6.42852l-10.9285,-7.07139c0,0 -19.28559,-54.6425 -17.99989,-66.21385c1.28571,-11.57136 37.92834,-19.28559 51.42826,-22.49985c13.49991,-3.21426 66.21388,-6.42854 80.9995,-3.21426c14.78562,3.21428 13.49991,18.64274 13.49991,18.64274c0,0 7.71423,-1.28569 17.99989,-3.21426c10.28565,-1.92857 35.99979,-1.92857 61.07106,1.92855c25.07127,3.85712 41.78545,18.64274 43.07116,27.64268c1.28571,8.99994 -5.78568,55.28534 -7.07139,62.35673c-1.28571,7.07139 -12.21421,13.49991 -12.21421,13.49991l19.28559,63.64244c0,0 23.78557,53.99965 24.42843,61.71388c0.64286,7.71423 -3.21426,21.21414 -3.21426,21.21414c0,0 7.71425,8.35709 9.64281,14.14277c1.92855,5.78568 0.64285,30.85694 -2.57142,41.78543c-3.21426,10.92849 -15.42847,18.64272 -43.07116,25.71411c-27.64269,7.07137 -68.14243,10.28565 -117.64213,5.14282c-49.4997,-5.14283 -80.35665,-27.64268 -84.85663,-41.14259c-4.49997,-13.49991 3.85713,-37.28547 3.85713,-37.28547c0,0 -12.85707,3.85712 -51.42826,8.99994c-38.57119,5.14282 -95.78512,6.42852 -120.8564,4.49997c-25.07127,-1.92855 -53.99967,-12.2142 -61.71391,-26.99982c-7.71423,-14.78562 3.85711,-37.92831 5.78568,-45.64256c1.92857,-7.71425 18.64275,-9.6428 18.64275,-9.6428z" fill="#ff3c5a" stroke="none" stroke-width="0" stroke-linecap="butt" stroke-linejoin="miter"/><path d="M268.57921,240.79252l-9.18882,35.00498c0,0 3.06295,14.002 14.87712,22.75324c11.81419,8.75124 29.3167,12.25175 35.005,6.12587c5.6883,-6.12587 15.3147,-17.94006 23.62838,-18.81518c8.31369,-0.87512 41.13089,-0.87512 56.44557,0.43756c15.3147,1.31269 23.19082,6.56343 27.56645,15.31469c4.37562,8.75124 10.5015,10.06393 25.37863,10.50149c14.87714,0.43756 31.94207,-7.87612 36.75525,-19.25275c4.81318,-11.37663 6.12587,-29.75425 6.12587,-29.75425c0,0 9.62638,7.00099 10.06394,17.94006c0.43756,10.93905 -0.87512,37.19281 -6.56343,43.31868c-5.68832,6.12587 -34.40484,15.99803 -40.61201,18.93808c-6.20718,2.94005 -67.46594,9.94104 -85.40601,8.62836c-17.94007,-1.31269 -62.57144,-8.75124 -79.63639,-15.31469c-17.06495,-6.56345 -35.96966,-18.80869 -37.45636,-29.31343c-1.4867,-10.50474 2.01381,-31.07018 4.20162,-40.25898c2.18781,-9.1888 7.43857,-22.75324 18.81518,-26.25374z" fill="#ffffff" stroke="none" stroke-width="0" stroke-linecap="butt" stroke-linejoin="miter"/><path d="M37.54618,201.84947c0,0 17.06495,0.87512 23.19082,15.31469c6.12587,14.43957 12.68931,28.87911 21.00299,31.06694c8.31369,2.18783 60.82119,5.25076 92.76326,2.18781c31.94207,-3.06294 95.8262,-18.37762 95.8262,-18.37762l-3.06295,10.93905c0,0 -7.87613,1.31269 -10.06394,6.56343c-2.18781,5.25074 -9.62638,21.44056 -9.62638,21.44056c0,0 -66.50951,10.50149 -99.76427,13.56444c-33.25476,3.06294 -86.19982,-1.75025 -100.20183,-6.12587c-14.002,-4.37562 -31.94207,-11.81419 -34.12988,-29.75425c-2.18781,-17.94006 10.06394,-41.56843 10.06394,-41.56843c0,0 0.87512,-4.81318 14.002,-5.25076z" fill="#ffffff" stroke="none" stroke-width="0" stroke-linecap="butt" stroke-linejoin="miter"/><path d="M350.4913,11.98793c0,0 12.01209,-2.40243 28.82905,-3.36339c16.81696,-0.96096 43.24359,2.88292 61.02151,8.64872c17.77791,5.7658 20.18033,19.69985 21.1413,26.42663c0.96097,6.72677 -4.32436,33.1534 -4.32436,33.1534c-17.29744,15.85598 -51.89232,27.3876 -85.52622,26.90711c-33.6339,-0.48049 -60.06054,-17.77791 -60.06054,-17.77791l-2.8829,-15.37549c-43.24359,17.29744 -103.78462,-10.57065 -103.78462,-10.57065c0,0 -9.12921,-25.46565 -9.12921,-36.99727c0,-11.53162 9.60968,-12.97308 18.2584,-17.29742c8.64872,-4.32434 24.0242,-5.7658 41.32165,-9.60967c17.29744,-3.84387 65.34587,-3.84387 76.87749,-0.48049c11.53162,3.36339 8.47182,17.22709 8.47182,17.22709l9.78658,-0.89065z" fill="#ffffff" stroke="none" stroke-width="0" stroke-linecap="butt" stroke-linejoin="miter"/><path d="M316.18379,109.57957l-4.61174,-23.59706c0,0 29.46808,18.88292 69.32396,17.16869c39.85586,-1.71423 65.52838,-17.45407 76.26279,-26.2979l-2.55087,27.58357c0,0 -15.85664,12.42817 -34.28461,18.42796c-18.42797,5.9998 -73.28335,15.85663 -104.13951,-13.28529z" fill="#f5cb00" stroke="none" stroke-width="0" stroke-linecap="butt" stroke-linejoin="miter"/><path d="M204.33024,58.58122c0,0 47.5801,29.19429 104.35889,12.02579l4.06619,27.83006c0,0 -61.28375,20.14221 -98.56826,-11.99961z" fill="#f5cb00" stroke="none" stroke-width="0" stroke-linecap="butt" stroke-linejoin="miter"/><path d="M129.206,125.37787c-4.74427,-2.71782 4.74427,-15.88548 4.74427,-15.88548c0,0 5.68433,-2.58379 24.80439,-9.81839c19.12004,-7.23461 43.09374,-9.65303 43.09374,-9.65303c0,0 24.08482,15.33736 41.6546,41.69202c17.56978,26.35466 25.83792,81.64777 25.32114,83.7148c-0.51677,2.06703 2.06702,10.33515 3.10054,11.88543c1.03353,1.55028 -5.16758,7.23462 -18.08653,10.85192c-12.91896,3.6173 -67.17856,9.81839 -67.17856,9.81839c-8.26814,-78.54721 -57.45361,-122.60566 -57.45361,-122.60566z" fill="#f5cb00" stroke="none" stroke-width="0" stroke-linecap="butt" stroke-linejoin="miter"/><path d="M270.32943,232.04128c0,0 -2.15491,-9.63687 -2.15491,-13.46043c0,-3.82357 4.916,-14.748 11.47068,-28.9498c6.55469,-14.2018 24.58002,-33.31959 27.85736,-37.14314c3.27734,-3.82355 10.37824,1.09245 10.37824,1.09245c0,0 20.21025,-3.27734 34.95826,-6.55467c14.74801,-3.27732 27.31114,-3.27734 51.89116,1.09245c24.58002,4.36979 40.9667,18.57157 40.9667,18.57157c0,0 11.47067,8.73956 14.20179,12.0169c2.73112,3.27734 24.58002,55.71469 27.37648,61.74194c2.79646,6.02725 -5.52756,18.00656 -5.52756,18.00656c0,0 -7.10089,-2.73112 -17.47913,-7.10089c-10.37824,-4.36977 -33.86581,-21.30267 -33.86581,-21.30267c0,0 -16.9329,-6.55467 -40.42048,-11.47068c-23.48757,-4.91601 -66.63917,-1.09245 -66.63917,-1.09245c0,0 -8.19334,4.91601 -21.8489,8.73956c-13.65556,3.82355 -31.16468,5.8133 -31.16468,5.8133z" fill="#f5cb00" stroke="none" stroke-width="0" stroke-linecap="butt" stroke-linejoin="miter"/><path d="M461.63729,179.70062c1.42659,3.20981 22.11201,48.86038 23.18194,51.71353c1.06993,2.85315 2.13986,11.41264 2.13986,13.90915c0,2.49652 -5.21144,13.1318 -5.21144,13.1318c0,0 -43.2923,-21.33464 -47.92868,-24.1878c-4.63638,-2.85315 -4.63638,-9.27276 -4.27974,-13.90915c0.35664,-4.6364 8.91612,-44.58063 8.91612,-44.58063c2.85316,-13.5525 21.75535,0.71329 23.18194,3.9231z" fill="#6774f6" stroke="none" stroke-width="0" stroke-linecap="butt" stroke-linejoin="miter"/><path d="M177.74775,160.79845c24.60852,-13.19586 74.89549,-14.26579 74.89549,-14.26579c0,0 7.1329,5.70633 10.34271,11.41264c3.20981,5.70631 -2.49652,19.97212 -8.55949,31.38476c-6.06297,11.41264 -15.33575,28.88826 -26.03509,28.5316c-10.69935,-0.35666 -49.93032,-24.6085 -55.28,-29.95819c-5.34967,-5.34969 -3.92309,-13.90915 -2.49652,-19.61548c1.42657,-5.70633 7.1329,-7.48955 7.1329,-7.48955z" fill="#6774f6" stroke="none" stroke-width="0" stroke-linecap="butt" stroke-linejoin="miter"/><path d="M295.06226,163.91619c0,0 13.24635,-14.35022 17.66181,-13.24635c4.41546,1.10387 8.27897,4.41544 8.83091,10.48669c0.55193,6.07125 10.19933,48.08776 1.78807,56.33186c-8.41126,8.2441 -26.625,9.34797 -33.24817,10.45182c-6.62317,1.10385 -19.3176,4.96738 -20.42147,1.10387c-1.10387,-3.86351 -1.10387,-12.69443 0.55193,-17.10987c1.6558,-4.41544 14.90216,-36.42746 24.83691,-48.01802z" fill="#6774f6" stroke="none" stroke-width="0" stroke-linecap="butt" stroke-linejoin="miter"/><path d="M265.48317,246.27531l-6.33259,31.08725c0,0 8.05966,19.57345 23.02758,25.33035c14.96793,5.7569 25.33036,4.02984 29.93587,-1.15139c4.60551,-5.18122 21.87621,-15.54361 31.66293,-15.54361c9.78672,0 41.44967,-1.72706 51.23639,1.72706c9.78672,3.45413 18.99776,10.36241 18.99776,10.36241c0,0 22.45191,0.57569 35.69277,-19.57345c13.24086,-20.14914 9.21104,-29.93586 9.21104,-29.93586c0,0 -47.20657,-25.33035 -66.20434,-27.6331c-18.99776,-2.30276 -31.08726,-4.02984 -42.60104,-3.45414c-11.51378,0.57569 -25.90603,1.15139 -25.90603,1.15139c0,0 -12.66517,5.7569 -21.87621,7.48396c-9.21104,1.72706 -29.36018,3.45414 -29.36018,3.45414l-4.02984,-9.21104c0,0 23.02758,0.57569 32.23863,-2.30276c9.21104,-2.87845 14.39225,-6.90827 14.39225,-11.5138c0,-4.60553 -0.57569,-40.87396 -0.57569,-40.87396l-2.30276,-13.24086c0,0 6.90827,-0.57569 8.63535,8.05965c1.72708,8.63535 4.60551,46.63086 4.60551,46.63086c0,0 69.08277,-2.87845 104.77554,12.66517c0,0 6.33259,-43.17672 8.05966,-47.20656c1.72706,-4.02984 14.39225,-1.72706 14.39225,-1.72706c0,0 -4.02984,2.30276 -5.7569,9.21104c-1.72706,6.90828 -8.05966,43.75241 -5.7569,45.47948c2.30276,1.72706 18.99776,10.9381 18.99776,10.9381c0,0 4.02984,-29.36017 2.87845,-41.44966c-1.15139,-12.08949 -5.7569,-19.57345 -5.7569,-19.57345l-18.42207,-11.5138l-46.63088,-17.84637c0,0 22.45191,-18.99776 25.90603,-22.4519c3.45413,-3.45414 -17.84638,4.02984 -17.84638,4.02984c0,0 19.57346,-32.81431 25.90603,-55.26621c6.33258,-22.4519 4.60551,-36.84413 4.60551,-36.84413c0,0 -47.20657,6.90827 -63.32589,5.7569c-16.11931,-1.15137 -40.29829,-5.1812 -37.41984,-11.5138c2.87845,-6.33259 89.23192,-19.57345 110.53244,-1.72706c0,0 -21.87621,-15.54361 -32.23863,-17.27069c0,0 28.20881,2.30276 39.72259,9.78672c11.5138,7.48396 13.81656,15.54361 13.24086,23.60327c-0.57569,8.05965 -1.15139,18.42206 -2.87845,31.08725c-1.72706,12.66518 0.57569,24.75466 -2.30276,28.78447c-2.87845,4.02982 -12.08949,11.5138 -12.08949,11.5138c0,0 12.08949,44.90378 14.96793,54.11482c2.87845,9.21104 12.66517,33.96568 16.69501,43.75241c4.02984,9.78673 12.08949,24.75466 10.36241,31.08725c-1.72706,6.33259 -4.60551,9.78672 -3.45414,11.5138c1.15137,1.72708 12.08949,15.54361 11.5138,20.14914c-0.57569,4.60553 1.15139,34.54137 -5.18121,43.75241c-6.33259,9.21104 -15.54362,14.96792 -37.41984,20.72482c-21.87621,5.7569 -55.84191,9.21104 -67.9314,9.78672c-12.08949,0.57569 -29.93587,-0.57569 -29.93587,-0.57569c0,0 41.44967,-9.78672 48.35794,-18.99776c6.90827,-9.21104 2.87845,-24.75466 0,-27.6331c-2.87845,-2.87845 -25.33036,-5.7569 -29.93587,-6.33259c-4.60551,-0.57569 -30.51156,-0.57569 -32.23863,-0.57569c-1.72706,0 -12.66517,2.30276 -17.84638,9.21104c-5.18121,6.90828 -9.78672,12.66517 -16.11931,13.81655c-6.33259,1.15139 -18.42207,-1.15139 -32.81432,-9.21104c-14.39225,-8.05965 -23.02758,-18.99776 -24.75466,-27.05741c-1.72708,-8.05965 2.87845,-31.66292 16.69501,-36.84413z" fill="#4c192d" stroke="none" stroke-width="0" stroke-linecap="butt" stroke-linejoin="miter" opacity="0.35" style="mix-blend-mode: multiply"/><path d="M382.08261,132.82322c0,0 14.98339,-1.49836 32.21428,-6.36794c17.2309,-4.86958 29.59219,-13.85962 29.59219,-13.85962l2.62209,10.11378c-25.09717,12.36129 -64.42855,10.11378 -64.42855,10.11378z" fill="#000000" stroke="none" stroke-width="0" stroke-linecap="butt" stroke-linejoin="miter"/><path d="M311.13691,99.83166c0,0 4.32698,5.40873 4.86786,8.65398c0.54088,3.24525 7.57223,7.57223 7.57223,7.57223l-10.81747,33.53416c0,0 -2.70436,1.62261 -7.57223,5.40873c-4.86788,3.78612 -15.14447,15.68534 -15.14447,15.68534l21.09408,-70.85443z" fill="#000000" stroke="none" stroke-width="0" stroke-linecap="butt" stroke-linejoin="miter"/><path d="M23.31189,208.79215c1.05582,-6.33492 12.66983,-7.39074 12.66983,-7.39074c0,0 9.91136,3.18679 16.7742,7.93798c6.86284,4.75119 19.53267,28.50712 19.53267,28.50712c0,0 28.81558,2.36639 59.65381,-7.39074c29.97195,-9.48305 44.85173,-23.10201 39.06534,-39.59322c-10.55819,-30.09085 -41.58596,-69.1755 -41.58596,-69.1755l5.27911,-10.03029c0,0 14.25356,13.19774 22.70012,22.70011c8.44656,9.50237 16.89312,29.03503 16.89312,29.03503c0,0 0,5.807 1.58374,8.44656c1.58374,2.63955 6.33491,6.33492 13.19775,9.50237c6.86284,3.16745 39.06534,21.64428 43.81653,21.11638c4.75119,-0.5279 7.91864,-6.33492 12.66983,-14.25356c4.75119,-7.91864 15.83728,-26.39547 16.89312,-29.56293c1.05583,-3.16747 -12.66983,-13.72566 -12.66983,-13.72566c0,0 -4.22327,-8.97447 -9.50238,-18.47685c-5.27911,-9.50237 -20.58849,-25.33967 -20.58849,-25.33967l1.58374,-10.03029c0,0 9.50238,5.807 13.72566,7.91864c4.22329,2.11163 26.92341,5.807 26.92341,5.807c0,0 7.39074,-13.72564 14.25356,-36.95367c6.86282,-23.22803 5.80701,-47.51188 5.80701,-47.51188c0,0 -63.87708,5.807 -65.98873,-0.52792c-2.11165,-6.33492 14.78146,-7.91866 29.56295,-12.14192c14.78148,-4.22327 58.07009,-4.22327 58.07009,-4.22327c-11.61401,-4.22329 -41.70487,-3.69537 -41.70487,-3.69537c0,0 62.82126,-6.33492 71.79574,-2.63955c8.97448,3.69537 7.39074,14.25356 7.39074,14.25356c0,0 -13.72566,5.807 -19.00475,7.91864c-5.27909,2.11163 -11.08611,8.97447 -14.25356,16.89311c-3.16745,7.91864 3.16745,51.20723 5.27911,57.54215c2.11165,6.33492 4.75119,20.58848 5.27911,22.17221c0.52792,1.58373 -13.72565,34.84204 -19.00475,43.28859c-5.27911,8.44656 -8.97448,17.94893 -14.78148,25.86758c-5.80701,7.91866 -15.8373,32.20249 -15.69004,35.33312c0.14726,3.13063 4.02984,9.21104 4.02984,9.21104c0,0 -8.92827,15.63756 -9.45619,17.7492c-0.52792,2.11163 -7.39074,4.22327 -10.03029,6.86282c-2.63955,2.63955 -7.39074,19.00475 -7.39074,19.00475c0,0 -5.80701,0.52792 -11.61401,1.58373c-5.80701,1.05582 -38.0095,4.22327 -38.0095,4.22327l22.70012,-23.75593c0,0 -45.92816,6.3349 -60.18173,7.91864c-14.25356,1.58373 -72.85157,-3.16745 -80.77021,-4.75119c-7.91864,-1.58373 -14.78148,-8.97447 -16.89312,-12.14192c-2.11164,-3.16745 -12.14193,-23.22801 -16.3652,-28.50712c-4.22327,-5.2791 -21.6443,-8.97447 -21.6443,-8.97447z" fill="#4c192d" stroke="none" stroke-width="0" stroke-linecap="butt" stroke-linejoin="miter" opacity="0.35" style="mix-blend-mode: multiply"/><path d="M232.50752,272.74414l17.84746,-22.94672l-2.0397,-9.17869l9.17869,-5.09927l9.68861,-17.84746l4.07942,11.21839l-2.0397,6.62905l-3.73913,10.75585c0,0 -9.00905,4.03203 -10.02891,7.60151c-1.01986,3.56948 -6.62905,17.84746 -6.62905,17.84746l-16.31768,1.01986z" fill="#000000" stroke="none" stroke-width="0" stroke-linecap="butt" stroke-linejoin="miter"/><path d="M248.71933,271.66189c0,0 -85.23183,15.76091 -149.09524,13.18057c-54.31487,-2.19454 -80.57229,-13.18057 -86.0082,-32.88578c-4.40024,-15.95084 4.75643,-35.33345 8.15388,-42.80783c3.39745,-7.47438 16.30776,-6.1154 16.30776,-6.1154c21.74367,-49.60274 89.27385,-77.32555 89.27385,-77.32555c0,0 3.00525,-11.52013 5.00875,-13.52363c2.00351,-2.0035 36.5639,-19.03327 70.62344,-21.03675c0,0 9.51663,5.00875 13.52364,8.51488c0,0 6.51138,-5.50963 6.51138,-7.01226c0,0 -9.51663,-5.50963 -9.51663,-8.014c0,-2.50437 -4.7908,-10.96902 -8.32816,-22.28914c-3.34049,-10.69015 -14.71212,-35.31152 -9.20249,-45.32902c5.50963,-10.0175 41.07178,-19.53413 90.15758,-23.04026c49.0858,-3.50613 58.10154,5.50963 54.59542,17.53064" fill="none" stroke="#000000" stroke-width="3.70847" stroke-linecap="round" stroke-linejoin="round"/><path d="M452.8843,107.13556c-17.59285,11.72856 -50.23498,25.48179 -82.22199,22.28309c-31.98701,-3.1987 -53.99576,-19.44049 -53.99576,-19.44049" fill="none" stroke="#000000" stroke-width="3.70847" stroke-linecap="round" stroke-linejoin="round"/><path d="M483.10366,258.29894c3.5798,20.456 -2.55701,39.37779 -14.3192,46.53738c-11.76219,7.15959 -40.91199,7.67099 -45.51459,3.0684c-4.6026,-4.6026 -7.15961,-11.2508 -17.899,-16.87618c-10.73939,-5.62541 -43.98039,-5.62541 -61.87939,-5.114c-17.899,0.51141 -27.244,10.12936 -32.35801,17.28897c-5.114,7.1596 -14.29316,6.2559 -26.86045,1.49225c-12.87589,-4.88062 -23.62833,-21.33821 -24.65112,-25.94081c-1.02279,-4.6026 9.63644,-44.46167 9.63644,-44.46167c0,0 -17.75717,6.61849 -69.15717,13.33745c-75.5789,9.87959 -113.61533,2.96387 -121.02504,-0.49398c-7.4097,-3.45785 -16.7953,-27.66287 -22.72307,-34.57857c-5.92777,-6.9157 -18.116,-9.62765 -18.116,-9.62765" fill="none" stroke="#000000" stroke-width="3.70847" stroke-linecap="round" stroke-linejoin="round"/><path d="M313.1675,98.34489c-59.56797,18.85603 -99.4228,-11.9993 -99.4228,-11.9993" fill="none" stroke="#000000" stroke-width="3.70847" stroke-linecap="round" stroke-linejoin="round"/><path d="M483.54972,261.0861c0,0 -21.03676,-11.52013 -33.55865,-18.03151c-12.52189,-6.51138 -22.03852,-10.51839 -20.03502,-19.53413c2.00351,-9.01574 8.014,-46.08051 9.51663,-49.08578c1.50262,-3.00527 9.51663,-13.02275 23.04027,8.014" fill="none" stroke="#000000" stroke-width="3.70847" stroke-linecap="round" stroke-linejoin="round"/><path d="M311.74947,151.39443c0,0 4.00699,0 8.014,4.00701c4.00701,4.00701 5.50963,50.08752 5.00875,57.09978c-0.50088,7.01226 -3.50613,10.51839 -19.03327,13.02275c-15.52714,2.50437 -34.05954,4.50787 -34.05954,4.50787" fill="none" stroke="#000000" stroke-width="3.70847" stroke-linecap="round" stroke-linejoin="round"/><path d="M207.06079,153.46563c7.36381,-1.55026 40.69469,-6.97623 44.18283,-6.58866c3.48813,0.38757 10.85194,8.13894 12.4022,14.34004c1.55026,6.2011 -20.54114,54.25958 -31.39307,56.97257c-10.85191,2.71298 -58.91042,-27.90492 -62.39854,-34.10602c-3.48812,-6.2011 0.77515,-18.60328 2.71299,-20.54113c1.93784,-1.93785 27.1298,-8.52651 34.49361,-10.07679z" fill="none" stroke="#000000" stroke-width="3.70847" stroke-linecap="round" stroke-linejoin="round"/><path d="M128.20833,124.74514c0,0 45.0767,34.53928 59.1266,122.35102" fill="none" stroke="#000000" stroke-width="3.70847" stroke-linecap="round" stroke-linejoin="round"/><path d="M321.97963,220.16724c0,0 55.02871,-11.12282 108.88659,12.29364" fill="none" stroke="#000000" stroke-width="3.70847" stroke-linecap="round" stroke-linejoin="round"/><path d="M317.63355,153.93487c0,0 80.7913,-27.56064 129.58495,14.77112" fill="none" stroke="#000000" stroke-width="3.70847" stroke-linecap="round" stroke-linejoin="round"/><path d="M325.24594,209.1948c0,0 58.20269,-9.10998 104.25872,11.13442" fill="none" stroke="#000000" stroke-width="1.73673" stroke-linecap="round" stroke-linejoin="round"/><path d="M457.74945,77.13377c0,0 -29.19093,24.73119 -71.76106,26.75835c-42.57012,2.02716 -74.19363,-17.43347 -74.19363,-17.43347" fill="none" stroke="#000000" stroke-width="1.73673" stroke-linecap="round" stroke-linejoin="round"/><path d="M310.17305,71.05231c-53.11129,17.8389 -104.60086,-10.94659 -104.60086,-10.94659" fill="none" stroke="#000000" stroke-width="1.73673" stroke-linecap="round" stroke-linejoin="round"/><path d="M257.0315,249.38958c0,0 -44.07656,9.92715 -103.63948,13.50093c-42.9567,2.57739 -73.06385,-2.38252 -82.19682,-6.35338c-9.13297,-3.97086 -18.66304,-28.19311 -23.82516,-35.73774c-5.16212,-7.54463 -25.6003,-11.65053 -25.6003,-11.65053" fill="none" stroke="#000000" stroke-width="1.73673" stroke-linecap="round" stroke-linejoin="round"/><path d="M260.14409,175.41971c0,0 7.26242,23.3162 9.17359,38.98773" fill="none" stroke="#000000" stroke-width="3.70847" stroke-linecap="round" stroke-linejoin="round"/><path d="M215.42284,98.20871c0,0 24.4629,19.8761 33.63649,47.77909" fill="none" stroke="#000000" stroke-width="3.70847" stroke-linecap="round" stroke-linejoin="round"/><path d="M414.93289,22.08058c8.25482,0.15102 16.83359,0.02008 24.58309,3.49512c0.90031,0.58686 1.98396,1.13079 2.69088,2.74249c0.30118,0.82541 0.3309,1.86095 -0.02152,2.64483c-0.71838,1.825 -2.38349,2.85374 -3.81527,3.72798c-3.52024,1.93257 -7.09613,2.92923 -10.67243,3.91168c-14.33745,3.63552 -28.91418,4.78792 -43.47267,5.28292c-14.56767,0.20116 -29.18524,-0.18049 -43.70562,-3.33968c-4.42889,-1.14983 -16.37084,-3.72903 -12.10696,-10.49238c1.81509,-2.03506 4.52842,-2.91442 6.79324,-3.64846c7.1329,-2.01118 14.36188,-2.65662 21.68352,-2.95483c-6.93531,1.6405 -14.08491,3.19159 -20.61897,5.91066c-1.83107,0.84656 -4.13603,1.7623 -4.86101,3.15636c2.39389,1.68189 6.78204,2.61153 10.08017,3.13061c13.97942,2.03482 28.41441,2.18217 42.5806,1.84498c14.19937,-0.32853 28.57174,-1.2317 42.51838,-3.73883c4.22103,-0.98953 8.88586,-1.56015 12.0941,-4.22776c0.08472,-0.06588 0.00973,0.04362 0.07692,0.01291c-0.31475,-0.88214 -2.11647,-1.71385 -3.13222,-2.20439c-6.43957,-2.73186 -13.75927,-3.91686 -20.69425,-5.25419v0z" fill="#000000" stroke="none" stroke-width="0" stroke-linecap="butt" stroke-linejoin="miter"/><path d="M298.77944,2.9976c7.20343,-0.72218 14.31502,-1.24033 21.58769,-0.24061c1.45932,0.25184 2.97709,0.56513 4.34127,1.36734c7.23131,5.67522 -8.93481,10.48783 -12.69542,11.74124c-13.85855,4.26808 -28.05226,6.54814 -42.28883,8.27774c-16.02588,1.58544 -32.39835,2.92997 -48.56892,0.5329c-2.05157,-0.37588 -4.33131,-0.8439 -6.3744,-1.96939c-1.03118,-0.69512 -1.83842,-1.20339 -2.17734,-2.81156c-0.69566,-7.10234 23.15347,-9.63654 28.48083,-10.40045c-6.81807,2.07507 -13.72773,4.02863 -20.07042,6.88591c-1.80826,0.88778 -3.70374,1.67411 -4.86315,3.06964c-0.11451,0.18425 -0.01299,0.17713 -0.00426,-0.10311c-0.05445,-0.27517 -0.05097,-0.22302 0.09277,-0.12602c3.06945,1.38269 6.92651,1.42469 10.67895,1.62989c6.9629,0.15968 14.02284,-0.0588 21.05477,-0.574c14.07766,-0.92997 28.16001,-2.54143 42.09618,-4.74378c6.97663,-1.05837 13.9079,-2.40659 20.71089,-4.0298c4.08486,-1.10394 8.30145,-2.07293 11.77187,-4.22304c0.27879,-0.186 0.47003,-0.39134 0.55523,-0.48152c0.0317,-0.11286 0.04529,0.1259 0.07656,0.25641c-0.693,-0.7386 -2.23333,-1.1808 -3.41644,-1.51439c-6.73873,-1.69414 -14.00271,-2.01539 -20.98785,-2.54336v0z" fill="#000000" stroke="none" stroke-width="0" stroke-linecap="butt" stroke-linejoin="miter"/><path d="M189.02589,199.52694c4.63029,14.05454 8.51017,30.03557 11.07528,48.10377" fill="none" stroke="#000000" stroke-width="1.73673" stroke-linecap="round" stroke-linejoin="round"/><path d="M132.36011,112.18427c0,0 21.76921,14.72488 41.21436,51.03328" fill="none" stroke="#000000" stroke-width="1.73673" stroke-linecap="round" stroke-linejoin="round"/><path d="M262.01584,159.60603c-12.85672,28.2848 -23.99924,42.21292 -29.99904,43.49859c-5.9998,1.28567 -50.35551,-24.85632 -55.28393,-29.35618c-4.92842,-4.49987 -4.0713,-9.21399 -4.0713,-9.21399" fill="none" stroke="#000000" stroke-width="1.73673" stroke-linecap="round" stroke-linejoin="round"/><path d="M312.54422,152.01884c1.95552,13.19985 3.17774,56.46598 1.71109,59.64371c-1.46665,3.17774 -7.33325,4.15551 -16.86646,6.11103c-9.53321,1.95552 -28.35521,4.1555 -28.35521,4.1555" fill="none" stroke="#000000" stroke-width="1.73673" stroke-linecap="round" stroke-linejoin="round"/><path d="M483.6533,251.26204c0,0 -15.15537,-8.7999 -26.39969,-14.91093c-9.79749,-5.32472 -15.64426,-8.55544 -16.13313,-13.68872c-0.35452,-3.72239 5.13328,-39.11063 6.35547,-43.51057c1.2222,-4.39993 3.17774,-7.82212 6.35547,-6.84436" fill="none" stroke="#000000" stroke-width="1.73673" stroke-linecap="round" stroke-linejoin="round"/><path d="M492.23319,273.00189c0,0 2.21835,18.19048 -4.88039,32.83162c-7.09874,14.64113 -38.15568,18.63417 -54.5715,18.1905c-16.41581,-0.44367 -18.74341,-9.69713 -30.72253,-19.45788c-11.97912,-9.76075 -33.70385,-8.02471 -55.10311,-8.02471c-21.19263,0 -24.19643,8.77807 -29.86608,16.15615c-9.99006,13.00032 -28.90007,7.22501 -49.09831,-5.27712c-21.10881,-13.06575 -19.35256,-28.38374 -19.35256,-28.38374" fill="none" stroke="#000000" stroke-width="1.73673" stroke-linecap="round" stroke-linejoin="round"/><path d="M502.32581,25.80502c0,0 3.87457,15.01394 3.87457,29.05922c0,14.04529 -0.48432,30.99651 -0.48432,30.99651c0,0 3.39025,2.4216 0.96863,15.49825c-2.42162,13.07665 -3.87457,20.82577 -4.35889,27.12194c-0.48432,6.29617 0.48432,9.6864 -0.96863,17.91986c-1.45295,8.23345 0,16.46689 -6.29617,25.66899c-6.29617,9.20209 -7.2648,13.56097 -14.52963,15.01394c-7.26482,1.45297 -22.27875,-2.4216 -27.12195,-7.2648c-4.8432,-4.8432 -8.71777,-18.88851 -6.29617,-28.57491c2.4216,-9.6864 11.13937,-23.73171 15.49826,-31.48083c4.35889,-7.74914 19.85715,-41.16725 21.79443,-53.75957c1.93728,-12.59234 5.81185,-27.12194 7.74914,-32.44948c1.93728,-5.32752 3.39025,-10.17074 10.17074,-7.74914z" fill="#ffffff" stroke="none" stroke-width="0" stroke-linecap="butt" stroke-linejoin="miter"/><path d="M479.83787,187.28131c-7.03604,0.90788 -24.99729,-1.93991 -29.95991,-14.75297c-3.65784,-9.44423 -5.29419,-21.30628 12.20877,-51.37739c12.55152,-21.56426 27.28383,-70.50491 29.55353,-82.98821c2.2697,-12.48329 6.58212,-13.1642 9.30573,-12.71027c2.72361,0.45393 3.40452,5.44724 4.3124,17.02267c0.90788,11.57543 -1.41303,37.58446 -1.41303,37.58446c0,0 2.65011,0.35743 3.33102,14.65647c0.68091,14.29904 -6.00342,34.91514 -6.00342,34.91514c0,0 1.81575,24.0587 -7.03604,42.89712c-3.72172,7.92057 -8.07964,12.47203 -12.27599,14.04013" fill="none" stroke="#000000" stroke-width="3.70847" stroke-linecap="round" stroke-linejoin="round"/><path d="M478.29293,169.80766c7.85756,-3.23514 11.09413,-16.16174 4.83942,-22.20004c-2.77018,-1.93268 -5.54111,1.34672 -7.42754,3.39187c-3.46967,4.23345 -5.57408,9.63362 -6.34077,15.02277c-2.08186,10.50434 5.81812,22.15201 16.5739,14.75825c1.12832,-0.79121 2.68469,-0.51781 3.47609,0.61079c2.14699,3.59416 -4.11166,5.56747 -6.73499,6.42447c-7.12636,1.97481 -14.49498,-2.92015 -16.92492,-9.58785c-2.95042,-8.45142 -0.71421,-17.1749 3.29494,-24.66851c16.8614,-28.04302 30.96853,9.39907 10.08525,18.52267c-1.47445,0.50968 -2.29185,-1.70539 -0.84137,-2.27442v0z" fill="#000000" stroke="none" stroke-width="0" stroke-linecap="butt" stroke-linejoin="miter"/><path d="M491.89912,118.22786c5.30775,-13.64041 8.34272,-28.25797 8.93051,-42.86848c0.35053,-4.43585 6.92972,-3.77927 6.36841,0.65965c-1.14625,7.51424 -2.91503,14.89922 -5.31151,22.08658c-2.3686,7.14563 -5.20005,14.08575 -8.74578,20.7322c-0.39411,0.75732 -1.60917,0.17801 -1.24164,-0.60994v0z" fill="#000000" stroke="none" stroke-width="0" stroke-linecap="butt" stroke-linejoin="miter"/><path d="M492.10826,143.51473c3.72129,-7.2279 6.64023,-15.17376 7.97648,-23.13276c0.7958,-4.1565 6.92899,-3.14921 6.33936,1.05363c-2.86432,8.47616 -7.46426,16.04624 -12.82622,23.07992c-0.65042,0.86753 -2.04994,-0.07279 -1.48963,-1.00079v0z" fill="#000000" stroke="none" stroke-width="0" stroke-linecap="butt" stroke-linejoin="miter"/><path d="M462.12722,183.6935c-14.04531,-5.81183 -12.59234,-20.82577 -12.10802,-29.05922c0.48432,-8.23345 2.90592,-15.98257 9.20209,-26.63762c6.29617,-10.65505 7.26482,-15.49825 12.59234,-27.12194c5.32752,-11.62369 8.71777,-19.85714 11.62369,-29.54354c2.90592,-9.6864 8.23344,-26.15331 9.68641,-32.93379c1.45295,-6.7805 2.4216,-11.13937 4.8432,-12.10802c2.4216,-0.96865 4.8432,2.90592 4.8432,2.90592c-4.8432,0 -6.78049,18.40417 -10.65506,40.19859c-3.87457,21.79442 -17.91986,51.8223 -29.05924,74.58535c-11.13937,22.76306 -0.96863,39.71428 -0.96863,39.71428z" fill="#4c192d" stroke="none" stroke-width="0" stroke-linecap="butt" stroke-linejoin="miter" opacity="0.35" style="mix-blend-mode: multiply"/><path d="M309.62857,79.89308l5.86413,26.50584l-20.40717,59.81408c0,0 -21.57998,-3.51848 -22.98738,-22.98737c-1.4074,-19.46889 7.27152,-28.14781 14.30847,-36.59214c7.03695,-8.44433 23.22195,-26.74041 23.22195,-26.74041z" fill="#ffffff" stroke="none" stroke-width="0" stroke-linecap="butt" stroke-linejoin="miter"/><path d="M292.60074,165.15261c-8.47732,-2.30182 -16.68807,-8.24256 -19.79262,-16.33046c-2.79786,-7.28906 -1.38167,-15.60259 1.70907,-22.77218c5.11267,-11.85988 14.36684,-21.33288 22.71498,-31.18708c4.05011,-4.78078 7.92133,-9.7059 11.626,-14.7542" fill="none" stroke="#000000" stroke-width="3.70847" stroke-linecap="round" stroke-linejoin="round"/><path d="M302.7893,150.46617c5.31275,-2.42469 10.79692,-7.86249 9.50334,-14.02429c-0.52899,-2.80752 -2.61833,-5.14368 -5.23,-5.55706c-9.00462,-0.27927 -17.46008,8.06485 -17.94457,16.88735c-0.5351,6.03864 2.16084,11.49692 8.20285,13.20925c2.81451,1.10314 1.46708,5.34964 -1.45488,4.65072c-7.99049,-1.70567 -12.09657,-10.79251 -11.03744,-18.26545c0.73728,-7.3873 5.50706,-14.12676 12.07523,-17.43996c7.48436,-4.07123 16.36687,-3.83293 18.4596,5.94162c1.36923,7.64334 -5.11179,14.12212 -11.62828,16.77049c-1.41577,0.58615 -2.33664,-1.54022 -0.94586,-2.17264v0z" fill="#000000" stroke="none" stroke-width="0" stroke-linecap="butt" stroke-linejoin="miter"/><path d="M266.87166,244.04129l5.10717,-16.59829c0,0 -4.42083,-3.86722 -3.47749,-8.92694c2.83226,-15.19122 20.80547,-43.19397 28.58011,-53.81298c10.55662,-14.41878 15.11635,-13.86757 15.11635,-13.86757c0,0 10.85273,-31.9198 11.49113,-33.83498c0.63839,-1.91518 -3.83036,-1.91518 -7.02235,-7.02235c-3.19199,-5.10717 -10.21432,-44.68771 -10.85273,-62.56279c-0.63841,-17.87508 7.66075,-24.25905 19.15188,-29.36621c11.49113,-5.10715 44.45761,-10.39966 72.54872,-9.16006c38.35805,1.69266 54.4921,13.62883 58.96088,18.736c4.46878,5.10717 6.38396,16.59829 4.46878,30.0046c-1.91518,13.40631 -5.74556,44.0493 -6.38396,47.24129c-0.63839,3.19199 -11.49113,10.21434 -11.49113,10.21434l21.06708,70.22354c7.02235,14.04472 21.70547,49.15649 22.34386,55.54044c0.63839,6.38397 -3.83038,14.68311 -3.83038,14.68311l0.63839,6.38396c0,0 5.10719,5.74556 9.57595,12.76791c4.46876,7.02235 3.19197,30.0046 -3.19199,47.24129c-6.38396,17.23669 -72.77716,35.11177 -140.44714,28.72781c-67.66999,-6.38396 -102.14337,-27.45102 -104.05856,-45.9645c-1.91518,-18.51348 7.02237,-44.68771 9.57595,-50.43327c2.55358,-5.74556 12.12952,-10.21434 12.12952,-10.21434z" fill="none" stroke="#000000" stroke-width="3.70847" stroke-linecap="round" stroke-linejoin="round"/><path d="M266.87166,244.04129l5.10717,-16.59829c0,0 -4.42083,-3.86722 -3.47749,-8.92694c2.83226,-15.19122 20.80547,-43.19397 28.58011,-53.81298c10.55662,-14.41878 15.11635,-13.86757 15.11635,-13.86757c0,0 10.85273,-31.9198 11.49113,-33.83498c0.63839,-1.91518 -3.83036,-1.91518 -7.02235,-7.02235c-3.19199,-5.10717 -10.21432,-44.68771 -10.85273,-62.56279c-0.63841,-17.87508 7.66075,-24.25905 19.15188,-29.36621c11.49113,-5.10715 44.45761,-10.39966 72.54872,-9.16006c38.35805,1.69266 54.4921,13.62883 58.96088,18.736c4.46878,5.10717 6.38396,16.59829 4.46878,30.0046c-1.91518,13.40631 -5.74556,44.0493 -6.38396,47.24129c-0.63839,3.19199 -11.49113,10.21434 -11.49113,10.21434l21.06708,70.22354c7.02235,14.04472 21.70547,49.15649 22.34386,55.54044c0.63839,6.38397 -3.83038,14.68311 -3.83038,14.68311l0.63839,6.38396c0,0 5.10719,5.74556 9.57595,12.76791c4.46876,7.02235 3.19197,30.0046 -3.19199,47.24129c-6.38396,17.23669 -72.77716,35.11177 -140.44714,28.72781c-67.66999,-6.38396 -102.14337,-27.45102 -104.05856,-45.9645c-1.91518,-18.51348 7.02237,-44.68771 9.57595,-50.43327c2.55358,-5.74556 12.12952,-10.21434 12.12952,-10.21434z" fill="none" stroke="#000000" stroke-width="3.70847" stroke-linecap="round" stroke-linejoin="round"/></g></g></svg>