<svg version="1.1" xmlns="http://www.w3.org/2000/svg" xmlns:xlink="http://www.w3.org/1999/xlink" width="875.05976" height="491.41917" viewBox="0,0,875.05976,491.41917"><g transform="translate(177.52988,73.34408)"><g data-paper-data="{&quot;isPaintingLayer&quot;:true}" fill-rule="nonzero" stroke-miterlimit="10" stroke-dasharray="" stroke-dashoffset="0" style="mix-blend-mode: normal"><path d="M-153.59404,418.07509c-13.2194,0 -23.93584,-10.71644 -23.93584,-23.93583v-443.54751c0,-13.21939 10.71644,-23.93583 23.93584,-23.93583h827.18809c13.21939,0 23.93583,10.71644 23.93583,23.93583v443.54751c0,13.2194 -10.71644,23.93583 -23.93583,23.93583z" fill-opacity="0.10588" fill="#ffffff" stroke="none" stroke-width="0" stroke-linecap="butt" stroke-linejoin="miter"/><path d="M285.96675,348.82714c-2.41402,-0.00156 -4.79385,-0.27341 -7.0735,-0.80933c-7.24438,-1.7041 -14.24408,-5.96669 -20.82515,-12.67746c-8.97644,-0.04349 -18.35443,-0.58719 -27.89322,-1.61711c-22.40498,-2.41712 -42.02078,-8.08555 -58.39695,-16.86392c-3.19695,17.50548 -12.98349,27.78601 -26.80737,27.78601c-1.89518,0 -3.87345,-0.20194 -5.88048,-0.59807c-21.44497,-4.23928 -41.73651,-17.45889 -51.69549,-33.67968c-5.5892,-9.10304 -7.4805,-17.62198 -5.32513,-23.98635c1.21323,-3.58452 3.70956,-6.26106 7.02845,-7.53797c1.11769,-0.42952 2.34022,-0.64778 3.63423,-0.64778c3.41831,0 7.03622,1.56119 10.08014,3.36936c-0.18952,-5.95425 1.45866,-12.20755 7.53099,-14.88564c1.8812,-0.82952 3.87268,-1.2505 5.91775,-1.2505c4.42646,0 8.74886,1.9946 12.60989,4.9461c-6.55,-15.44643 -9.66072,-32.46257 -9.27236,-50.78983c-12.54852,-0.43728 -24.03684,-5.57756 -32.50687,-14.58506c-10.72792,-11.40832 -16.008,-27.89709 -14.86778,-46.4286c2.0777,-33.7527 27.98409,-54.41085 41.39864,-54.41085c0.80855,0 1.58294,0.07379 2.31304,0.21826c0.07145,-1.47652 1.08351,-2.76508 2.53984,-3.16276c0.70913,-0.1934 17.3952,-4.69055 45.91522,-7.46806c7.33913,-11.58152 14.18039,-21.07369 19.06358,-27.52504c-0.50642,-1.01283 -1.09439,-2.35421 -1.62565,-3.98297c-10.13917,-5.79504 -25.50482,-17.03945 -24.39413,-31.48393c1.54099,-20.03834 28.55342,-34.58222 64.22926,-34.58222c10.58423,0 21.52963,1.24506 32.53406,3.7018c34.12476,7.61796 61.30338,19.43638 80.78094,35.12826c19.68804,15.86119 25.75259,31.09713 27.61514,38.76791c4.53288,18.6659 -3.07732,27.38523 -8.27429,31.01014c0.06525,0.09166 0.12971,0.1833 0.1934,0.27417c20.72806,29.62215 27.87845,64.8972 30.08043,90.96902c2.1212,-0.87069 4.769,-1.62099 7.59932,-1.62099c2.23692,0 4.35191,0.46137 6.28669,1.37166c5.39114,2.5375 6.60359,8.96556 6.63388,14.09805c5.58688,-2.91965 14.34428,-6.58961 23.07062,-6.58961c5.08357,0 9.58926,1.24429 13.39126,3.69714c3.52315,2.27265 5.73911,6.54456 6.23854,12.02736c1.16274,12.76368 -6.66961,34.93562 -32.13714,58.88236c-25.35647,23.84266 -64.59198,35.18107 -76.89352,38.27858c-2.57867,1.60002 -5.30571,3.12547 -8.12284,4.5453c-9.36402,13.68718 -27.10563,28.11223 -44.69035,28.11223h-0.0031zM127.28646,141.39207c0.47379,8.51585 2.65168,13.92952 4.65404,17.17771c1.20623,-3.33985 2.4979,-6.70533 3.86569,-10.06849c-3.2381,-2.3278 -6.10572,-5.1791 -8.59197,-8.54148c0.02174,0.47301 0.04583,0.94992 0.07223,1.43225z" fill="#000000" stroke="none" stroke-width="0" stroke-linecap="butt" stroke-linejoin="miter"/><path d="M221.66343,-0.37321c-34.37531,-0.00051 -59.41442,13.56081 -60.78612,31.39375c-1.00738,13.09672 14.41653,23.6782 23.858,28.89113c1.12463,4.10255 2.81298,6.52989 2.81298,6.52989c0,0 0.03988,0.0102 0.06813,0.01743c-5.29214,6.8945 -12.97463,17.44801 -21.20983,30.5662c-29.59468,2.76396 -47.02142,7.52201 -47.02142,7.52201c0.14735,2.01741 0.36188,3.91763 0.6052,5.7661c-1.0264,-1.027 -2.32726,-1.83177 -4.03634,-2.37147c-0.69429,-0.21928 -1.47679,-0.32746 -2.33218,-0.32746c-11.44913,-0.00022 -35.99442,19.37742 -37.95089,51.16924c-2.03883,33.13132 17.64275,57.37792 45.67698,57.37792c0.6048,0 1.20986,-0.0112 1.82231,-0.03387c-1.02121,22.28865 3.02474,44.59823 15.0454,65.1955c-0.74319,2.21163 -1.0038,3.80044 -1.0038,3.80044c-4.11472,-6.88091 -12.46393,-16.24114 -20.95142,-16.24221c-1.51172,-0.00021 -3.02641,0.29651 -4.52388,0.957c-9.09842,4.01321 -4.07597,19.61601 -4.07597,19.61601c0,0 -8.4061,-7.80544 -14.92898,-7.80559c-0.83636,0 -1.64156,0.12824 -2.39431,0.41781c-6.62356,2.54751 -8.45286,12.72805 0,26.49415c8.91643,14.52104 27.51332,27.76806 49.42206,32.09884c1.81407,0.35861 3.55363,0.53239 5.21159,0.53239c13.93565,0 22.29522,-12.24586 24.09743,-29.82546c14.04483,8.33138 33.90368,15.94877 61.47691,18.92429c9.57453,1.03322 19.19454,1.60012 28.689,1.60012c0.1037,0 0.20571,-0.00005 0.30938,-0.00019c5.80574,6.19066 12.65711,11.00462 20.14002,12.76532c2.0761,0.4885 4.17674,0.71715 6.28369,0.71715c16.6235,0 33.65269,-14.23077 42.33698,-27.34328c3.13659,-1.54653 6.17921,-3.23504 9.11248,-5.07973c10.00378,-2.48145 50.44792,-13.64781 75.89426,-37.57483c32.74624,-30.79134 36.08522,-59.23916 26.39252,-65.49247c-3.52336,-2.27314 -7.4968,-3.14558 -11.51924,-3.14558c-13.27519,0 -27.09203,9.49924 -27.09203,9.49924c0,0 2.76921,-14.11138 -4.08336,-17.33607c-1.5959,-0.751 -3.23466,-1.04317 -4.81668,-1.04331c-5.53876,-0.00051 -10.39486,3.57857 -10.39486,3.57857c0,0 -0.09966,0.0548 -0.25714,0.14304c-2.07873,-33.09973 -11.05584,-67.67447 -29.85574,-94.54215c-0.80085,-1.14445 -1.68269,-2.24151 -2.59833,-3.31761c2.12973,-0.77997 15.60819,-6.66603 10.15196,-29.13271c-4.88357,-20.10912 -30.32201,-54.49272 -105.79266,-71.34037c-11.1419,-2.48728 -21.85237,-3.61904 -31.78207,-3.61918M133.23815,165.34773c-2.00661,-1.5559 -8.51197,-7.79113 -9.39939,-23.76448c-0.34062,-6.13176 -0.24279,-11.47739 -0.29043,-16.02799c4.16128,11.58072 10.58949,18.04646 16.53501,21.63316c-2.47302,5.9078 -4.77688,11.97626 -6.84519,18.15931M221.66359,-7.27979v0c10.83656,0.00029 22.03708,1.27377 33.28663,3.78507c34.64656,7.73432 62.30083,19.78236 82.19468,35.80947c20.4822,16.50116 26.83875,32.54609 28.8048,40.64163c4.29316,17.67772 -1.45799,27.44273 -6.97496,32.50395c18.82828,28.11702 26.08401,60.70176 28.66148,85.9966c1.43273,-0.31195 2.9648,-0.50645 4.55661,-0.50627c2.74954,0.00019 5.35939,0.57243 7.75685,1.70065c3.16165,1.48781 6.90921,4.76235 8.16671,11.96464c5.64197,-2.47602 12.84082,-4.78521 20.0679,-4.78521c5.75839,0 10.8938,1.42945 15.26352,4.24862c4.43491,2.86123 7.20664,8.05188 7.80457,14.61578c0.72972,8.01088 -1.63818,17.66646 -6.84753,27.92271c-5.80678,11.43224 -14.67647,22.80056 -26.36271,33.78916c-25.61255,24.0833 -64.82474,35.64686 -77.89646,38.97845c-2.28528,1.40216 -4.67808,2.74592 -7.14219,4.01122c-10.25761,14.62356 -28.39678,28.88311 -47.03622,28.88311c-2.679,0 -5.32532,-0.30301 -7.86554,-0.90073c-7.5087,-1.76678 -14.72087,-5.99951 -21.47271,-12.59537c-8.65361,-0.0917 -17.664,-0.63754 -26.82479,-1.62609c-21.05563,-2.27221 -39.72395,-7.37436 -55.64726,-15.19632c-4.37341,16.35357 -15.02304,26.13729 -29.18606,26.13729c-2.11961,0 -4.32366,-0.22325 -6.55097,-0.66345c-22.68779,-4.48486 -43.36718,-17.99583 -53.96827,-35.26033c-6.13593,-9.99285 -8.14373,-19.54657 -5.65348,-26.90124c1.54855,-4.57346 4.766,-8.00166 9.05978,-9.65314c1.51508,-0.58267 3.15482,-0.87816 4.87385,-0.87816c2.35565,0.0001 4.73426,0.57773 6.9871,1.45414c0.87492,-5.26303 3.49375,-10.14678 9.23018,-12.67706c2.32406,-1.02511 4.78431,-1.54478 7.31219,-1.54444c2.13071,0.0003 4.17669,0.3571 6.12107,0.97507c-4.15363,-12.52269 -6.25225,-25.93992 -6.26904,-40.13831c-12.14751,-1.20036 -23.1992,-6.57898 -31.53723,-15.44592c-11.38745,-12.10976 -16.99818,-29.51381 -15.79866,-49.00633c0.95164,-15.4642 7.0386,-30.26014 17.13948,-41.66221c8.7372,-9.86273 19.35321,-15.98954 27.70546,-15.9894c0.00727,0 0.01446,0 0.02173,0.00003c0.89927,-1.34451 2.2674,-2.37159 3.92196,-2.82332c0.70694,-0.19298 17.01937,-4.59018 44.81265,-7.40639c6.45914,-10.10064 12.48504,-18.54702 17.08214,-24.69143c-0.15689,-0.37774 -0.31429,-0.77685 -0.46969,-1.19621c-21.76952,-12.74247 -25.66097,-25.50806 -25.00008,-34.09961c1.71069,-22.23934 29.53862,-37.77121 67.67244,-37.77062c0.00068,0 -0.00062,0 0.00008,0z" fill="#000000" stroke="none" stroke-width="0" stroke-linecap="butt" stroke-linejoin="miter"/><path d="M345.60418,219.04545c0,0 3.52271,-4.42538 5.21101,-5.99376" fill="#ffa943" stroke="none" stroke-width="0" stroke-linecap="butt" stroke-linejoin="miter"/><path d="M345.60418,219.04547c1.02451,-2.7406 1.8765,-5.42047 3.33068,-8.01784c0.78102,-1.65699 2.80425,-2.40153 4.40103,-1.41404c2.20511,1.24239 1.75316,4.77295 -0.64058,5.46213c-2.44757,0.99398 -4.80161,2.59084 -7.09114,3.96974v0z" fill="#000000" stroke="none" stroke-width="0" stroke-linecap="butt" stroke-linejoin="miter"/><path d="M348.52531,106.56751l-170.14221,-16.881c-0.39379,-0.03883 -0.77515,-0.16233 -1.11691,-0.36117c-0.36117,-0.21048 -35.96089,-21.45117 -23.1413,-58.84197c6.75116,-19.69037 35.13835,-33.4428 69.03243,-33.4428c10.06693,0 20.45932,1.1806 30.88976,3.50917c34.02068,7.5939 61.10378,19.36725 80.49823,34.99233c19.52883,15.73302 25.53589,30.80742 27.37748,38.39276c3.31811,13.66077 -0.08,21.73856 -3.51383,26.10987c-3.84783,4.89637 -8.6207,6.36203 -8.82265,6.42184c-0.25631,0.07612 -0.52194,0.11496 -0.78837,0.11496c-0.09088,0 -0.18175,-0.00466 -0.27263,-0.01398z" fill="#ff5500" stroke="none" stroke-width="0" stroke-linecap="butt" stroke-linejoin="miter"/><path d="M223.1572,-0.1967c-34.86749,0 -60.54152,14.43396 -66.41895,31.57643c-12.23304,35.67969 21.91754,55.55829 21.91754,55.55829l170.14235,16.88062c0,0 16.35611,-4.87208 10.4401,-29.23224c-4.88365,-20.10914 -30.32206,-54.49279 -105.79271,-71.34045c-10.63214,-2.37345 -20.80264,-3.44264 -30.28834,-3.44264M223.1572,-5.722c10.26898,0 20.86444,1.20294 31.49215,3.57539c34.43776,7.6877 61.90174,19.64407 81.62904,35.53703c20.16455,16.2452 26.4043,31.96659 28.32908,39.89203c5.6594,23.30359 -6.83475,33.6281 -14.232,35.83155c-0.51283,0.15276 -1.04415,0.22994 -1.57731,0.22994c-0.18185,0 -0.36394,-0.00899 -0.54556,-0.02699l-170.14238,-16.88062c-0.78791,-0.07815 -1.54981,-0.32473 -2.23406,-0.72304c-0.38858,-0.22623 -9.60413,-5.65717 -17.20114,-15.87857c-10.30557,-13.86562 -12.78266,-29.85756 -7.16342,-46.24699c7.128,-20.78983 36.58973,-35.30972 71.6456,-35.30972z" fill="#000000" stroke="none" stroke-width="0" stroke-linecap="butt" stroke-linejoin="miter"/><path d="M344.0336,107.19276c-8.5477,0 -141.98492,-34.17756 -157.17193,-38.07509c-0.63924,-0.16389 -1.19847,-0.55146 -1.57672,-1.09128c-0.25631,-0.36661 -6.24941,-9.11779 -3.63967,-21.73234c0.21748,-1.05166 1.02526,-1.88197 2.07071,-2.12896c0.5367,-0.1266 13.38738,-3.10683 33.28978,-3.10683c36.87896,0 90.28865,9.99625 135.30677,57.61866c0.58331,0.61671 0.8505,1.46876 0.7239,2.30916c-0.07845,0.51962 -0.97865,5.10687 -8.39546,6.16629c-0.16001,0.02252 -0.36351,0.04039 -0.60739,0.04039z" fill="#d84200" stroke="none" stroke-width="0" stroke-linecap="butt" stroke-linejoin="miter"/><path d="M217.00516,43.8206c-19.80974,0.00076 -32.65487,3.03328 -32.65487,3.03328c-2.39849,11.59271 3.19801,19.58772 3.19801,19.58772c0,0 148.04042,37.98839 156.48544,37.98839c0.08696,0 0.15942,-0.00406 0.21646,-0.01218c5.59646,-0.7995 6.05426,-3.84363 6.05426,-3.84363c-45.29074,-47.91083 -99.46226,-56.75491 -133.29929,-56.75357M217.01267,38.29532v0c22.25432,0 43.84695,3.6076 64.1782,10.72255c27.74437,9.70921 52.34846,25.77819 73.12877,47.76065c1.16702,1.23456 1.70124,2.93734 1.44862,4.6173c-0.10947,0.72778 -1.34058,7.14936 -10.73576,8.49155c-0.31933,0.04567 -0.646,0.06786 -0.9988,0.06786c-8.70182,0 -133.02486,-31.78921 -157.85873,-38.1618c-1.27803,-0.32794 -2.39649,-1.10239 -3.15315,-2.1833c-0.28432,-0.40622 -6.93099,-10.10657 -4.08219,-23.87571c0.43528,-2.10369 2.05037,-3.7644 4.14115,-4.25799c0.55003,-0.12985 13.70368,-3.18029 33.92439,-3.18108h0.00609l0.00143,5.52527v-5.52527z" fill="#000000" stroke="none" stroke-width="0" stroke-linecap="butt" stroke-linejoin="miter"/><path d="M335.10997,316.26127c-1.04234,0 -2.01866,-0.59341 -2.48703,-1.56274c-0.19884,-0.41166 -4.90493,-10.25256 -7.43001,-23.77042c-3.38256,-18.11287 -1.11691,-34.13561 6.55155,-46.3354c17.55365,-27.92581 45.99366,-44.07129 48.58321,-45.50198c0.99263,-0.69283 6.03504,-3.99618 11.86501,-3.99618c2.1344,0 4.15075,0.43962 5.99232,1.30643c5.47892,2.57791 6.37757,9.52557 6.23076,14.62467c5.42921,-2.94916 14.62468,-7.05098 23.7681,-7.05098c4.9484,0 9.32829,1.20701 13.01689,3.58684c3.38956,2.18644 5.43775,6.16629 5.92474,11.51006c1.14798,12.60135 -6.63544,34.53951 -31.92278,58.31613c-29.42877,27.67184 -77.47371,38.36713 -79.50482,38.80986c-0.19652,0.04195 -0.39301,0.06369 -0.58797,0.06369z" fill="#e2bb00" stroke="none" stroke-width="0" stroke-linecap="butt" stroke-linejoin="miter"/><path d="M392.19234,197.8572c-5.53871,0 -10.3949,3.57859 -10.3949,3.57859c0,0 -29.8797,16.25415 -47.71422,44.62721c-17.83452,28.37312 1.0278,67.43486 1.0278,67.43486c0,0 48.98974,-10.65616 78.20001,-38.12251c32.74629,-30.79124 36.08527,-59.23909 26.39252,-65.49247c-3.52331,-2.27311 -7.49671,-3.14545 -11.51915,-3.14555c-13.27514,-0.00037 -27.09214,9.49934 -27.09214,9.49934c0,0 2.76925,-14.11138 -4.08332,-17.33613c-1.59589,-0.751 -3.2346,-1.04331 -4.81661,-1.04331M392.19239,192.33196v0c2.54446,0 4.95653,0.52797 7.16923,1.5692c3.09543,1.45667 6.81252,4.84757 7.6404,12.73166c5.70766,-2.67955 13.43913,-5.42095 21.18249,-5.42073c5.48853,0.00014 10.37189,1.35531 14.51442,4.02794c4.07026,2.62595 6.61942,7.44894 7.17792,13.58047c1.84065,20.20853 -15.72668,44.5441 -32.78085,60.5801c-29.98061,28.19068 -78.7492,39.04787 -80.81061,39.49627c-0.39292,0.08544 -0.7866,0.12675 -1.17605,0.12675c-2.08479,0 -4.03789,-1.18491 -4.97384,-3.12315c-0.82451,-1.7074 -19.97091,-42.16756 -0.73013,-72.77784c17.63961,-28.06308 46.03897,-44.47075 49.45426,-46.37617c1.47787,-1.01856 6.88908,-4.4145 13.33276,-4.4145z" fill="#000000" stroke="none" stroke-width="0" stroke-linecap="butt" stroke-linejoin="miter"/><path d="M121.34307,218.94032c-13.03242,0 -25.01627,-5.11231 -33.74417,-14.39399c-10.59899,-11.27084 -15.81458,-27.58329 -14.68525,-45.93228c2.05207,-33.35114 27.52349,-53.76229 40.70893,-53.76229c1.14176,0 2.20586,0.15301 3.16354,0.45515c9.50149,3.00121 9.52013,11.75239 9.54499,23.86362c0.00776,3.63889 0.0163,7.76321 0.26563,12.25958c0.88001,15.8239 7.59932,21.20884 8.5508,21.89389l8.40788,3.62103c1.15186,0.49631 1.82527,1.70566 1.63963,2.94606l-6.46301,43.22079c-0.16077,1.07341 -0.93516,1.95343 -1.97906,2.24935l-12.00716,3.40276c-0.19728,0.05593 -0.40078,0.0901 -0.60583,0.10098c-0.93904,0.05049 -1.87498,0.07534 -2.79693,0.07534z" fill="#ffd600" stroke="none" stroke-width="0" stroke-linecap="butt" stroke-linejoin="miter"/><path d="M113.62184,107.61435c-11.45006,0.00235 -35.99453,19.37961 -37.95086,51.16937c-2.03906,33.13485 17.63374,57.39393 45.67265,57.39393c0.87352,0 1.75956,-0.0237 2.6489,-0.07134l12.00713,-3.40335l6.46286,-43.22025l-8.63645,-3.71963c0,0 -8.93604,-5.25647 -9.98732,-24.17979c-1.05131,-18.9233 2.10259,-30.48756 -7.88473,-33.64146c-0.69491,-0.21945 -1.47589,-0.32764 -2.33218,-0.32746M113.6239,102.08908v0c1.4233,0 2.76711,0.19645 3.99397,0.58391c11.42826,3.60894 11.45032,14.21263 11.4759,26.49068c0.00752,3.60469 0.01602,7.69025 0.26173,12.11308c0.76632,13.79407 5.99666,18.69874 7.17731,19.63611l8.1153,3.4952c2.30348,0.99209 3.64982,3.41124 3.2789,5.89174l-6.46286,43.22025c-0.321,2.14679 -1.86933,3.90678 -3.95775,4.49873l-12.00713,3.40335c-0.39502,0.11195 -0.80125,0.17953 -1.21122,0.20146c-0.98192,0.05264 -1.97257,0.07928 -2.94442,0.07928c-13.80232,0 -26.50122,-5.42095 -35.75744,-15.26429c-11.12666,-11.83242 -16.60648,-28.87712 -15.43002,-47.99425c2.15106,-34.95411 29.36368,-56.35233 43.46455,-56.35525h0.0029l0.00029,5.52524v-5.52524z" fill="#000000" stroke="none" stroke-width="0" stroke-linecap="butt" stroke-linejoin="miter"/><path d="M259.2394,334.65996c-9.26304,-0.00156 -19.01697,-0.5468 -28.9907,-1.62333c-72.42199,-7.8137 -92.66306,-46.77035 -94.13259,-49.80418c-23.20111,-39.27976 -21.28884,-90.30182 5.53561,-147.55853c20.13931,-42.98855 47.52378,-74.83676 47.79796,-75.15288c0.48777,-0.56311 1.18215,-0.90565 1.92547,-0.94992c4.202,-0.24855 8.68051,-0.37515 13.31125,-0.37515c41.22699,0 89.57719,9.85257 106.09237,16.91674c15.9777,6.83505 33.60202,15.66623 43.16876,29.3402c20.78787,29.70759 31.99424,72.79246 30.74606,118.20745c-1.0804,39.31783 -14.44058,68.74813 -39.71008,87.4746c-21.0636,15.60876 -49.91216,23.52498 -85.73946,23.52498h-0.00466z" fill="#ffd600" stroke="none" stroke-width="0" stroke-linecap="butt" stroke-linejoin="miter"/><path d="M204.68717,61.9587c-4.49004,0 -8.88523,0.11773 -13.14866,0.37025c0,0 -108.70029,125.51133 -52.98163,219.60227c0,0 18.92334,40.47487 91.98841,48.3596c9.57463,1.03322 19.19833,1.60629 28.69288,1.60629c62.95956,0 120.40996,-25.1815 122.69378,-108.31309c1.07584,-39.16215 -7.21934,-83.63698 -30.24737,-116.54736c-9.439,-13.48958 -27.35115,-22.12093 -41.99242,-28.38371c-16.29872,-6.97177 -64.25234,-16.69424 -105.005,-16.69424M204.68716,56.43343v0c18.67048,0 40.90689,2.06454 62.61307,5.81333c18.99408,3.28036 35.65385,7.51441 44.56495,11.32619c16.33567,6.98755 34.3791,16.05137 44.34642,30.29606c21.11923,30.18235 32.50706,73.87213 31.24355,119.86677c-1.10463,40.20953 -14.84084,70.3615 -40.82701,89.61837c-21.55142,15.9705 -50.95361,24.06819 -87.38994,24.06819c-9.35947,0 -19.2126,-0.55113 -29.28565,-1.63818c-72.95917,-7.87327 -94.26368,-47.19599 -96.26668,-51.23532c-13.23106,-22.442 -18.56631,-48.39526 -15.8578,-77.14336c2.14352,-22.75121 9.3172,-47.27953 21.32177,-72.9035c20.30188,-43.33486 47.08193,-74.48534 48.21205,-75.79021c0.97499,-1.12582 2.36323,-1.81033 3.84993,-1.89841c4.25656,-0.25208 8.79032,-0.37994 13.47533,-0.37994z" fill="#000000" stroke="none" stroke-width="0" stroke-linecap="butt" stroke-linejoin="miter"/><path d="M293.61184,193.7811c-2.02983,21.16867 2.80846,43.25321 15.69516,60.31008c4.85926,6.26342 10.9943,12.38654 18.23789,14.78089c10.07589,3.88249 20.29327,-2.71159 24.83091,-11.78656c8.09483,-16.63517 6.74192,-36.47881 2.29866,-54.10825c8.47127,19.43273 11.57104,50.02034 -5.20188,66.13055c-22.59564,19.25837 -46.72482,-9.13548 -53.67891,-30.04522c-5.05026,-14.47451 -5.93968,-30.48872 -2.18184,-45.28151v0z" fill="#000000" stroke="none" stroke-width="0" stroke-linecap="butt" stroke-linejoin="miter"/><path d="M173.24566,47.66706c0,0 5.35454,-1.82274 7.62242,-2.23123" fill="#ffa943" stroke="none" stroke-width="0" stroke-linecap="butt" stroke-linejoin="miter"/><path d="M173.24564,47.66706c2.3421,-1.75356 4.50625,-3.54919 7.13266,-4.95018c1.55208,-0.97292 3.65704,-0.50726 4.46785,1.18615c1.1852,2.23634 -1.10153,4.96397 -3.48843,4.25158c-2.59682,-0.48493 -5.44044,-0.41194 -8.11207,-0.48757v0z" fill="#000000" stroke="none" stroke-width="0" stroke-linecap="butt" stroke-linejoin="miter"/><path d="M194.43275,56.59923c0,0 12.15958,0.54042 20.8064,0.54042c8.64682,0 22.42767,2.16172 41.07237,5.13405c18.6447,2.97234 53.38064,16.37925 53.38064,16.37925c-52.81307,-19.82929 -120.39346,-14.21755 -120.39346,-14.21755z" fill="#000000" stroke="none" stroke-width="0" stroke-linecap="butt" stroke-linejoin="miter"/><path d="M208.50025,95.09647c-54.50335,0 -89.11503,9.45079 -89.11503,9.45079c3.39321,46.48693 33.49276,47.14395 35.19492,47.14395c0.04961,0 0.07534,-0.00059 0.07534,-0.00059c0.46054,0.10837 1.00599,0.15993 1.62956,0.15993c7.41463,0 25.69903,-7.30964 39.22808,-13.42991c3.94151,-1.78308 7.30107,-2.53182 10.43493,-2.53182c8.52752,0 15.37153,5.55024 27.629,10.9129c10.18886,4.45761 22.95744,9.43113 36.89562,9.43113c8.99214,0 18.47152,-2.07043 28.05755,-7.68511c24.44472,-14.31763 30.73055,-38.06393 30.73055,-38.06393c-45.56385,-11.7584 -86.98083,-15.38732 -120.76053,-15.38732M208.50023,89.57121c41.03132,0 82.12556,5.23602 122.14117,15.56261c1.42468,0.36764 2.64386,1.28834 3.38734,2.55804c0.74351,1.26965 0.94984,2.78346 0.57334,4.20581c-0.28049,1.0595 -7.16901,26.1245 -33.27935,41.4177c-9.56475,5.60216 -19.94419,8.44271 -30.85004,8.44271c-14.49626,0 -27.36408,-4.75548 -39.11024,-9.89439c-4.03824,-1.76678 -7.49754,-3.54561 -10.54957,-5.11508c-6.02256,-3.09698 -10.37394,-5.33456 -14.86482,-5.33456c-2.48789,0 -5.08005,0.64843 -8.15761,2.04066c-11.4927,5.19911 -32.16721,13.92107 -41.50539,13.92107c-0.8037,0 -1.53762,-0.05652 -2.22477,-0.17203c-4.67205,-0.19562 -36.61491,-3.33475 -40.18565,-52.25426c-0.19232,-2.63449 1.50698,-5.03661 4.05518,-5.73236c1.44245,-0.39386 35.95427,-9.64593 90.57044,-9.64593z" fill="#000000" stroke="none" stroke-width="0" stroke-linecap="butt" stroke-linejoin="miter"/><path d="M153.73778,262.74522c0,0 27.49454,-3.31259 29.15084,57.97041l-10.93156,-2.65008c0,0 6.95646,-40.74491 -18.21928,-55.32033z" fill="#000000" stroke="none" stroke-width="0" stroke-linecap="butt" stroke-linejoin="miter"/><path d="M125.24949,144.81686l9.93778,8.61274c0,0 -2.98134,9.9378 -8.2815,26.16951c-5.30016,16.23171 -7.95023,43.06373 -7.95023,43.06373c-8.61275,-37.43232 6.29393,-77.84597 6.29393,-77.84597z" fill="#000000" stroke="none" stroke-width="0" stroke-linecap="butt" stroke-linejoin="miter"/><path d="M354.53333,203.09099c0,0 14.10223,18.76414 11.00394,43.55048c-2.76203,22.09629 -13.46364,29.17121 -26.25708,30.57021c-12.18228,1.33216 -29.31462,-5.00494 -40.99281,-32.4129c0,0 18.58976,30.50627 37.17953,27.40798c18.58977,-3.09829 25.26301,-21.44972 24.78635,-39.32448c-0.47665,-17.87476 -5.71993,-29.79128 -5.71993,-29.79128z" fill="#000000" stroke="none" stroke-width="0" stroke-linecap="butt" stroke-linejoin="miter"/><path d="M347.63232,81.80024c0,0 9.75724,6.37973 15.01115,14.26058l-7.50557,8.6314l-14.63587,-15.7617l7.13029,-7.13029z" fill="#000000" stroke="none" stroke-width="0" stroke-linecap="butt" stroke-linejoin="miter"/><path d="M325.56491,103.96897c0,0 5.52691,1.06287 8.18408,2.12573c2.65717,1.06287 5.95206,2.97603 5.10176,6.80235l-5.10176,0.42515z" fill="#000000" stroke="none" stroke-width="0" stroke-linecap="butt" stroke-linejoin="miter"/><path d="M388.39424,195.95248c0,0 14.06082,67.96057 -10.31126,107.33085l-37.4955,12.65473c0,0 52.49371,-31.87117 42.18244,-121.39166z" fill="#000000" stroke="none" stroke-width="0" stroke-linecap="butt" stroke-linejoin="miter"/><path d="M324.1088,286.1813c0,0 24.36338,0.67676 19.62607,24.70175l-13.19683,10.48979c0,0 16.24226,-25.7169 -6.42922,-35.19155z" fill="#000000" stroke="none" stroke-width="0" stroke-linecap="butt" stroke-linejoin="miter"/><path d="M183.08329,44.95903c-1.619,4.39442 1.38771,21.74083 1.38771,21.74083l-9.94528,9.94527c-3.46929,-13.87712 4.62571,-30.52968 4.62571,-30.52968c0,0 5.55085,-5.55085 3.93185,-1.15642z" fill="#000000" stroke="none" stroke-width="0" stroke-linecap="butt" stroke-linejoin="miter"/><path d="M168.04973,49.12217c0,0 9.48272,-8.55756 22.43471,-9.02014l-6.01343,4.39442l-3.93185,3.93185z" fill="#000000" stroke="none" stroke-width="0" stroke-linecap="butt" stroke-linejoin="miter"/><path d="M131.33174,149.89712l4.45492,3.86086c0,0 -2.98129,9.93772 -8.28145,26.16951c-5.30014,16.23168 -7.95022,43.06376 -7.95022,43.06376c-14.59143,-12.26864 -10.51252,-47.72384 -1.41339,-68.4322c-5.84448,-0.47743 -13.17804,-6.58904 -15.68816,-16.00192c-6.22458,-23.34214 11.44209,-32.12151 11.44209,-32.12151l6.3333,-4.47044c0,0 6.33317,32.78366 8.94091,37.62668c1.45269,2.69767 1.97936,7.01091 2.162,10.30526z" fill="#af6308" stroke="none" stroke-width="0" stroke-linecap="butt" stroke-linejoin="miter" opacity="0.4" style="mix-blend-mode: multiply"/><path d="M295.35433,55.7103c0,0 20.77939,-1.59185 19.51966,-16.42907c-1.25972,-14.83722 -26.02252,-29.65852 -26.02252,-29.65852c0,0 92.66215,22.731 68.28544,99.66998c0,0 -57.46527,-52.13328 -61.7826,-53.58241z" fill="#af6308" stroke="none" stroke-width="0" stroke-linecap="butt" stroke-linejoin="miter" opacity="0.4" style="mix-blend-mode: multiply"/><path d="M389.96962,196.13054c0,0 11.42846,67.30089 -3.80949,103.27935l-44.97327,16.85652c0,0 52.49371,-31.87117 42.18244,-121.39166l6.6003,1.25578z" fill="#af6308" stroke="none" stroke-width="0" stroke-linecap="butt" stroke-linejoin="miter" opacity="0.4" style="mix-blend-mode: multiply"/><path d="M382.17178,173.07192c8.0971,49.39214 5.32577,95.99187 -19.43299,121.45614c-39.13108,40.24616 -134.97626,62.19395 -220.80534,5.51433c0,0 3.21643,-37.31345 18.83464,-35.32305c8.15267,1.03897 20.49411,3.6166 30.37951,39.54158c43.78024,2.50289 106.53854,0.72353 128.81873,-35.40108c-12.33163,-8.30817 -18.92978,-27.08387 -18.92978,-27.08387c6.46519,9.69779 20.33067,15.98633 31.83259,13.08069c18.11301,-4.57576 20.0657,-32.13052 18.89536,-47.28724c-0.76226,-9.8718 -2.97638,-19.59421 -5.8502,-29.05073c-1.42443,-4.68719 -3.02653,-9.31919 -4.74082,-13.90782c-0.49558,-1.32652 -5.28294,-11.44677 -4.75878,-12.01613c-4.58746,4.98298 -24.27305,16.8211 -36.44011,18.96374c-29.19011,5.14065 -50.17459,-1.24962 -50.17459,-1.24962c0,0 -3.3647,4.62636 -13.87923,10.30421c-15.19128,8.20331 -29.2308,5.04715 -29.2308,5.04715c0,0 11.77638,-4.62648 23.55276,-11.56618c11.77638,-6.93961 18.71618,-19.13666 18.71618,-19.13666c0,0 24.60433,6.72941 45.21297,0.42069c15.48595,-4.74075 27.40632,-16.36528 32.37745,-21.85293c-9.98802,-30.03887 -26.15805,-47.90164 -26.15805,-47.90164c0,0 -42.65569,-18.34809 -116.91912,-18.01053c-14.00515,0.06366 4.48936,-4.05074 -11.13951,-4.05074c0,0 117.98188,-8.72411 168.76872,25.69665c0,0 32.97338,34.42086 41.07038,83.813z" fill="#af6308" stroke="none" stroke-width="0" stroke-linecap="butt" stroke-linejoin="miter" opacity="0.4" style="mix-blend-mode: multiply"/><path d="M144.9706,343.95408c-1.85013,0 -3.78336,-0.19574 -5.74687,-0.58409c-21.26476,-4.20356 -41.37768,-17.30044 -51.24033,-33.36278c-5.48046,-8.92595 -7.34845,-17.23675 -5.25988,-23.40537c1.14642,-3.38568 3.4983,-5.91232 6.62224,-7.11389c1.03846,-0.39923 2.17789,-0.60195 3.38646,-0.60195c3.72122,0 7.71584,1.94255 10.88637,3.98374c-0.44894,-5.55503 0.43418,-12.66114 7.00359,-15.55827c1.79264,-0.79147 3.69014,-1.19225 5.63813,-1.19225c7.56282,0 14.84758,6.06455 19.94281,12.64406c1.96585,-4.96318 5.96357,-11.5085 13.68174,-13.30348c0.86448,-0.20116 1.74215,-0.30292 2.60974,-0.30292c3.51073,0 6.91505,1.65595 9.84403,4.78841c7.09525,7.58846 10.80947,22.61546 9.69334,39.21841c-1.44235,21.45893 -11.81064,34.78883 -27.05902,34.79038h-0.00232z" fill="#ffa943" stroke="none" stroke-width="0" stroke-linecap="butt" stroke-linejoin="miter"/><path d="M152.49384,267.9192c-0.65402,0 -1.31605,0.07588 -1.98332,0.23102c-10.95435,2.54756 -13.29868,16.97344 -13.29868,16.97344c-4.11499,-6.88145 -12.46323,-16.24245 -20.95136,-16.24221c-1.51112,0.00005 -3.02704,0.29679 -4.52389,0.95705c-9.09843,4.01324 -4.07605,19.61594 -4.07605,19.61594c0,0 -8.40592,-7.80559 -14.92895,-7.80559c-0.83587,0 -1.64189,0.12839 -2.39423,0.41777c-6.62357,2.54751 -8.45293,12.72814 0,26.49425c8.91635,14.52093 27.51328,27.76806 49.42202,32.09884c1.81622,0.35904 3.55302,0.53249 5.21284,0.53249c14.55634,0 23.03613,-13.36493 24.30321,-32.21287c1.54917,-23.04395 -6.69892,-41.06013 -16.78157,-41.06013M152.49387,262.39391v0c4.29537,0 8.39736,1.95887 11.86257,5.66484c7.60034,8.12845 11.59759,23.95032 10.43179,41.29114c-1.54952,23.04915 -12.97434,37.36755 -29.81599,37.36755c-2.03044,0 -4.14478,-0.21447 -6.28432,-0.63739c-22.32202,-4.41248 -42.65304,-17.68116 -53.059,-34.62804c-5.91736,-9.63674 -7.87856,-18.77642 -5.52233,-25.7354c1.41455,-4.17782 4.34352,-7.30554 8.24738,-8.80701c1.35615,-0.52156 2.82898,-0.78603 4.37763,-0.78603c2.74662,0 5.54562,0.85225 8.12012,2.04741c0.50866,-5.51732 2.82138,-10.81461 8.65504,-13.38781c2.14649,-0.9468 4.41884,-1.42686 6.75412,-1.427c5.20801,0 10.5074,2.32335 15.75099,6.90544c1.19704,1.04603 2.39009,2.21868 3.54668,3.47864c2.60525,-4.63187 6.86759,-9.38261 13.70043,-10.97166c1.069,-0.24859 2.15737,-0.37466 3.23488,-0.37466z" fill="#000000" stroke="none" stroke-width="0" stroke-linecap="butt" stroke-linejoin="miter"/><path d="M122.84153,339.6446c0,0 25.75111,-1.53738 32.66931,-25.7511c6.9182,-24.21372 -1.15304,-43.43097 -9.99297,-45.35268c0,0 11.146,-6.14952 18.83291,6.9182c7.68689,13.06772 11.53035,42.27793 -1.53738,58.80475c-13.06773,16.52683 -36.12842,11.53034 -39.97188,5.38083z" fill="#af6308" stroke="none" stroke-width="0" stroke-linecap="butt" stroke-linejoin="miter" opacity="0.4" style="mix-blend-mode: multiply"/><path d="M125.89994,270.28709c5.90674,3.34717 11.81349,13.97931 11.81349,13.97931l-0.78757,3.93783c0,0 -13.38862,-15.75132 -20.8705,-16.53889c-7.48188,-0.78757 -9.25391,4.5285 -9.25391,4.5285c1.57515,-10.04148 13.19176,-9.25392 19.09849,-5.90675z" fill="#af6308" stroke="none" stroke-width="0" stroke-linecap="butt" stroke-linejoin="miter" opacity="0.4" style="mix-blend-mode: multiply"/><path d="M95.18484,278.75344c6.30053,-0.78757 12.40417,8.46633 12.40417,8.46633l0.98445,4.33161c0,0 -7.48188,-5.31606 -15.16065,-6.69431c-7.67876,-1.37825 -9.05701,5.11918 -9.05701,5.11918c-0.39378,-7.28498 4.52851,-10.43524 10.82904,-11.22281z" fill="#af6308" stroke="none" stroke-width="0" stroke-linecap="butt" stroke-linejoin="miter" opacity="0.4" style="mix-blend-mode: multiply"/><path d="M394.72608,220.57838c0,0 8.17726,-8.79046 9.86557,-10.35884" fill="#ffa943" stroke="none" stroke-width="0" stroke-linecap="butt" stroke-linejoin="miter"/><path d="M394.72606,220.5784l7.98531,-12.3829c2.0761,-3.10257 6.7452,-0.09377 4.77446,3.07903c0.14493,0.42559 -12.29477,8.86037 -12.75977,9.30387z" fill="#000000" stroke="none" stroke-width="0" stroke-linecap="butt" stroke-linejoin="miter"/><path d="M315.50736,86.53695c-1.35536,0 -2.57325,-0.28583 -3.62025,-0.84972c-3.76316,-2.02721 -3.76316,-6.98495 -3.76316,-10.60519c0,-2.23537 -0.1002,-5.91464 -0.14913,-7.5768c-1.13322,-1.52391 -3.81287,-5.12239 -4.77521,-6.36048c-2.23148,-2.86838 -3.2614,-5.54803 -3.06102,-7.96515c0.30214,-3.61481 3.68548,-5.85017 6.70145,-6.39853c1.4641,-0.26641 5.81678,-1.0307 7.91778,-1.39885c0.81943,-1.19225 2.31148,-3.2816 4.13365,-5.46804c1.9845,-2.38217 4.12744,-2.88237 5.57522,-2.88237c2.2276,0 4.42802,1.19691 5.88668,3.20315c1.17826,1.61867 5.0323,7.01059 6.33252,8.82963c1.18293,0.53592 3.70258,1.68158 5.93407,2.73092c1.84623,0.86992 3.18451,2.51964 3.86957,4.7721c0.59651,1.95809 0.72234,4.7356 -0.18952,6.25562c-0.41322,0.68971 -2.6509,4.48939 -3.62257,6.14144c0.11418,1.23807 0.32388,3.4618 0.44661,4.56861c0.58641,5.2925 0.34641,8.28593 -0.80311,10.00946c-1.47108,2.20818 -4.38685,2.5375 -5.99388,2.5375c-1.59769,0 -3.16198,-0.32388 -4.29132,-0.88855c-1.21245,-0.60583 -4.00938,-1.9177 -5.57134,-2.64702c-1.33205,0.57243 -3.23267,1.42759 -4.20744,2.01246c-1.5938,0.9569 -4.20434,1.97983 -6.7496,1.97983v0z" fill="#bababa" stroke="none" stroke-width="0" stroke-linecap="butt" stroke-linejoin="miter"/><path d="M324.46675,39.79446c-1.11464,0 -2.31627,0.52345 -3.45337,1.88796c-2.66484,3.19783 -4.61906,6.218 -4.61906,6.218c0,0 -7.10632,1.24361 -9.06054,1.59893c-1.95423,0.3553 -4.26377,1.77654 -4.44142,3.90845c-0.17768,2.13191 1.24358,4.44143 2.48719,6.04035c1.24361,1.59891 5.32971,7.10628 5.32971,7.10628c0,0 0.17767,5.50736 0.17767,8.52754c0,3.02019 0,6.92863 2.30954,8.17224c0.68677,0.36979 1.48358,0.51967 2.31088,0.51967c1.95478,0 4.08009,-0.83663 5.32837,-1.58563c1.77658,-1.06593 5.68503,-2.66484 5.68503,-2.66484c0,0 4.97441,2.30954 6.75099,3.1978c0.75861,0.3793 1.90631,0.59669 3.05504,0.59669c1.5415,0 3.08515,-0.39112 3.69593,-1.3073c1.06593,-1.59891 0.53296,-6.57332 0.35532,-8.17223c-0.17767,-1.59893 -0.53296,-5.50737 -0.53296,-5.50737c0,0 3.55312,-6.04035 4.0861,-6.92863c0.53298,-0.88828 0.53298,-5.68502 -2.48719,-7.10628c-3.02017,-1.42126 -6.57332,-3.02019 -6.57332,-3.02019c0,0 -5.32971,-7.46158 -6.75097,-9.41584c-0.81482,-1.12035 -2.15529,-2.06561 -3.65294,-2.06561M324.46675,34.26919v0c3.10845,0 6.14447,1.62282 8.12146,4.3411c1.06887,1.46973 4.33964,6.04198 5.91404,8.24437c1.32222,0.60068 3.39774,1.54953 5.29437,2.44204c2.53591,1.19336 4.4313,3.49046 5.33696,6.46814c0.71749,2.35901 1.02635,5.99545 -0.46452,8.48019c-0.35664,0.59441 -2.07373,3.50977 -3.158,5.3518c0.11485,1.22527 0.26428,2.78387 0.35845,3.63136c0.67462,6.07168 0.31265,9.50404 -1.24951,11.84731c-1.61976,2.42962 -4.56504,3.76767 -8.2932,3.76767c-1.18242,0 -3.47268,-0.1533 -5.52596,-1.18001c-0.93358,-0.46674 -2.84616,-1.36982 -4.37446,-2.08619c-1.09502,0.49064 -2.17936,1.008 -2.74791,1.34912c-0.92781,0.55671 -4.25904,2.37307 -8.17113,2.37307c-1.81733,0 -3.47616,-0.39707 -4.93041,-1.18011c-5.21529,-2.80822 -5.21529,-9.21134 -5.21529,-13.03707c0,-1.86898 -0.07209,-4.78166 -0.12369,-6.62635c-1.28551,-1.72726 -3.40889,-4.57274 -4.2198,-5.6153c-2.67084,-3.43396 -3.89281,-6.76191 -3.63199,-9.89133c0.42185,-5.06266 4.93991,-8.15503 8.95918,-8.88577c1.23908,-0.22529 4.54085,-0.80625 6.80603,-1.20383c0.89175,-1.2561 2.15338,-2.95732 3.6174,-4.71417c2.08293,-2.4995 4.8168,-3.87603 7.69798,-3.87603z" fill="#000000" stroke="none" stroke-width="0" stroke-linecap="butt" stroke-linejoin="miter"/><path d="M346.08287,92.54053c0,0 -6.06549,-6.32358 -6.45265,-6.58169c-0.38716,-0.25811 2.71011,-3.09725 4.00063,-7.0979c1.29052,-4.00065 -0.38716,-10.71139 -0.38716,-10.71139c0,0 2.58104,-2.83916 4.25874,-5.80738c1.6777,-2.96822 0.51621,-8.13033 0.51621,-8.13033c0,0 2.32295,2.71011 2.58106,6.45265c0.25811,3.74254 -2.96822,7.74317 -2.96822,7.74317c0,0 1.41957,6.96886 1.67768,13.80866c0.25811,6.83979 -3.22633,10.32423 -3.22633,10.32423z" fill="#000000" stroke="none" stroke-width="0" stroke-linecap="butt" stroke-linejoin="miter"/><path d="M309.56087,64.66514l16.26067,-24.64908c0,0 1.80674,1.03243 2.71011,2.32295c0.90338,1.29052 3.48443,5.03306 3.48443,5.03306l-21.03562,31.61794l-0.27121,-12.43556l-1.14838,-1.88929z" fill="#fff8fb" stroke="none" stroke-width="0" stroke-linecap="butt" stroke-linejoin="miter" style="mix-blend-mode: overlay"/><path d="M270.47295,158.99542c-13.98778,0 -26.53164,-4.64394 -38.00364,-9.66227c-3.95889,-1.73207 -7.3772,-3.49054 -10.39315,-5.04162c-6.36747,-3.27384 -10.9687,-5.64047 -16.12838,-5.64047c-2.8544,0 -5.89522,0.74796 -9.29567,2.28663c-9.08906,4.1119 -31.21753,13.67553 -40.36639,13.67553c-0.727,0 -1.3709,-0.05515 -1.95731,-0.16855c-4.02802,-0.13748 -34.27155,-2.74412 -37.6984,-49.69622c-0.09632,-1.31729 0.7534,-2.5181 2.02721,-2.86606c0.34952,-0.09554 35.5974,-9.54887 89.8436,-9.54887c40.79825,0 81.66019,5.20707 121.45026,15.47517c0.71224,0.18408 1.32195,0.6439 1.69322,1.27924c0.37205,0.63458 0.47535,1.39186 0.28661,2.10256c-0.26797,1.01439 -6.86612,25.01704 -32.00434,39.74113c-9.13566,5.35075 -19.04494,8.06381 -29.45361,8.06381z" fill="#33425c" stroke="none" stroke-width="0" stroke-linecap="butt" stroke-linejoin="miter"/><path d="M208.50025,95.09647c-54.50335,0 -89.11503,9.45079 -89.11503,9.45079c3.39321,46.48693 33.49276,47.14395 35.19492,47.14395c0.04961,0 0.07534,-0.00059 0.07534,-0.00059c0.46054,0.10837 1.00599,0.15993 1.62956,0.15993c7.41463,0 25.69903,-7.30964 39.22808,-13.42991c3.94151,-1.78308 7.30107,-2.53182 10.43493,-2.53182c8.52752,0 15.37153,5.55024 27.629,10.9129c10.18886,4.45761 22.95744,9.43113 36.89562,9.43113c8.99214,0 18.47152,-2.07043 28.05755,-7.68511c24.44472,-14.31763 30.73055,-38.06393 30.73055,-38.06393c-45.56385,-11.7584 -86.98083,-15.38732 -120.76053,-15.38732M208.50023,89.57121c41.03132,0 82.12556,5.23602 122.14117,15.56261c1.42468,0.36764 2.64386,1.28834 3.38734,2.55804c0.74351,1.26965 0.94984,2.78346 0.57334,4.20581c-0.28049,1.0595 -7.16901,26.1245 -33.27935,41.4177c-9.56475,5.60216 -19.94419,8.44271 -30.85004,8.44271c-14.49626,0 -27.36408,-4.75548 -39.11024,-9.89439c-4.03824,-1.76678 -7.49754,-3.54561 -10.54957,-5.11508c-6.02256,-3.09698 -10.37394,-5.33456 -14.86482,-5.33456c-2.48789,0 -5.08005,0.64843 -8.15761,2.04066c-11.4927,5.19911 -32.16721,13.92107 -41.50539,13.92107c-0.8037,0 -1.53762,-0.05652 -2.22477,-0.17203c-4.67205,-0.19562 -36.61491,-3.33475 -40.18565,-52.25426c-0.19232,-2.63449 1.50698,-5.03661 4.05518,-5.73236c1.44245,-0.39386 35.95427,-9.64593 90.57044,-9.64593z" fill="#000000" stroke="none" stroke-width="0" stroke-linecap="butt" stroke-linejoin="miter"/><path d="M234.12126,144.13048l27.58764,-46.44498c0,0 22.34948,1.74605 31.07974,4.19053l-29.33369,54.47683c0,0 -19.905,-3.4921 -29.33369,-12.22236z" fill="#a5b8d8" stroke="none" stroke-width="0" stroke-linecap="butt" stroke-linejoin="miter"/><path d="M148.03228,150.38023l29.40429,-53.4029c0,0 24.11099,-1.2045 33.39424,-1.2045l-29.76105,54.33437c0,0 -25.11941,4.64164 -33.0375,0.27304z" fill="#a5b8d8" stroke="none" stroke-width="0" stroke-linecap="butt" stroke-linejoin="miter"/><path d="M212.74389,96.87333c-54.50337,0 -89.11506,9.45079 -89.11506,9.45079c3.39321,46.48693 33.49276,47.14395 35.19492,47.14395c0.04961,0 0.07534,-0.00059 0.07534,-0.00059c0.46054,0.10837 1.00604,0.15993 1.62961,0.15993c7.41463,0 25.69898,-7.30964 39.22803,-13.42991c3.94154,-1.78308 7.3011,-2.53182 10.43496,-2.53182c8.5275,0 15.37151,5.55024 27.62898,10.9129c10.18886,4.45761 22.95744,9.43113 36.89562,9.43113c8.99214,0 18.47152,-2.07043 28.05755,-7.68511c24.44472,-14.31763 30.73055,-38.06393 30.73055,-38.06393c-45.56383,-11.7584 -86.98081,-15.38732 -120.76052,-15.38732M212.74387,91.34807c41.03133,0 82.12558,5.23602 122.14114,15.56261c1.42468,0.36764 2.64386,1.28834 3.38734,2.55804c0.74351,1.26965 0.94984,2.78346 0.57334,4.20581c-0.28049,1.0595 -7.16901,26.1245 -33.27935,41.4177c-9.56475,5.60216 -19.94419,8.44271 -30.85004,8.44271c-14.49626,0 -27.36408,-4.75548 -39.11024,-9.89439c-4.03824,-1.76678 -7.49754,-3.54564 -10.54962,-5.11512c-6.02246,-3.09694 -10.37383,-5.33451 -14.86474,-5.33451c-2.48791,0 -5.08008,0.64843 -8.15765,2.04066c-11.4927,5.19911 -32.16721,13.92107 -41.50535,13.92107c-0.80375,0 -1.53767,-0.05652 -2.22482,-0.17203c-4.67204,-0.19562 -36.61491,-3.33475 -40.18565,-52.25426c-0.19232,-2.63449 1.50698,-5.03661 4.05518,-5.73236c1.44245,-0.39386 35.95429,-9.64593 90.57047,-9.64593z" fill="#000000" stroke="none" stroke-width="0" stroke-linecap="butt" stroke-linejoin="miter"/><path d="M208.22119,182.9072c-7.55583,0 -15.45497,-3.12081 -25.61434,-10.11898c-10.78539,-7.42923 -17.0884,-9.00285 -18.59677,-9.29178c-0.90175,0.18097 -2.75576,0.49631 -4.73948,0.49631h-0.00078c-3.19461,0 -5.58766,-0.80933 -7.11233,-2.4047c-0.84118,-0.88001 -1.82061,-2.4443 -1.70876,-4.89637c0.28971,-6.37989 6.14533,-11.43084 17.40529,-15.01225c0.74408,-0.2369 1.50371,-0.46991 2.28119,-0.70913c6.01406,-1.84547 12.83126,-3.93715 22.23566,-10.80015c3.77404,-2.75422 7.7205,-4.14997 11.72987,-4.14997c6.72088,0 12.40716,3.78646 17.42471,7.12787c0.56545,0.37593 1.12467,0.74874 1.67692,1.10991c6.05523,3.95889 13.13183,7.78341 15.71672,9.15275c1.69788,-0.51418 4.92434,-1.36546 7.68322,-1.36546c4.01016,0 5.59696,1.78798 6.22222,3.2878c2.68121,6.43348 -17.86977,26.00735 -29.094,32.89521c-5.13172,3.14878 -10.20442,4.67891 -15.50935,4.67891z" fill="#ffa943" stroke="none" stroke-width="0" stroke-linecap="butt" stroke-linejoin="miter"/><path d="M204.10071,128.78232c-3.16774,0 -6.52417,1.00936 -10.10072,3.61928c-11.01671,8.03921 -18.75818,9.82572 -25.30866,11.90995c-6.55045,2.08425 -15.18519,5.95498 -15.48296,12.50546c-0.16375,3.6027 3.09516,4.41339 6.06124,4.41339c2.4269,0 4.65773,-0.54265 4.65773,-0.54265c0,0 6.84823,0.5955 20.24693,9.82572c8.45189,5.82241 16.19472,9.6313 24.04696,9.6313c4.59587,0 9.22801,-1.30371 14.06491,-4.27181c13.10097,-8.03923 29.47717,-25.90416 27.98843,-29.47715c-0.49622,-1.19091 -1.95206,-1.58793 -3.67226,-1.58798c-3.44067,-0.0001 -7.93999,1.58798 -7.93999,1.58798c0,0 -9.23021,-4.76399 -16.97168,-9.82572c-5.22822,-3.41847 -11.00012,-7.78776 -17.58995,-7.78776M204.10071,123.25705v0c7.55603,0 13.87651,4.20881 18.95508,7.59062c0.55918,0.37234 1.1119,0.74047 1.65856,1.09793c5.31277,3.47371 11.44283,6.85134 14.51406,8.4989c1.95982,-0.53702 4.79487,-1.16202 7.37408,-1.16198c5.82436,0.00019 7.99614,3.12531 8.77234,4.98815c1.308,3.13922 1.05126,7.60971 -9.59165,18.96694c-6.48882,6.92429 -14.19245,13.40826 -20.60723,17.34463c-5.57913,3.42352 -11.12505,5.08775 -16.9547,5.08775c-10.44546,0 -20.01315,-5.66829 -27.18147,-10.60646c-9.44904,-6.50936 -15.2113,-8.3024 -17.0623,-8.74881c-1.11817,0.20027 -2.84868,0.44091 -4.70786,0.44091c-3.97828,0 -7.04328,-1.09652 -9.10979,-3.25912c-1.21326,-1.26963 -2.62682,-3.50265 -2.47101,-6.93038c0.34797,-7.65541 6.85061,-13.54988 19.32722,-17.51975c0.75275,-0.23948 1.52079,-0.47524 2.30727,-0.71653c5.80681,-1.78168 12.38837,-3.80108 21.41969,-10.39148c4.25673,-3.10627 8.75093,-4.68128 13.35771,-4.68128z" fill="#000000" stroke="none" stroke-width="0" stroke-linecap="butt" stroke-linejoin="miter"/><path d="M232.94092,147.9973c0,0 4.84676,-2.91587 6.97661,-3.79562" fill="#ffa943" stroke="none" stroke-width="0" stroke-linecap="butt" stroke-linejoin="miter"/><path d="M232.94094,147.99728c1.91738,-2.20996 3.65192,-4.42337 5.92185,-6.34905c1.31071,-1.27969 3.46652,-1.27057 4.61773,0.21258c1.63214,1.93442 -0.02475,5.08465 -2.50841,4.89419c-2.64058,0.07627 -5.40419,0.75014 -8.03117,1.24227z" fill="#000000" stroke="none" stroke-width="0" stroke-linecap="butt" stroke-linejoin="miter"/><path d="M232.42342,148.31413c0,0 6.778,-2.87833 11.60616,-3.71397c4.82816,-0.83564 9.09923,0.09285 0.74279,5.75665c-8.35644,5.6638 -13.3703,0.1857 -12.34895,-2.04268z" fill="#ffa943" stroke="none" stroke-width="0" stroke-linecap="butt" stroke-linejoin="miter"/><path d="M252.1713,148.06613c0,0 -6.63767,13.62466 -20.26233,24.97856c-13.62467,11.35389 -24.62921,12.75129 -34.93506,6.81234c-10.30586,-5.93895 -17.81688,-11.70324 -23.05713,-13.27531c-5.24027,-1.57207 -13.10064,-2.96947 -13.10064,-2.96947c0,0 2.7948,-4.8909 15.02208,-6.63766c12.22728,-1.74677 15.54611,-0.17467 28.64675,2.27077c13.10064,2.44545 24.97857,2.62012 32.83895,-1.3974c7.86037,-4.01752 15.19676,-12.57661 15.19676,-12.57661l-0.34935,2.7948z" fill="#af6308" stroke="none" stroke-width="0" stroke-linecap="butt" stroke-linejoin="miter" opacity="0.4" style="mix-blend-mode: multiply"/><path d="M285.96753,348.13587c-2.35965,0 -4.68667,-0.26563 -6.9166,-0.79069c-11.67084,-2.74644 -20.64728,-11.84327 -26.12232,-18.9921c-6.43814,-8.40555 -11.62113,-18.88336 -13.86427,-28.02523c-1.45556,-5.9294 -2.28585,-13.78039 2.021,-17.50004c2.57557,-2.22372 5.84241,-3.3515 9.7112,-3.3515c6.16785,0 12.53454,2.92275 15.97149,4.78997c3.2684,-5.53949 11.83551,-17.95054 22.98362,-17.95054c0.24855,0 0.50098,0.00622 0.75186,0.01942c14.12758,0.70525 19.31057,16.84061 20.94166,24.1813c2.57091,-0.94914 6.31698,-2.01322 10.17567,-2.01322c7.50457,0 12.80329,4.07617 14.91827,11.47977c1.56896,5.49134 -1.43613,13.81612 -8.24322,22.84149c-8.80789,11.67549 -25.17782,25.31142 -42.32836,25.31142z" fill="#ffa943" stroke="none" stroke-width="0" stroke-linecap="butt" stroke-linejoin="miter"/><path d="M289.75202,269.07839c-12.49517,0 -21.93674,19.00483 -21.93674,19.00483c0,0 -8.87599,-5.84425 -17.01878,-5.84489c-2.86565,-0.00025 -5.63929,0.72331 -7.90496,2.67998c-8.89204,7.67948 9.89035,53.40801 36.79219,59.73786c2.07545,0.48836 4.17734,0.71715 6.28369,0.71715c25.1961,0 51.32722,-32.68968 47.91557,-44.63042c-2.12106,-7.42355 -7.24395,-9.47727 -12.26183,-9.47756c-6.21339,-0.00038 -12.26632,3.14771 -12.26632,3.14771c0,0 -3.16489,-24.52809 -18.98951,-25.31932c-0.20464,-0.01024 -0.41024,-0.01533 -0.61331,-0.01533M289.75202,263.55317c0.29442,0 0.59257,0.00733 0.88927,0.02219c14.20179,0.71011 20.31597,14.72035 22.74882,23.39596c2.4081,-0.68171 5.26836,-1.23138 8.23141,-1.23123c8.72018,0.00054 15.12572,4.9156 17.57412,13.48495c2.5691,8.99173 -5.22399,20.66173 -8.69385,25.26185c-9.1903,12.18385 -26.36816,26.41167 -44.53436,26.41167c-2.57275,0 -5.11269,-0.29068 -7.54919,-0.86399c-21.96114,-5.16731 -37.8024,-31.79233 -42.03669,-49.04782c-2.35079,-9.57979 -1.34847,-16.58217 2.89858,-20.25009c3.09185,-2.67018 6.96665,-4.02393 11.51684,-4.0236c5.56202,0.00048 11.11062,2.06896 14.97329,3.92733c1.08822,-1.68153 2.4577,-3.62796 4.06677,-5.57711c6.30508,-7.63753 13.00545,-11.51011 19.91499,-11.51011z" fill="#000000" stroke="none" stroke-width="0" stroke-linecap="butt" stroke-linejoin="miter"/><path d="M254.16646,327.62064c0,0 21.32266,17.83229 46.31359,2.43756c35.54147,-21.894 23.56305,-40.62594 23.56305,-40.62594c0,0 16.65664,1.62504 14.21908,17.0629c-2.43756,15.43785 -19.90671,31.68824 -34.53206,38.18838c-14.62534,6.50015 -40.62596,6.0939 -49.56367,-17.0629z" fill="#af6308" stroke="none" stroke-width="0" stroke-linecap="butt" stroke-linejoin="miter" opacity="0.4" style="mix-blend-mode: multiply"/><path d="M301.08666,269.09476c8.74185,5.14226 10.54163,17.9979 10.54163,17.9979l2.05691,5.65649l-8.74183,4.37091c0.25711,-29.05375 -21.59749,-28.0253 -21.59749,-28.0253c0,0 8.99895,-5.14226 17.74078,0z" fill="#af6308" stroke="none" stroke-width="0" stroke-linecap="butt" stroke-linejoin="miter" opacity="0.4" style="mix-blend-mode: multiply"/><path d="M240.92224,289.92089c1.28557,-11.31296 10.0274,-10.0274 17.9979,-9.51317c7.9705,0.51423 10.79874,4.37091 10.28451,5.91359c-0.51423,1.54268 -2.31401,5.65649 -2.31401,5.65649c0,0 -11.57008,-7.19916 -17.74078,-7.19916c-6.1707,0 -8.2276,5.14226 -8.2276,5.14226z" fill="#af6308" stroke="none" stroke-width="0" stroke-linecap="butt" stroke-linejoin="miter" opacity="0.4" style="mix-blend-mode: multiply"/><path d="M322.1963,82.79468l21.05573,-29.19992c0,0 2.78094,4.96598 1.98639,8.74011c-0.79456,3.77413 -0.9932,12.31561 -0.9932,12.31561l-1.19183,12.31561l-12.11698,-2.97959l-8.74011,-1.19183z" fill="#515151" stroke="none" stroke-width="0" stroke-linecap="butt" stroke-linejoin="miter" opacity="0.4" style="mix-blend-mode: multiply"/><path d="M250.2746,146.39579c-11.6122,15.48295 -30.96591,16.67396 -51.51059,11.61222c-20.5447,-5.06172 -34.83665,2.67974 -34.83665,2.67974" fill="none" stroke="#000000" stroke-width="1.73673" stroke-linecap="round" stroke-linejoin="round"/><path d="M161.93639,74.18749l16.00654,-18.00735c0,0 6.67829,9.66141 6.07648,9.66141c-0.60181,0 -13.44056,18.85689 -14.04237,18.85689c-0.60181,0 -8.04063,-10.51096 -8.04063,-10.51096z" fill="#000000" stroke="none" stroke-width="0" stroke-linecap="butt" stroke-linejoin="miter"/></g></g></svg>