<svg version="1.1" xmlns="http://www.w3.org/2000/svg" xmlns:xlink="http://www.w3.org/1999/xlink" width="875.05976" height="491.41917" viewBox="0,0,875.05976,491.41917"><g transform="translate(177.52988,73.34408)"><g data-paper-data="{&quot;isPaintingLayer&quot;:true}" fill-rule="nonzero" stroke-miterlimit="10" stroke-dasharray="" stroke-dashoffset="0" style="mix-blend-mode: normal"><path d="M-153.59404,418.07509c-13.2194,0 -23.93584,-10.71644 -23.93584,-23.93583v-443.54751c0,-13.21939 10.71644,-23.93583 23.93584,-23.93583h827.18809c13.21939,0 23.93583,10.71644 23.93583,23.93583v443.54751c0,13.2194 -10.71644,23.93583 -23.93583,23.93583z" fill-opacity="0.10588" fill="#ffffff" stroke="none" stroke-width="0" stroke-linecap="butt" stroke-linejoin="miter"/><path d="M481.56655,233.2788l-1.12597,-14.68485c0.35547,-0.02773 36.60424,-3.09333 64.91576,-23.59396c4.24292,-3.07278 7.08251,-9.90563 4.30045,-17.01794c-8.00505,-20.46981 -48.6447,-23.24672 -84.00997,-19.02331c-64.45552,7.70816 -87.42282,-28.86011 -90.55825,-49.26931l14.55129,-2.28069c0.30614,1.8338 8.22491,44.81167 74.26048,36.92681c25.39388,-3.03785 85.92699,-6.35617 99.47355,28.28069c4.93947,12.62708 1.08282,26.73762 -9.37963,34.31326c-31.7634,22.99913 -70.78396,26.22292 -72.42771,26.34928z" fill="#dda254" stroke="none" stroke-width="0" stroke-linecap="butt" stroke-linejoin="miter"/><path d="M522.42559,208.10931c17.59664,-8.48407 27.65183,-14.45436 27.96607,-23.56689c0.3472,-10.06884 -8.48408,-16.65394 -8.48408,-16.65394c2.82805,-6.59874 11.31212,-9.11254 11.31212,-9.11254c4.71338,4.39916 16.65394,20.11042 10.68366,34.87901c-5.97028,14.76859 -27.02339,22.30999 -27.02339,22.30999c-2.82803,-6.28451 -14.45436,-7.85563 -14.45436,-7.85563z" fill="#ffda9f" stroke="none" stroke-width="0" stroke-linecap="butt" stroke-linejoin="miter"/><path d="M449.83956,145.57849c0,0 -0.62844,7.85563 2.82803,14.14014l-16.65394,-0.62844l-15.39704,-17.91084c0,0 18.53929,5.02761 29.22295,4.39916z" fill="#ffda9f" stroke="none" stroke-width="0" stroke-linecap="butt" stroke-linejoin="miter"/><path d="M481.56655,233.2788l-1.12597,-14.68485c0.35547,-0.02773 36.60424,-3.09333 64.91576,-23.59396c4.24292,-3.07278 7.08251,-9.90563 4.30045,-17.01794c-8.00505,-20.46981 -48.6447,-23.24672 -84.00997,-19.02331c-64.45552,7.70816 -87.42282,-28.86011 -90.55825,-49.26931l14.55129,-2.28069c0.30614,1.8338 8.22491,44.81167 74.26048,36.92681c25.39388,-3.03785 85.92699,-6.35617 99.47355,28.28069c4.93947,12.62708 1.08282,26.73762 -9.37963,34.31326c-31.7634,22.99913 -70.78396,26.22292 -72.42771,26.34928z" fill="none" stroke="#000000" stroke-width="2.09696" stroke-linecap="butt" stroke-linejoin="miter"/><path d="M520.55632,208.32784c0,0 14.75025,-0.59001 17.11029,9.44015" fill="none" stroke="#000000" stroke-width="1.04848" stroke-linecap="round" stroke-linejoin="round"/><path d="M545.86138,192.65077c8.70437,-8.01717 8.24624,-18.55402 8.24624,-18.55402c4.58123,14.65996 -6.87186,21.53182 -6.87186,21.53182z" fill="#000000" stroke="none" stroke-width="0" stroke-linecap="butt" stroke-linejoin="miter"/><path d="M542.42544,167.91206c0,0 5.03937,-8.93342 11.91123,-8.47528" fill="none" stroke="#000000" stroke-width="1.04848" stroke-linecap="round" stroke-linejoin="round"/><path d="M497.9874,156.2299c0,0 0.22907,-9.84966 0.91625,-13.05654" fill="none" stroke="#000000" stroke-width="1.04848" stroke-linecap="round" stroke-linejoin="round"/><path d="M451.71684,158.74959c0,0 -3.43594,-6.87186 -1.83249,-12.82747" fill="none" stroke="#000000" stroke-width="1.04848" stroke-linecap="round" stroke-linejoin="round"/><path d="M440.38931,145.09074l8.3471,13.74815h-13.25715l-14.23916,-16.69419z" fill="#000000" stroke="none" stroke-width="0" stroke-linecap="butt" stroke-linejoin="miter" opacity="0.52" style="mix-blend-mode: multiply"/><path d="M513.0581,211.37644l7.8561,11.78412l-17.1852,6.38306l-14.73016,-12.76613z" fill="#000000" stroke="none" stroke-width="0" stroke-linecap="butt" stroke-linejoin="miter" opacity="0.52" style="mix-blend-mode: multiply"/><path d="M528.79407,147.11532c1.14877,10.18824 -6.1792,19.3787 -16.36744,20.52746c-7.78269,0.87752 -14.41752,-1.95884 -17.89592,-8.47057c5.44139,-0.24069 8.29832,-4.66421 7.15888,-9.25855c-0.84087,-3.39045 -3.59758,-6.55432 -9.33796,-5.6585c1.79288,-7.35076 7.95878,-12.6102 15.91499,-13.50729c10.18824,-1.14876 19.3787,6.1792 20.52747,16.36744z" fill="#ff336d" stroke="#000000" stroke-width="2.24082" stroke-linecap="round" stroke-linejoin="round"/><path d="M500.45937,156.63945c0,0 14.99361,3.15412 19.08917,-6.77634c4.55655,-11.04814 -2.56964,-16.46328 -2.56964,-16.46328c0,0 12.49091,7.16727 9.48244,19.06497c-3.00847,11.8977 -19.74894,16.6438 -23.46197,14.57674c-3.71305,-2.06704 -6.0364,-5.03648 -6.0364,-5.03648z" fill="#4c192d" stroke="none" stroke-width="0" stroke-linecap="butt" stroke-linejoin="miter" opacity="0.35" style="mix-blend-mode: multiply"/><path d="M502.30709,140.57074c-0.46024,-1.66577 1.29599,-3.60447 3.92267,-4.33021c2.62668,-0.72574 5.12912,0.03631 5.58937,1.70208c0.46024,1.66577 -1.29599,3.60447 -3.92267,4.33021c-2.62668,0.72574 -5.12912,-0.03631 -5.58937,-1.70208z" fill="#ffffff" stroke="none" stroke-width="0" stroke-linecap="butt" stroke-linejoin="miter"/><path d="M501.4017,147.11532c1.14877,10.18824 -6.1792,19.3787 -16.36744,20.52746c-7.78269,0.87752 -14.41752,-1.95884 -17.89592,-8.47057c5.44139,-0.24069 8.29832,-4.66421 7.15888,-9.25855c-0.84087,-3.39045 -3.59758,-6.55432 -9.33796,-5.6585c1.79288,-7.35076 7.95878,-12.6102 15.91499,-13.50729c10.18824,-1.14876 19.3787,6.1792 20.52747,16.36744z" fill="#af33ff" stroke="#000000" stroke-width="2.24082" stroke-linecap="round" stroke-linejoin="round"/><path d="M473.06702,156.63945c0,0 14.99361,3.15412 19.08917,-6.77634c4.55655,-11.04814 -2.56964,-16.46328 -2.56964,-16.46328c0,0 12.49091,7.16727 9.48244,19.06497c-3.00847,11.8977 -19.74894,16.6438 -23.46197,14.57674c-3.71303,-2.06706 -6.0364,-5.03648 -6.0364,-5.03648z" fill="#4c192d" stroke="none" stroke-width="0" stroke-linecap="butt" stroke-linejoin="miter" opacity="0.35" style="mix-blend-mode: multiply"/><path d="M474.91475,140.57073c-0.46024,-1.66577 1.29599,-3.60447 3.92267,-4.33021c2.62668,-0.72574 5.12912,0.03631 5.58937,1.70208c0.46024,1.66577 -1.29599,3.60447 -3.92267,4.33021c-2.62668,0.72574 -5.12912,-0.03631 -5.58937,-1.70208z" fill="#ffffff" stroke="none" stroke-width="0" stroke-linecap="butt" stroke-linejoin="miter"/><path d="M164.0855,58.80021c51.6733,-47.81707 138.05254,-77.1243 177.38593,-60.92819c39.33341,16.19608 57.84325,57.84321 59.38573,75.58179c1.54248,17.73859 -8.48368,60.92817 -23.1373,93.32038c-14.65363,32.39221 -14.65363,80.20926 -14.65363,80.20926c0,0 -8.48368,-1.5425 -27.76475,-4.62747c-19.28108,-3.08496 -66.3269,-2.31372 -91.77793,4.62747c-25.45103,6.94119 -104.11784,33.16345 -125.71264,43.96085c-21.5948,10.7974 -73.2681,32.39219 -110.28777,37.7909c-37.01969,5.39871 -55.52952,-26.22224 -49.35957,-57.84321c6.16995,-31.62097 38.56215,-63.24192 79.43805,-104.1178c40.87588,-40.87586 126.48388,-107.974 126.48388,-107.974z" fill="#56dbab" stroke="none" stroke-width="0" stroke-linecap="butt" stroke-linejoin="miter"/><path d="M-41.95741,281.26264l18.70398,-25.41823l2.87753,25.89781l37.88755,-11.51014l-12.46932,33.09165l28.29577,5.75506l-34.05085,19.66315c0,0 -48.91812,-5.27548 -41.24469,-47.47932z" fill="#ff3c5a" stroke="none" stroke-width="0" stroke-linecap="butt" stroke-linejoin="miter"/><path d="M272.5566,68.87715c-7.54427,-16.74018 2.5696,-37.62497 22.58995,-46.6475c20.02035,-9.02253 42.36588,-2.76614 49.91015,13.97404c7.54427,16.74018 -2.5696,37.62497 -22.58995,46.6475c-20.02035,9.02253 -42.36588,2.76614 -49.91015,-13.97404z" fill="#deff8d" stroke="none" stroke-width="0" stroke-linecap="butt" stroke-linejoin="miter"/><path d="M278.87604,175.60542c-7.54427,-16.74018 2.5696,-37.62497 22.58995,-46.6475c20.02035,-9.02253 42.36588,-2.76614 49.91015,13.97404c7.54427,16.74018 -2.5696,37.62497 -22.58995,46.6475c-20.02035,9.02253 -42.36588,2.76614 -49.91015,-13.97404z" fill="#deff8d" stroke="none" stroke-width="0" stroke-linecap="butt" stroke-linejoin="miter"/><path d="M179.8999,121.23863c-6.96102,-15.446 2.37095,-34.71621 20.84354,-43.04121c18.47259,-8.325 39.09061,-2.5523 46.05163,12.89371c6.96102,15.446 -2.37095,34.71621 -20.84354,43.04121c-18.47259,8.325 -39.09061,2.5523 -46.05163,-12.89371z" fill="#deff8d" stroke="none" stroke-width="0" stroke-linecap="butt" stroke-linejoin="miter"/><path d="M96.74974,181.44856c-6.96102,-15.446 2.37095,-34.71621 20.84354,-43.04121c18.47259,-8.325 39.09061,-2.5523 46.05163,12.89371c6.96102,15.446 -2.37095,34.71621 -20.84354,43.04121c-18.47259,8.325 -39.09061,2.5523 -46.05163,-12.89371z" fill="#deff8d" stroke="none" stroke-width="0" stroke-linecap="butt" stroke-linejoin="miter"/><path d="M28.77968,242.25293c-5.33105,-11.82922 1.81577,-26.58718 15.96287,-32.96282c14.1471,-6.37565 29.93727,-1.95465 35.26832,9.87456c5.33105,11.82922 -1.81577,26.58718 -15.96287,32.96282c-14.1471,6.37565 -29.93727,1.95465 -35.26832,-9.87456z" fill="#deff8d" stroke="none" stroke-width="0" stroke-linecap="butt" stroke-linejoin="miter"/><path d="M505.96763,233.62057c8.71029,9.22265 8.19792,15.37108 2.56185,34.32877c-5.63606,18.95769 -20.4948,30.22981 -36.37826,27.1556c-15.88348,-3.07423 -25.10613,-10.75977 -25.10613,-10.75977c0,-38.42773 31.25457,-77.36783 31.25457,-77.36783c0,0 18.95767,17.42058 27.66797,26.64323z" fill="#56dbab" stroke="none" stroke-width="0" stroke-linecap="butt" stroke-linejoin="miter"/><path d="M363.01641,253.09063c0,0 -5.12369,-42.01431 9.22265,-75.31835c0,0 8.71029,-22.54427 14.85873,-34.32877c6.14844,-11.7845 16.39584,-16.90821 21.00717,-14.34635c4.61133,2.56185 70.70705,73.26887 70.70705,73.26887l0.51237,8.19792c0,0 -15.88346,9.22265 -23.56901,30.74219c-7.68554,21.51952 -8.71029,43.03906 -8.71029,43.03906l-3.58658,2.04948l-80.44207,-33.30404z" fill="#ffd939" stroke="none" stroke-width="0" stroke-linecap="butt" stroke-linejoin="miter"/><path d="M397.8898,115.54257l2.87225,-15.79741l9.47845,-11.20181c0,0 14.36131,14.64851 8.61678,30.73316c-5.74453,16.08465 -22.69085,8.61678 -22.69085,8.61678l1.72335,-12.35071z" fill="#9e9e9e" stroke="#000000" stroke-width="2.09696" stroke-linecap="butt" stroke-linejoin="miter"/><path d="M-42.94732,301.00118c0,0 20.60224,29.08663 110.50951,-11.41043c87.71732,-39.51063 169.78907,-86.17433 276.8634,-84.17698c0,0 15.25155,-28.95689 35.26179,-49.36734c0,0 -9.60491,26.0133 -13.60696,46.02355c-4.00206,20.01025 -5.20265,46.02355 -5.20265,46.02355c0,0 -26.01331,-9.20471 -52.02664,-8.40431c-26.01331,0.80042 -74.43811,10.40532 -107.65512,20.81065c-33.217,10.40532 -48.02458,13.20676 -84.04302,28.81474c-36.01844,15.60798 -53.45077,21.46917 -72.43708,29.61516c-36.19174,15.52787 -74.05624,11.28637 -87.6632,-17.92858z" fill="#201d1e" stroke="none" stroke-width="0" stroke-linecap="butt" stroke-linejoin="miter" opacity="0.25" style="mix-blend-mode: multiply"/><path d="M489.0911,221.55344c0,0 -30.11343,26.62202 -30.98628,66.77323l-8.72854,-2.61856c0,0 1.30928,-32.73199 12.21994,-52.37115c10.91066,-19.63917 15.71135,-23.13059 15.71135,-23.13059z" fill="#238e65" stroke="none" stroke-width="0" stroke-linecap="butt" stroke-linejoin="miter"/><path d="M475.56189,276.54318c1.30928,-12.65636 20.94848,-35.78697 25.74917,-33.60483c4.80069,2.18214 4.00677,12.97075 -1.66678,25.19069c-5.67355,12.21994 -13.60817,21.50694 -21.46384,20.19766c-7.85567,-1.30928 -2.61856,-11.78352 -2.61856,-11.78352z" fill="#238e65" stroke="none" stroke-width="0" stroke-linecap="butt" stroke-linejoin="miter"/><path d="M-43.12835,276.62283c0.63017,-14.49389 15.75421,-37.81012 32.13861,-59.23587c16.3844,-21.42573 142.41819,-136.11645 194.72222,-173.2964c52.30403,-37.17995 118.47178,-53.56435 143.04836,-49.15316c24.57658,4.41118 44.11183,22.68609 44.11183,22.68609c-86.96332,-54.19452 -257.73911,90.7443 -325.79737,153.76118c-68.05824,63.01688 -88.22366,105.23819 -88.22366,105.23819z" fill="#ffffff" stroke="none" stroke-width="0" stroke-linecap="butt" stroke-linejoin="miter"/><path d="M364.77449,211.37644l6.87407,-0.491l4.41905,-16.20317l0.491,19.14921l64.32169,31.91533c0,0 18.16721,-33.87937 32.40635,-42.71745l5.01298,3.94799c0,0 -16.50731,19.08598 -22.54428,34.32877c-6.03697,15.24279 -11.43802,47.15813 -11.43802,47.15813l-82.4889,-37.31639c0,0 2.45502,-37.31639 2.94604,-39.77143z" fill="#9b8112" stroke="none" stroke-width="0" stroke-linecap="butt" stroke-linejoin="miter"/><path d="M490.13776,282.63882c-4.69305,7.06222 -16.54177,11.33656 -17.09438,-0.93794c0.05761,-11.51789 5.82297,-22.07644 13.01272,-30.70067c4.32993,-5.42191 16.75679,-14.16408 18.77508,-2.17418c0.36895,3.92168 -0.60575,7.57826 -2.05983,10.92231c2.53701,-15.79554 -3.55538,-18.58157 -13.69357,-6.16822c-6.27139,8.03306 -11.7784,17.85313 -12.77548,28.0934c-0.75499,9.58967 9.55291,4.8273 13.83545,0.96529v0z" fill="#000000" stroke="none" stroke-width="0" stroke-linecap="butt" stroke-linejoin="miter"/><path d="M-36.55272,312.72331c-19.01111,-25.757 -5.68242,-58.99412 19.65394,-88.7368c61.55951,-72.2655 159.33656,-157.80556 226.26414,-194.59017c80.33732,-44.15486 116.53556,-43.9285 153.31551,-20.8509c31.27637,19.62438 38.02225,52.74051 38.02225,79.72404c0,11.71635 -5.51935,40.47528 -5.51935,40.47528c0,0 6.13263,-0.61327 8.58568,0.61325c2.45305,1.22652 74.20471,74.20469 74.20471,74.20469l1.22653,7.9724c0,0 31.27637,20.8509 33.11614,36.18245c1.83978,15.33155 -10.10442,40.12549 -28.19989,48.23726c-11.33117,5.07948 -37.41915,-9.60177 -37.41915,-9.60177c0,0 -4.9061,0.61327 -8.58568,-0.61325c-3.67958,-1.22652 -74.81797,-31.88961 -74.81797,-31.88961l-0.61325,-5.51935c-21.46416,-9.19893 -69.91188,-11.0387 -107.32086,-3.0663c-37.40897,7.9724 -139.21048,43.54158 -204.82951,71.75164c-65.61904,28.21005 -87.0832,-4.29283 -87.0832,-4.29283z" fill="none" stroke="#000000" stroke-width="3.88825" stroke-linecap="round" stroke-linejoin="round"/><path d="M362.68089,248.33084c0,0 -5.95628,-33.73781 13.69434,-79.42552c0,0 3.26194,-18.34034 18.80853,-40.16053" fill="none" stroke="#000000" stroke-width="3.88825" stroke-linecap="round" stroke-linejoin="round"/><path d="M447.97777,284.85817c0,0 -1.45583,-17.95529 8.91026,-41.60948c4.40952,-10.062 12.78046,-25.43458 20.668,-32.33618" fill="none" stroke="#000000" stroke-width="3.88825" stroke-linecap="round" stroke-linejoin="round"/><path d="M386.37875,262.75566c-19.41374,-52.06413 -5.73588,-108.09926 -5.73588,-108.09926" fill="none" stroke="#000000" stroke-width="1.82093" stroke-linecap="round" stroke-linejoin="round"/><path d="M424.32381,280.84574c-21.61986,-62.21223 8.82444,-122.21836 8.82444,-122.21836" fill="none" stroke="#000000" stroke-width="1.82093" stroke-linecap="round" stroke-linejoin="round"/><path d="M438.44291,284.37551c0,0 -3.54685,-17.94155 10.0805,-47.10403c5.72976,-12.26168 14.44497,-25.61938 26.43703,-35.70361" fill="none" stroke="#000000" stroke-width="1.82093" stroke-linecap="round" stroke-linejoin="round"/><path d="M417.6629,245.41233c0,-1.24796 16.84751,-35.56693 53.97442,-46.48662" fill="none" stroke="#000000" stroke-width="1.82093" stroke-linecap="round" stroke-linejoin="round"/><path d="M474.88088,285.8716c-0.82446,-3.13291 0.16487,-15.99433 7.74982,-27.70151c7.58495,-11.70718 15.66455,-13.68586 15.66455,-13.68586c0,0 5.28206,3.69013 -3.95737,21.43568c-10.38807,19.95167 -19.45703,19.95167 -19.45703,19.95167z" fill="#000000" stroke="none" stroke-width="0" stroke-linecap="butt" stroke-linejoin="miter"/><path d="M400.72033,97.77492c4.32279,1.67503 7.38793,5.87344 7.38793,10.78774c0,6.06528 -4.66903,11.04005 -10.60897,11.52618z" fill="#000000" stroke="none" stroke-width="0" stroke-linecap="butt" stroke-linejoin="miter"/><path d="M400.99768,85.22428c10.99049,2.08504 19.30082,11.74122 19.30082,23.33841c0,9.30181 -5.34625,17.35494 -13.1336,21.25425" fill="none" stroke="#000000" stroke-width="3.88825" stroke-linecap="round" stroke-linejoin="round"/><path d="M411.4796,91.40292c0,0 -5.92638,15.21101 -6.9141,15.21101c-0.98773,0 -5.53127,-1.38283 -5.53127,-1.97545c0,-0.59262 1.38283,-20.74228 1.38283,-20.14964c0,0.59264 11.06255,6.9141 11.06255,6.9141z" fill="#000000" stroke="none" stroke-width="0" stroke-linecap="butt" stroke-linejoin="miter"/><path d="M404.17042,115.1084l-4.34601,12.64291l-4.74109,0.19754l2.5681,-14.42082z" fill="#000000" stroke="none" stroke-width="0" stroke-linecap="butt" stroke-linejoin="miter"/><path d="M284.01115,337.58768c-24.11381,0 -46.80781,-0.90818 -64.97329,-1.95607c-0.88352,-0.05035 -1.96839,-0.1017 -3.22381,-0.1613c-24.685,-1.17014 -51.37127,-4.03129 -62.13578,-16.3738c-3.57105,-4.09396 -5.21068,-9.03857 -4.74221,-14.30062c2.31768,-26.00204 48.04473,-24.95109 75.36179,-24.32336c4.46482,0.10274 8.32147,0.19108 10.67204,0.1017c30.4258,-1.15577 62.15633,-1.51328 87.65499,-1.7999c59.96397,-0.67291 67.80876,-18.5004 74.1105,-32.82566c8.03383,-18.2569 19.03461,-43.26038 40.38897,-58.51231c19.57705,-13.98213 35.89537,-6.51541 41.79437,-0.61949c0,0 3.24524,3.24137 4.03296,8.71758c1.11569,7.7565 -2.68715,13.23114 -6.63535,8.47856l-7.72036,-6.6926c-0.88968,-0.82701 -9.08172,-7.78006 -22.91181,2.10091c-18.06276,12.90035 -28.12249,35.7649 -35.46595,52.45921c-9.47006,21.52283 -23.28371,40.90161 -87.42898,41.62178c-25.40824,0.2856 -57.03193,0.64107 -87.26049,1.78963c-2.79026,0.1089 -6.66541,0.0185 -11.56995,-0.09554c-39.3226,-0.90407 -59.627,2.76562 -60.35231,10.90628c-0.113,1.27083 0.22602,2.23036 1.17118,3.31319c5.36684,6.15378 22.7721,9.96935 51.73496,11.3429c1.31295,0.06165 2.44918,0.11609 3.37379,0.16951c128.15491,7.39276 211.19054,-3.85789 223.64401,-33.91898l12.36097,6.18048c-10.01454,24.17645 -43.38427,35.91614 -106.43028,41.70728c-21.47353,1.97352 -44.02371,2.6906 -65.44999,2.6906z" fill="#dda254" stroke="none" stroke-width="0" stroke-linecap="butt" stroke-linejoin="miter"/><path d="M288.62463,336.95982c-0.45811,-1.83249 -0.68718,-13.51465 -0.68718,-13.51465" fill="none" stroke="#000000" stroke-width="1.04848" stroke-linecap="round" stroke-linejoin="round"/><path d="M356.65608,320.9255c0,0 0.68718,11.45309 0.68718,12.36936" fill="none" stroke="#000000" stroke-width="1.04848" stroke-linecap="round" stroke-linejoin="round"/><path d="M434.30815,299.16459c8.93342,-9.39155 6.64279,-12.36936 6.64279,-12.36936c0,0 14.20186,5.72655 14.94047,6.39454c0.73861,0.668 -6.23611,8.95262 -6.23611,8.95262l-15.34717,-2.97781z" fill="#000000" stroke="none" stroke-width="0" stroke-linecap="butt" stroke-linejoin="miter"/><path d="M161.51676,306.89133c0,0 -2.50326,-8.91789 14.23731,-14.08087c0,0 -10.63887,5.47589 -10.16952,13.61149z" fill="#000000" stroke="none" stroke-width="0" stroke-linecap="butt" stroke-linejoin="miter"/><path d="M282.89632,60.97202c-4.45569,-10.6114 3.37862,-24.01992 17.49842,-29.94877c14.1198,-5.92885 29.17821,-2.13289 33.63389,8.47851c4.45569,10.6114 -3.37862,24.01992 -17.49842,29.94877c-14.1198,5.92885 -29.17821,2.13289 -33.63389,-8.47851z" fill="#569137" stroke="none" stroke-width="0" stroke-linecap="butt" stroke-linejoin="miter"/><path d="M285.79307,169.40641c-4.694,-11.17896 3.82521,-25.41628 19.02819,-31.79995c15.20298,-6.38367 31.33267,-2.49632 36.02668,8.68263c4.694,11.17896 -3.82521,25.41628 -19.02819,31.79995c-15.20298,6.38367 -31.33267,2.49632 -36.02668,-8.68263z" fill="#569137" stroke="none" stroke-width="0" stroke-linecap="butt" stroke-linejoin="miter"/><path d="M189.67632,115.60017c-4.694,-11.17896 2.21895,-24.74182 15.44051,-30.2935c13.22156,-5.55168 27.74499,-0.98987 32.439,10.18909c4.694,11.17896 -2.21895,24.74182 -15.44051,30.2935c-13.22156,5.55168 -27.74499,0.98987 -32.439,-10.18909z" fill="#569137" stroke="none" stroke-width="0" stroke-linecap="butt" stroke-linejoin="miter"/><path d="M106.43795,176.06288c-4.694,-11.17896 2.21895,-24.74182 15.44051,-30.2935c13.22156,-5.55168 27.74499,-0.98987 32.439,10.18909c4.694,11.17896 -2.21895,24.74182 -15.44051,30.2935c-13.22156,5.55168 -27.74499,0.98987 -32.439,-10.18909z" fill="#569137" stroke="none" stroke-width="0" stroke-linecap="butt" stroke-linejoin="miter"/><path d="M35.99756,237.45292c-3.66592,-8.73053 1.50872,-19.22869 11.55787,-23.44828c10.04915,-4.2196 21.16741,-0.56277 24.83333,8.16776c3.66592,8.73053 -1.50872,19.22869 -11.55787,23.44828c-10.04915,4.2196 -21.16741,0.56277 -24.83333,-8.16776z" fill="#569137" stroke="none" stroke-width="0" stroke-linecap="butt" stroke-linejoin="miter"/><path d="M314.89938,28.22981c10.69383,-0.83253 21.99289,7.11738 22.72639,18.41232c1.24754,17.24457 -15.70507,30.71411 -31.9258,31.12952c-18.16932,0.98291 -32.13508,-15.99415 -21.58663,-32.47278c-7.6014,19.58109 10.34222,32.14223 28.32513,26.53322c23.95354,-6.87346 31.40054,-38.01069 2.46094,-43.60229v0z" fill="#000000" stroke="none" stroke-width="0" stroke-linecap="butt" stroke-linejoin="miter"/><path d="M288.42526,66.71867c-4.19747,-9.01817 2.23803,-20.90799 14.37408,-26.55667c12.13606,-5.64867 25.37699,-2.91716 29.57446,6.10101c4.19747,9.01817 -2.23803,20.90799 -14.37408,26.55667c-12.13606,5.64867 -25.37699,2.91716 -29.57446,-6.10101z" fill="#000000" stroke="none" stroke-width="0" stroke-linecap="butt" stroke-linejoin="miter"/><path d="M321.35384,134.47533c11.35774,-0.6389 22.9702,7.79392 23.61265,19.7795c0.82873,11.97809 -7.43079,22.5939 -17.59598,27.94023c-10.14026,5.30038 -23.22118,6.19738 -33.10543,-0.28341c-10.2177,-6.43118 -12.48338,-20.51911 -5.62226,-29.99374c-8.34196,20.48713 10.33545,34.02301 29.36772,28.42702c25.34102,-6.82456 33.71968,-39.48276 3.34327,-45.86959v0z" fill="#000000" stroke="none" stroke-width="0" stroke-linecap="butt" stroke-linejoin="miter"/><path d="M292.81353,174.54655c-4.26431,-9.56827 2.71714,-21.97697 15.5935,-27.7156c12.87636,-5.73863 26.77162,-2.63409 31.03593,6.93419c4.26431,9.56827 -2.71714,21.97697 -15.5935,27.7156c-12.87636,5.73863 -26.77162,2.63409 -31.03593,-6.93419z" fill="#000000" stroke="none" stroke-width="0" stroke-linecap="butt" stroke-linejoin="miter"/><path d="M218.46977,83.39115c9.86071,-1.00647 20.47539,6.08747 21.40338,16.50566c1.15085,10.47241 -5.71471,20.07282 -14.4377,25.12025c-8.70301,5.00636 -20.14011,6.25622 -29.03579,0.92415c-9.15229,-5.19426 -11.67692,-17.63693 -5.9919,-26.0983c-7.59464,21.71945 16.16493,31.42782 32.72249,21.18839c18.13442,-10.14752 18.15633,-34.31408 -4.66048,-37.64011v0z" fill="#000000" stroke="none" stroke-width="0" stroke-linecap="butt" stroke-linejoin="miter"/><path d="M194.86607,119.53516c-4.07772,-8.23808 1.60382,-19.36489 12.69009,-24.85241c11.08627,-5.48753 23.37911,-3.25776 27.45683,4.98032c4.07772,8.23808 -1.60382,19.36489 -12.69009,24.85241c-11.08627,5.48753 -23.37911,3.25776 -27.45683,-4.98032z" fill="#000000" stroke="none" stroke-width="0" stroke-linecap="butt" stroke-linejoin="miter"/><path d="M133.42869,144.06137c9.79204,-1.53546 20.77333,4.97728 22.26027,15.33041c1.71243,10.39541 -4.62663,20.35111 -13.06559,25.86053c-8.42117,5.4673 -19.77435,7.33047 -28.94404,2.4847c-9.4184,-4.69441 -12.60872,-16.9833 -7.38695,-25.73822c-6.41561,22.09653 17.83205,30.5127 33.81486,19.3975c17.56218,-11.10846 16.28408,-35.24106 -6.67855,-37.33493v0z" fill="#000000" stroke="none" stroke-width="0" stroke-linecap="butt" stroke-linejoin="miter"/><path d="M111.80342,181.42277c-4.51497,-8.0068 0.55982,-19.42312 11.33485,-25.49906c10.77503,-6.07594 23.17002,-4.51066 27.68498,3.49614c4.51497,8.0068 -0.55982,19.42312 -11.33485,25.49906c-10.77503,6.07594 -23.17002,4.51066 -27.68498,-3.49614z" fill="#000000" stroke="none" stroke-width="0" stroke-linecap="butt" stroke-linejoin="miter"/><path d="M57.42632,213.18823c20.63328,-1.44455 22.54275,22.218 7.09398,31.78094c-6.49693,4.21856 -15.25689,5.65613 -22.33165,1.91734c-7.23393,-3.5491 -9.73547,-13.18248 -5.69948,-19.85854c-3.73663,11.43625 5.39333,20.47527 16.73106,18.54561c19.31748,-2.50029 28.08236,-29.30353 4.20608,-32.38535z" fill="#000000" stroke="none" stroke-width="0" stroke-linecap="butt" stroke-linejoin="miter"/><path d="M40.74125,242.01469c-3.48356,-6.17771 0.43193,-14.98606 8.74549,-19.67399c8.31356,-4.68794 17.877,-3.48023 21.36056,2.69748c3.48356,6.17771 -0.43193,14.98606 -8.74549,19.67399c-8.31356,4.68794 -17.877,3.48023 -21.36056,-2.69748z" fill="#000000" stroke="none" stroke-width="0" stroke-linecap="butt" stroke-linejoin="miter"/><path d="M411.7657,216.61865c26.07939,-41.5977 53.23645,-35.77832 53.23645,-35.77832c3.66404,5.38829 0.86213,14.00959 0.86213,14.00959c-14.87172,-9.69894 -42.8909,29.5279 -42.8909,29.5279c-3.01746,-3.87956 -11.20767,-7.75915 -11.20767,-7.75915z" fill="#ffda9f" stroke="none" stroke-width="0" stroke-linecap="butt" stroke-linejoin="miter"/><path d="M465.00245,180.05235c4.35219,5.95561 0.45813,15.1181 0.45813,15.1181" fill="none" stroke="#000000" stroke-width="1.04848" stroke-linecap="round" stroke-linejoin="round"/><path d="M410.94379,216.47322c0,0 8.47529,2.51967 12.36936,8.47528" fill="none" stroke="#000000" stroke-width="1.04848" stroke-linecap="round" stroke-linejoin="round"/><path d="M328.96455,279.16259c8.00542,-0.25016 24.76674,-2.00136 34.52333,-4.75321c9.7566,-2.75185 19.51319,-7.75523 19.51319,-7.75523c3.00203,2.75185 6.50439,11.2576 6.50439,11.2576c0,0 -16.7613,9.75657 -36.02434,13.25895c-19.26304,3.50238 -47.28196,1.50102 -47.28196,1.50102l-0.50033,-12.75862c0,0 15.2603,-0.50035 23.26571,-0.75051z" fill="#ffda9f" stroke="none" stroke-width="0" stroke-linecap="butt" stroke-linejoin="miter"/><path d="M237.90304,281.16395l0.25016,12.75862l-41.27788,0.50033l-2.75187,-13.0088z" fill="#ffda9f" stroke="none" stroke-width="0" stroke-linecap="butt" stroke-linejoin="miter"/><path d="M155.34725,320.44047c0,0 5.75388,-7.50508 11.2576,-9.00608c0,0 4.50305,4.0027 15.01014,5.50372c10.50709,1.50102 44.29625,4.72834 44.29625,4.72834c0,0 -0.66081,10.91517 -0.41065,14.16735c0,0 -60.14658,-3.88556 -70.15335,-15.39334z" fill="#ffda9f" stroke="none" stroke-width="0" stroke-linecap="butt" stroke-linejoin="miter"/><path d="M382.5401,265.72154c0,0 6.18468,7.55904 7.32999,13.05654" fill="none" stroke="#000000" stroke-width="1.04848" stroke-linecap="round" stroke-linejoin="round"/><path d="M306.03336,293.43804c-0.22907,-0.68718 -0.22907,-13.51465 -0.22907,-13.51465" fill="none" stroke="#000000" stroke-width="1.04848" stroke-linecap="round" stroke-linejoin="round"/><path d="M238.00191,281.98495v11.91122" fill="none" stroke="#000000" stroke-width="1.04848" stroke-linecap="round" stroke-linejoin="round"/><path d="M194.70916,281.75589c1.14531,2.74874 2.29063,12.82747 2.29063,12.82747" fill="none" stroke="#000000" stroke-width="1.04848" stroke-linecap="round" stroke-linejoin="round"/><path d="M156.22674,320.00925c0,0 5.03937,-7.7881 11.4531,-8.70435" fill="none" stroke="#000000" stroke-width="1.04848" stroke-linecap="round" stroke-linejoin="round"/><path d="M225.32153,335.90116c-0.68718,-3.66501 1.14531,-14.20185 1.14531,-14.20185" fill="none" stroke="#000000" stroke-width="1.04848" stroke-linecap="round" stroke-linejoin="round"/><path d="M363.33028,320.38517c0,0 15.14985,-1.92815 28.37152,-5.50904c13.22167,-3.58088 21.48523,-5.78448 21.48523,-5.78448l10.46718,9.64081c0,0 -14.59894,7.71265 -28.09608,10.19171c-13.49714,2.47906 -25.89247,3.85633 -25.89247,3.85633z" fill="#ffda9f" stroke="none" stroke-width="0" stroke-linecap="butt" stroke-linejoin="miter"/><path d="M424.00033,319.32205c-2.51967,-1.83249 -9.84967,-9.6206 -9.84967,-9.6206" fill="none" stroke="#000000" stroke-width="1.04848" stroke-linecap="round" stroke-linejoin="round"/><path d="M284.01115,337.58768c-24.11381,0 -46.80781,-0.90818 -64.97329,-1.95607c-0.88352,-0.05035 -1.96839,-0.1017 -3.22381,-0.1613c-24.685,-1.17014 -51.37127,-4.03129 -62.13578,-16.3738c-3.57105,-4.09396 -5.21068,-9.03857 -4.74221,-14.30062c2.31768,-26.00204 48.04473,-24.95109 75.36179,-24.32336c4.46482,0.10274 8.32147,0.19108 10.67204,0.1017c30.4258,-1.15577 62.15633,-1.51328 87.65499,-1.7999c59.96397,-0.67291 67.80876,-18.5004 74.1105,-32.82566c8.03383,-18.2569 19.03461,-43.26038 40.38897,-58.51231c19.57705,-13.98213 35.89537,-6.51541 41.79437,-0.61949c0,0 3.24524,3.24137 4.03296,8.71758c1.11569,7.7565 -2.68715,13.23114 -6.63535,8.47856l-7.72036,-6.6926c-0.88968,-0.82701 -9.08172,-7.78006 -22.91181,2.10091c-18.06276,12.90035 -28.12249,35.7649 -35.46595,52.45921c-9.47006,21.52283 -23.28371,40.90161 -87.42898,41.62178c-25.40824,0.2856 -57.03193,0.64107 -87.26049,1.78963c-2.79026,0.1089 -6.66541,0.0185 -11.56995,-0.09554c-39.3226,-0.90407 -59.627,2.76562 -60.35231,10.90628c-0.113,1.27083 0.22602,2.23036 1.17118,3.31319c5.36684,6.15378 22.7721,9.96935 51.73496,11.3429c1.31295,0.06165 2.44918,0.11609 3.37379,0.16951c128.15491,7.39276 211.19054,-3.85789 223.64401,-33.91898l12.36097,6.18048c-10.01454,24.17645 -43.38427,35.91614 -106.43028,41.70728c-21.47353,1.97352 -44.02371,2.6906 -65.44999,2.6906z" fill="none" stroke="#000000" stroke-width="2.09696" stroke-linecap="butt" stroke-linejoin="miter"/><path d="M370.64352,330.12886c0,11.99322 -9.72242,21.71566 -21.71567,21.71566c-9.1615,0 -16.50197,-4.1665 -19.69177,-12.19154c6.35654,0.43339 10.25715,-4.334 9.53481,-9.82374c-0.53306,-4.05122 -3.32274,-8.09014 -10.11269,-7.80121c3.04742,-8.30945 10.9039,-13.61481 20.26963,-13.61481c11.99322,0 21.71567,9.72242 21.71567,21.71566z" fill="#33c5ff" stroke="#000000" stroke-width="2.6212" stroke-linecap="round" stroke-linejoin="round"/><path d="M336.45942,337.48596c0,0 17.01495,5.63139 23.0771,-5.37483c6.74445,-12.24498 -0.8292,-19.47345 -0.8292,-19.47345c0,0 14.63743,10.8392 9.58109,24.2746c-5.05634,13.43541 -26.19478,15.88717 -30.23986,12.99784c-4.04508,-2.88933 -6.35654,-6.64548 -6.35654,-6.64548z" fill="#4c192d" stroke="none" stroke-width="0" stroke-linecap="butt" stroke-linejoin="miter" opacity="0.35" style="mix-blend-mode: multiply"/><path d="M340.71319,319.05004c-0.31666,-1.99659 1.97886,-4.01993 5.1272,-4.51926c3.14834,-0.49933 5.95727,0.71444 6.27393,2.71103c0.31666,1.99659 -1.97886,4.01993 -5.1272,4.51926c-3.14834,0.49933 -5.95727,-0.71444 -6.27393,-2.71103z" fill="#ffffff" stroke="none" stroke-width="0" stroke-linecap="butt" stroke-linejoin="miter"/><path d="M339.35909,330.12886c0,11.99322 -9.72242,21.71566 -21.71567,21.71566c-9.1615,0 -16.50197,-4.1665 -19.69177,-12.19154c6.35654,0.43339 10.25715,-4.334 9.53481,-9.82374c-0.53306,-4.05122 -3.32274,-8.09014 -10.11269,-7.80121c3.04742,-8.30945 10.9039,-13.61481 20.26963,-13.61481c11.99322,0 21.71567,9.72242 21.71567,21.71566z" fill="#ff33c5" stroke="#000000" stroke-width="2.6212" stroke-linecap="round" stroke-linejoin="round"/><path d="M305.17501,337.48596c0,0 17.01495,5.63139 23.0771,-5.37483c6.74445,-12.24498 -0.8292,-19.47345 -0.8292,-19.47345c0,0 14.2449,10.8392 9.18856,24.2746c-5.05634,13.43541 -25.80224,15.88717 -29.84732,12.99784c-4.04508,-2.88933 -6.35654,-6.64548 -6.35654,-6.64548z" fill="#4c192d" stroke="none" stroke-width="0" stroke-linecap="butt" stroke-linejoin="miter" opacity="0.35" style="mix-blend-mode: multiply"/><path d="M309.42876,319.05004c-0.31666,-1.99659 1.97886,-4.01993 5.1272,-4.51926c3.14834,-0.49933 5.95727,0.71444 6.27393,2.71103c0.31666,1.99659 -1.97886,4.01993 -5.1272,4.51926c-3.14834,0.49933 -5.95727,-0.71444 -6.27393,-2.71103z" fill="#ffffff" stroke="none" stroke-width="0" stroke-linecap="butt" stroke-linejoin="miter"/><path d="M309.09481,330.12886c0,11.99322 -9.72242,21.71566 -21.71567,21.71566c-9.1615,0 -16.50197,-4.1665 -19.69177,-12.19154c6.35654,0.43339 10.25715,-4.334 9.53481,-9.82374c-0.53306,-4.05122 -3.32274,-8.09014 -10.11269,-7.80121c3.04742,-8.30945 10.9039,-13.61481 20.26963,-13.61481c11.99322,0 21.71567,9.72242 21.71567,21.71566z" fill="#fff533" stroke="#000000" stroke-width="2.6212" stroke-linecap="round" stroke-linejoin="round"/><path d="M274.91073,337.48596c0,0 17.01495,5.63139 23.0771,-5.37483c6.74445,-12.24498 -0.8292,-19.47345 -0.8292,-19.47345c0,0 14.76038,11.3901 9.70404,24.82551c-5.05634,13.43541 -26.31775,15.33627 -30.36281,12.44694c-4.04506,-2.88933 -6.35654,-6.64548 -6.35654,-6.64548z" fill="#4c192d" stroke="none" stroke-width="0" stroke-linecap="butt" stroke-linejoin="miter" opacity="0.35" style="mix-blend-mode: multiply"/><path d="M279.16448,319.05004c-0.31666,-1.99659 1.97886,-4.01993 5.1272,-4.51926c3.14834,-0.49933 5.95727,0.71444 6.27393,2.71103c0.31666,1.99659 -1.97886,4.01993 -5.1272,4.51926c-3.14834,0.49933 -5.95727,-0.71444 -6.27393,-2.71103z" fill="#ffffff" stroke="none" stroke-width="0" stroke-linecap="butt" stroke-linejoin="miter"/></g></g></svg>