<svg version="1.1" xmlns="http://www.w3.org/2000/svg" xmlns:xlink="http://www.w3.org/1999/xlink" width="231.97774" height="31.77778" viewBox="0,0,231.97774,31.77778"><g transform="translate(-144.53613,-156.61111)"><g data-paper-data="{&quot;isPaintingLayer&quot;:true}" fill-rule="nonzero" stroke="none" stroke-width="1" stroke-linecap="butt" stroke-linejoin="miter" stroke-miterlimit="10" stroke-dasharray="" stroke-dashoffset="0" style="mix-blend-mode: normal"><path d="M176.31392,169.32222h-31.77778v-8.73889c0,-2.1938 1.77836,-3.97222 3.97222,-3.97222h23.83333c2.1938,0 3.97222,1.77842 3.97222,3.97222z" fill="#e4d9ea"/><path d="M176.3139,184.41667c0,2.19386 -1.77842,3.97222 -3.97222,3.97222h-23.83333c-2.19386,0 -3.97222,-1.77836 -3.97222,-3.97222v-8.73889h31.77778z" fill="#0e60ef"/><path d="M176.31391,175.67778h-31.77778v-6.35556h31.77778z" fill="#f0b14b"/><path d="M160.42502,165.08517c4.09511,0 7.41483,3.31973 7.41483,7.41483c0,4.09516 -3.31973,7.41475 -7.41483,7.41475c-4.09516,0 -7.41475,-3.31959 -7.41475,-7.41475c0,-4.0951 3.31959,-7.41483 7.41475,-7.41483z" fill="#0f182d"/><path d="M160.42502,169.32222c1.75493,0 3.17778,1.42285 3.17778,3.17778c0,1.75513 -1.42285,3.17778 -3.17778,3.17778c-1.75513,0 -3.17778,-1.42265 -3.17778,-3.17778c0,-1.75493 1.42265,-3.17778 3.17778,-3.17778z" fill="#e4d9ea"/><text transform="translate(181.26392,178.5) scale(0.5,0.5)" font-size="40" xml:space="preserve" fill="#ffffff" fill-rule="nonzero" stroke="none" stroke-width="1" stroke-linecap="butt" stroke-linejoin="miter" stroke-miterlimit="10" stroke-dasharray="" stroke-dashoffset="0" font-family="Sans Serif" font-weight="normal" text-anchor="start" style="mix-blend-mode: normal"><tspan x="0" dy="0">Discord Lootbox SFX</tspan></text></g></g></svg>