<svg version="1.1" xmlns="http://www.w3.org/2000/svg" xmlns:xlink="http://www.w3.org/1999/xlink" width="875.05976" height="491.41917" viewBox="0,0,875.05976,491.41917"><g transform="translate(177.52988,73.34408)"><g data-paper-data="{&quot;isPaintingLayer&quot;:true}" fill-rule="nonzero" stroke-miterlimit="10" stroke-dasharray="" stroke-dashoffset="0" style="mix-blend-mode: normal"><path d="M-153.59404,418.07509c-13.2194,0 -23.93584,-10.71644 -23.93584,-23.93583v-443.54751c0,-13.21939 10.71644,-23.93583 23.93584,-23.93583h827.18809c13.21939,0 23.93583,10.71644 23.93583,23.93583v443.54751c0,13.2194 -10.71644,23.93583 -23.93583,23.93583z" fill-opacity="0.10588" fill="#ffffff" stroke="none" stroke-width="0" stroke-linecap="butt" stroke-linejoin="miter"/><path d="M244.59985,41.34725c0,0 -9.37396,-10.44526 -9.90961,-22.76532c-0.53565,-12.32005 8.83831,-23.30097 14.99833,-24.10445c6.16002,-0.80348 11.7844,3.74958 15.26615,7.76699c3.48175,4.01742 12.85571,10.98092 19.81923,13.39136c6.96352,2.41044 32.13928,3.74958 40.97759,2.9461c8.83831,-0.80348 25.17577,0.26783 35.08538,7.76699c9.90961,7.49917 12.32006,12.85571 12.32006,12.85571c0,0 11.24875,-2.67827 19.28357,-7.76699c8.03482,-5.08873 20.35488,-10.17744 24.64011,-5.62438c4.28523,4.55306 9.37396,15.26615 2.67827,22.49749c-6.69569,7.23134 -18.74792,9.10613 -25.97925,9.64178c-7.23133,0.53565 -13.92702,0.53565 -13.92702,0.53565c0,0 1.60696,4.82088 -2.14262,10.44526c-3.74958,5.62438 -6.96352,10.17744 -6.96352,10.17744c0,0 -110.34487,-9.10613 -126.14668,-37.76364z" fill="#a2fc00" stroke="none" stroke-width="0" stroke-linecap="butt" stroke-linejoin="miter"/><path d="M224.39273,171.5918c-5.92337,-1.64538 -15.20844,-3.57846 -30.41688,-12.22639c-11.93568,-6.78696 -8.42806,-23.53901 0.59641,-37.87199c10.13897,-16.10305 23.25997,-17.29586 33.39894,-16.10305c10.13897,1.19281 33.10073,6.26229 49.20379,14.31382c16.10306,8.05153 7.45512,35.78456 3.57846,43.53788c-3.5435,7.08699 -11.62999,15.50664 -26.24203,14.31382c-15.15511,-1.23715 -24.75099,-4.47308 -30.11868,-5.9641z" fill="#c7d5ff" stroke="none" stroke-width="0" stroke-linecap="butt" stroke-linejoin="miter"/><path d="M148.4597,318.39455c0,0 -15.24026,1.17234 -28.13585,0c-12.8956,-1.17234 -24.61887,-16.99874 -22.86038,-38.68679c1.75849,-21.68805 25.79119,-20.51571 29.89434,-19.92956c4.10315,0.58615 30.48051,9.37861 30.48051,9.37861c-3.51698,-15.24025 24.61887,-43.37609 36.34214,-51.58238c11.72327,-8.20629 23.44655,-14.06791 23.44655,-14.06791c-31.65284,-7.03396 -51.5824,-49.23772 -51.5824,-49.23772c-21.10189,-4.10315 -21.68805,-36.92828 -9.96478,-59.78867c11.72327,-22.86038 36.34214,-20.51572 36.34214,-20.51572c57.44403,-65.65029 161.19498,-14.65407 175.26291,0.58617c14.06793,15.24024 15.24026,27.54967 15.24026,27.54967c0,0 16.99875,-1.17234 26.96353,9.37861c9.96478,10.55095 7.62012,42.20377 -12.30944,67.99495c-19.92956,25.79118 -45.1346,17.5849 -45.1346,17.5849c-9.37861,24.03269 -49.82391,24.03269 -49.82391,24.03269c7.03397,11.1371 26.96353,53.92703 29.89434,77.37356c2.93081,23.44654 -12.89561,29.89433 -30.48051,28.72201c-17.5849,-1.17232 -21.10189,-23.44654 -21.10189,-23.44654c-4.68932,24.03269 -36.92831,18.17106 -36.92831,18.17106c0,0 -7.03395,9.37862 -17.5849,16.99874c-10.55095,7.62012 -39.85913,15.82641 -56.85787,9.37861c-16.99873,-6.4478 -21.10189,-29.89433 -21.10189,-29.89433z" fill="#8eaafc" stroke="none" stroke-width="0" stroke-linecap="butt" stroke-linejoin="miter"/><path d="M224.39273,171.5918c-5.92337,-1.64538 -15.20844,-3.57846 -30.41688,-12.22639c-11.93568,-6.78696 -8.42806,-23.53901 0.59641,-37.87199c10.13897,-16.10305 23.25997,-17.29586 33.39894,-16.10305c10.13897,1.19281 33.10073,6.26229 49.20379,14.31382c16.10306,8.05153 7.45512,35.78456 3.57846,43.53788c-3.5435,7.08699 -11.62999,15.50664 -26.24203,14.31382c-15.15511,-1.23715 -24.75099,-4.47308 -30.11868,-5.9641z" fill="#c7d5ff" stroke="none" stroke-width="0" stroke-linecap="butt" stroke-linejoin="miter"/><path d="M98.02082,282.25806c1.33731,-15.3791 12.92736,-20.72836 12.92736,-20.72836c0,0 2.45173,-0.66865 7.13234,4.01194c4.68061,4.68059 7.35523,15.15621 7.35523,30.53531c0,15.3791 -12.92736,18.49949 -12.92736,18.49949c0,0 -7.35523,-2.45174 -12.48159,-14.04179c-5.12636,-11.59005 -2.00597,-18.27661 -2.00597,-18.27661z" fill="#c7d5ff" stroke="none" stroke-width="0" stroke-linecap="butt" stroke-linejoin="miter"/><path d="M170.23575,292.51077c18.72239,6.90946 24.07165,25.85472 23.18011,38.78208c-0.89154,12.92736 -14.26468,16.49353 -14.26468,16.49353c0,0 -7.57811,-0.22289 -16.71642,-3.56617c-9.13831,-3.34328 -14.0418,-13.15024 -13.15026,-30.08954c0.89154,-16.9393 11.36716,-20.05969 11.36716,-20.05969z" fill="#c7d5ff" stroke="none" stroke-width="0" stroke-linecap="butt" stroke-linejoin="miter"/><path d="M363.47757,113.08793c3.34328,-7.35521 14.0418,-8.02388 21.17413,-4.23482c7.13234,3.78905 9.80697,12.70447 7.35523,24.96318c-2.45174,12.25871 -12.48159,33.20995 -19.83682,39.89651c-7.35523,6.68656 -23.18009,3.78905 -26.74627,0c-3.56618,-3.78905 -2.00597,-9.36119 0.44577,-16.27064c2.45174,-6.90944 17.60796,-44.35421 17.60796,-44.35421z" fill="#c7d5ff" stroke="none" stroke-width="0" stroke-linecap="butt" stroke-linejoin="miter"/><path d="M173.80193,110.6362c-4.23482,10.47562 -7.13234,28.52934 -7.13234,28.52934c-3.12039,-0.89154 -6.68657,-5.12636 -7.13234,-14.26467c-0.44577,-9.13831 5.57213,-23.62587 11.59005,-30.98108c6.01792,-7.35521 12.48159,-5.12636 12.48159,-5.12636c0,0 -5.57215,11.36716 -9.80697,21.84277z" fill="#97a3c3" stroke="none" stroke-width="0" stroke-linecap="butt" stroke-linejoin="miter"/><path d="M200.02726,213.81943l8.49023,-2.24741l-27.21866,32.71233c5.49369,-16.2313 18.72845,-30.46491 18.72845,-30.46491z" fill="#000000" stroke="none" stroke-width="0" stroke-linecap="butt" stroke-linejoin="miter"/><path d="M245.64871,42.06563c0,0 -9.9238,-8.71357 -11.37606,-19.84759c-1.45226,-11.13401 5.80905,-23.96233 10.64993,-25.65664c0,0 0,6.53518 3.38862,13.07036c3.38862,6.53518 12.82832,10.64992 26.14073,13.55444c13.31241,2.90452 23.23621,3.63066 32.19183,3.8727c8.95562,0.24203 28.80322,1.45226 39.69518,5.08292c10.89196,3.63066 17.91124,9.9238 20.57373,14.76467c0,0 14.03854,-0.96818 23.96234,-6.29313c9.9238,-5.32496 18.15329,-9.68175 24.68847,-7.50336c6.53518,2.17839 7.26131,7.01926 6.53518,9.9238c-0.72613,2.90453 -2.17839,8.95562 -13.07037,11.37605c-10.89198,2.42044 -28.56117,2.66248 -28.56117,2.66248c0,0 0.96818,5.567 -1.69431,11.13401c-2.66249,5.567 -8.02628,10.90453 -8.02628,10.90453c0,0 -22.71328,-19.6181 -29.24846,-22.76467c-6.53518,-3.14657 -44.05198,-14.03854 -57.12234,-14.76467c-13.07037,-0.72613 -38.72702,0.48408 -38.72702,0.48408z" fill="#7fc600" stroke="none" stroke-width="0" stroke-linecap="butt" stroke-linejoin="miter"/><path d="M243.98426,299.06358c0,0 10.99082,6.92015 5.29188,24.01697l-6.51308,1.62827c0,0 8.95549,-15.26503 1.2212,-25.64525z" fill="#000000" stroke="none" stroke-width="0" stroke-linecap="butt" stroke-linejoin="miter"/><path d="M183.60893,88.79341c-10.38024,-4.15176 -18.52664,12.73347 -22.59166,28.54191c-4.06502,15.80844 5.65235,21.83022 5.65235,21.83022l-0.62498,15.10322c0,0 -10.89908,-4.41322 -16.77079,-16.15663c-5.87172,-11.74342 0.90333,-31.16521 9.93673,-46.97364c9.0334,-15.80843 33.21141,-17.17411 33.21141,-17.17411l-8.81308,14.82904z" fill="#4f69aa" stroke="none" stroke-width="0" stroke-linecap="butt" stroke-linejoin="miter"/><path d="M207.53922,213.99264c0,0 -25.74517,18.06678 -28.90686,34.77856c-3.16169,16.71177 -2.25835,27.55184 -2.25835,27.55184l-13.09842,-4.51669c0,0 -11.29174,-5.8717 0,-23.03515c11.29174,-17.16345 33.42356,-33.42354 44.26363,-34.77856z" fill="#4f69aa" stroke="none" stroke-width="0" stroke-linecap="butt" stroke-linejoin="miter"/><path d="M211.59871,209.98951c5.94332,-15.01468 10.94822,-6.56892 35.34709,-7.50734c24.39887,-0.93842 35.65989,9.07137 35.65989,9.07137c0,0 -8.44576,5.9433 -32.21901,8.13295c-23.77326,2.18965 -38.78795,-9.69698 -38.78795,-9.69698z" fill="#4f69aa" stroke="none" stroke-width="0" stroke-linecap="butt" stroke-linejoin="miter"/><path d="M342.00783,176.12805c0,0 2.95707,9.4643 19.18885,10.74576c14.58353,1.15133 36.45882,-12.66464 46.05324,-57.18275c4.39299,-20.38347 -10.74576,-24.9455 -10.74576,-24.9455c0,0 16.11863,1.15133 17.65374,16.5024c1.53511,15.35108 -1.53511,36.45881 -11.89709,51.80988c-10.36198,15.35108 -24.94551,21.87528 -28.01572,23.41039c-3.07021,1.53511 -30.31838,9.59443 -32.23727,-20.34017z" fill="#4f69aa" stroke="none" stroke-width="0" stroke-linecap="butt" stroke-linejoin="miter"/><path d="M212.67924,201.04483c0,0 19.64742,-9.82371 44.98224,-1.55111c25.33482,8.2726 74.45337,-4.65333 83.24301,-24.81778c0,0 3.10223,16.54518 13.96,21.19852c0,0 -9.82371,13.96 -23.78371,20.16445c-13.96,6.20445 -27.92001,5.68741 -32.57335,5.17037c-4.65335,-0.51704 -33.60742,-11.37481 -43.43113,-12.92593c-9.82371,-1.55112 -14.99408,-3.61927 -23.26667,-3.10223c-8.27259,0.51704 -19.13038,3.10223 -19.13038,3.10223c0,0 -10.34075,11.37481 -14.99408,16.54518c-4.65333,5.17037 -21.19853,29.47112 -21.19853,29.47112c0,0 4.65333,-22.74964 8.2726,-27.92c3.61927,-5.17036 21.71557,-17.57926 21.71557,-17.57926l10.85779,-4.65333l-4.65333,-3.10223z" fill="#4f69aa" stroke="none" stroke-width="0" stroke-linecap="butt" stroke-linejoin="miter"/><path d="M132.03144,316.67544c0,0 -0.37849,-34.0644 45.04072,-34.0644l5.29891,5.29891c0,0 -16.65371,-1.51397 -24.98057,8.32685c-8.32686,9.84083 -8.70535,21.57412 -8.70535,21.57412z" fill="#4f69aa" stroke="none" stroke-width="0" stroke-linecap="butt" stroke-linejoin="miter"/><path d="M241.05102,300.1749c0,0 31.22067,-6.05774 32.61861,-43.80211c0,0 2.32991,27.49281 3.72784,35.88045c1.39794,8.38764 3.26186,14.44538 3.26186,14.44538c0,0 -3.26186,9.31959 -12.58146,13.04744c-9.3196,3.72784 -20.9691,3.72784 -20.9691,3.72784c0,0 6.05774,-13.51342 -6.05774,-23.299z" fill="#4f69aa" stroke="none" stroke-width="0" stroke-linecap="butt" stroke-linejoin="miter"/><path d="M193.05507,330.46359c0,0 51.2578,-2.32991 52.18977,-24.23095c0,0 6.05774,10.25156 -8.38764,24.23095c-14.44538,13.97939 -31.22067,16.3093 -38.21037,17.70724c-6.98971,1.39794 -20.03715,-0.46598 -20.03715,-0.46598c0,0 12.71809,-1.64391 14.44538,-17.24125z" fill="#4f69aa" stroke="none" stroke-width="0" stroke-linecap="butt" stroke-linejoin="miter"/><path d="M211.39574,166.30125c0,0 37.74439,10.01857 48.46193,3.72784c14.61226,-8.57675 17.6884,-24.75094 16.05747,-40.82726c-0.84658,-8.34481 -14.47813,-15.54269 -14.47813,-15.54269c0,0 15.75207,4.14352 20.48687,9.27289c4.7348,5.12936 6.70763,18.15004 2.76197,29.19791c-3.94566,11.04786 -9.07503,22.09572 -20.91202,25.25225c-11.83699,3.15653 -45.3884,-5.25618 -52.37809,-11.08094z" fill="#97a3c3" stroke="none" stroke-width="0" stroke-linecap="butt" stroke-linejoin="miter"/><path d="M365.91033,110.62609c0,0 8.55754,-21.9073 -6.84603,-40.73389c0,0 20.5381,11.98056 23.27651,32.17634c0,0 -4.44992,-0.3423 -7.53063,2.39611c-3.08072,2.73841 -8.89985,6.16143 -8.89985,6.16143z" fill="#4f69aa" stroke="none" stroke-width="0" stroke-linecap="butt" stroke-linejoin="miter"/><path d="M293.62099,322.55694c0,0 17.72913,6.51275 24.60369,-10.13093c6.87456,-16.64367 1.08545,-39.07644 -2.89455,-53.18738c-3.98001,-14.11095 -7.5982,-24.60368 -7.5982,-24.60368c0,0 13.02548,20.9855 18.09096,38.71463c5.06547,17.72913 10.85458,36.54371 2.17092,47.03646c-8.68366,10.49275 -28.94552,12.30185 -34.3728,2.17092z" fill="#4f69aa" stroke="none" stroke-width="0" stroke-linecap="butt" stroke-linejoin="miter"/><path d="M364.1264,71.65664c-3.9484,-5.40307 -62.34314,-29.71689 -62.34314,-29.71689c0,0 27.89295,3.5878 42.80895,10.59833c20.78105,9.76708 19.53419,19.11855 19.53419,19.11855z" fill="#000000" stroke="none" stroke-width="0" stroke-linecap="butt" stroke-linejoin="miter"/><path d="M352.61766,196.92985c0,0 -2.22901,10.2001 -21.94774,19.47949c-19.71873,9.27939 -44.9471,2.02986 -68.14561,-6.08961c-23.19851,-8.11947 -41.46733,-5.50964 -41.46733,-5.50964" fill="none" stroke="#000000" stroke-width="3.70847" stroke-linecap="round" stroke-linejoin="round"/><path d="M301.38183,220.75907c0,0 24.73695,34.66374 31.67112,81.81418c3.91685,26.63354 -28.77131,31.85844 -42.69042,19.09926c-13.91911,-12.75917 -16.52894,-60.3161 -13.33915,-81.19474c3.1898,-20.87864 12.46919,-22.03857 12.46919,-22.03857" fill="none" stroke="#000000" stroke-width="3.70847" stroke-linecap="round" stroke-linejoin="round"/><path d="M182.53611,288.0625c-7.73471,-6.26144 -13.66621,-28.2138 3.31489,-49.72319c22.09921,-27.99231 34.23921,-33.52928 34.23921,-33.52928" fill="none" stroke="#000000" stroke-width="3.70847" stroke-linecap="round" stroke-linejoin="round"/><path d="M149.65038,322.22549c-7.79684,-38.98414 41.15331,-33.89207 56.76093,-31.81106c23.39051,3.11874 43.69781,5.88606 40.23166,24.94985c-2.49499,13.72242 -24.91374,31.6512 -58.00842,33.99418c-35.24168,2.49499 -37.76549,-21.03961 -38.98416,-27.13296z" fill="none" stroke="#000000" stroke-width="3.70847" stroke-linecap="round" stroke-linejoin="round"/><path d="M280.94903,304.7606c-2.80686,20.58362 -37.42479,18.71239 -37.42479,18.71239" fill="none" stroke="#000000" stroke-width="3.70847" stroke-linecap="round" stroke-linejoin="round"/><path d="M149.00983,318.71518c0,0 -17.09874,0.88825 -29.75626,-0.66619c-12.65751,-1.55444 -24.87088,-15.54431 -21.76203,-38.41665c3.10885,-22.87233 27.05575,-20.31794 37.30634,-17.09874c26.86945,8.43834 40.63728,15.10018 40.63728,15.10018" fill="none" stroke="#000000" stroke-width="3.70847" stroke-linecap="round" stroke-linejoin="round"/><path d="M158.85878,270.34505c-8.43227,-21.08069 35.95478,-52.70722 46.89656,-60.19458c7.75132,-5.30416 14.37215,-5.30416 14.37215,-5.30416" fill="none" stroke="#000000" stroke-width="3.70847" stroke-linecap="round" stroke-linejoin="round"/><path d="M218.0841,204.01759c0,0 -32.69413,-10.21691 -46.99782,-38.41559c-11.16165,-22.00438 -0.81735,-57.21472 20.43383,-88.6828c21.25119,-31.46809 67.02298,-45.77177 125.87242,-29.01603c58.84945,16.75573 64.57092,53.9453 64.57092,53.9453c0,0 10.6256,0.40867 21.65987,5.31279c11.03428,4.90412 15.9384,23.29456 9.39957,44.95442c-6.53882,21.65986 -21.25118,35.55486 -33.51148,42.50236c-12.2603,6.9475 -26.56399,2.04339 -26.56399,2.04339" fill="none" stroke="#000000" stroke-width="3.70847" stroke-linecap="round" stroke-linejoin="round"/><path d="M166.93252,155.07593c0,0 -12.32845,-5.4793 -16.20962,-13.01336c-3.88117,-7.53406 -4.79439,-22.83045 4.10948,-43.14955c7.09128,-16.18265 17.12285,-20.3191 23.28707,-22.37384c6.16423,-2.05474 14.15488,-2.05474 14.15488,-2.05474" fill="none" stroke="#000000" stroke-width="3.70847" stroke-linecap="round" stroke-linejoin="round"/><path d="M245.63344,42.00712c-5.54399,-3.51119 -15.21914,-18.72733 -9.49036,-34.43527c5.72878,-15.70794 16.63194,-13.49035 21.80632,-10.90316c5.17438,2.5872 20.69752,16.81674 25.31751,18.66473c4.61999,1.84799 27.35031,3.51118 53.22223,3.69598c25.87191,0.1848 37.32948,21.06712 37.32948,21.06712c0,0 6.83757,-2.40239 14.59914,-6.65277c7.76158,-4.25038 13.12076,-9.05517 21.62153,-9.60957c8.50077,-0.5544 13.30555,7.02237 12.75115,16.07754c-0.5544,9.05517 -5.54399,12.93595 -18.29514,16.07754c-12.75115,3.14158 -25.31751,2.21759 -25.31751,2.21759c3.51119,14.41435 -9.05517,20.51272 -9.05517,20.51272" fill="none" stroke="#000000" stroke-width="3.70847" stroke-linecap="round" stroke-linejoin="round"/><path d="M298.65388,220.73736c0,0 11.28512,9.13556 21.76415,59.64987c4.74198,22.85873 -1.07477,38.69181 -12.89728,42.72221c-11.8225,4.0304 -18.27113,-3.7617 -18.27113,-3.7617" fill="none" stroke="#000000" stroke-width="1.73673" stroke-linecap="round" stroke-linejoin="round"/><path d="M160.81425,294.62797c15.04682,-9.94164 36.00488,17.46506 31.9745,38.15443c-4.03039,20.68937 -25.52585,13.97204 -25.52585,13.97204" fill="none" stroke="#000000" stroke-width="1.73673" stroke-linecap="round" stroke-linejoin="round"/><path d="M109.22516,263.72827c0,0 6.17994,-3.49301 11.28512,5.37386c5.10517,8.86687 6.98603,32.51186 0.2687,41.11004c-6.71733,8.59818 -15.31552,0.80609 -15.31552,0.80609" fill="none" stroke="#000000" stroke-width="1.73673" stroke-linecap="round" stroke-linejoin="round"/><path d="M356.34752,196.93969c0,0 -7.85729,-3.19202 -11.5404,-9.08499c-3.68311,-5.89297 -4.17418,-14.48687 -2.20987,-21.60754c1.96432,-7.12066 16.27867,-44.64852 20.1343,-51.80899c5.15635,-9.57607 17.18782,-12.03147 24.30849,-10.55823" fill="none" stroke="#000000" stroke-width="1.73673" stroke-linecap="round" stroke-linejoin="round"/><path d="M363.98838,112.78511c4.01805,-6.61795 13.23592,-6.85432 18.43575,-4.96346c5.19983,1.89085 11.34508,8.03609 10.63601,18.43574c-0.70908,10.39965 -10.39966,35.92606 -18.43575,45.14393c-8.03609,9.21787 -20.32659,6.14524 -26.7082,3.78169c-6.3816,-2.36355 -4.96347,-9.69058 -4.96347,-9.69058" fill="none" stroke="#000000" stroke-width="1.73673" stroke-linecap="round" stroke-linejoin="round"/><path d="M298.09312,139.05318c0,-6.67107 5.40797,-12.07904 12.07904,-12.07904c6.67107,0 12.07904,5.40797 12.07904,12.07904c0,6.67107 -5.40797,12.07904 -12.07904,12.07904c-6.67107,0 -12.07904,-5.40797 -12.07904,-12.07904z" fill="#000000" stroke="none" stroke-width="0" stroke-linecap="butt" stroke-linejoin="miter"/><path d="M184.05331,122.13922c-3.98183,-1.10072 -6.21382,-5.59579 -4.98528,-10.04003c1.22854,-4.44424 5.45239,-7.15471 9.43422,-6.05399c3.98183,1.10072 6.21382,5.59579 4.98528,10.04003c-1.22854,4.44424 -5.45239,7.15471 -9.43422,6.05399z" fill="#000000" stroke="none" stroke-width="0" stroke-linecap="butt" stroke-linejoin="miter"/><path d="M422.79046,39.91172c-2.53744,-11.48007 -20.29301,-6.32769 -31.93655,0.52144c-11.64354,6.84913 -23.74368,6.84913 -23.74368,6.84913c-10.73032,-19.86249 -48.40057,-19.40589 -66.43664,-20.3191c-18.03607,-0.91321 -44.06279,-6.39252 -50.22702,-13.69827c-6.16423,-7.30574 -5.47932,-15.98132 -5.47932,-15.98132" fill="none" stroke="#000000" stroke-width="1.73673" stroke-linecap="round" stroke-linejoin="round"/><path d="M378.75374,57.09938c0,0 -11.87183,0.45661 -11.64353,-7.99065c0.17888,-6.61841 7.30575,-7.99065 7.30575,-7.99065" fill="none" stroke="#000000" stroke-width="1.73673" stroke-linecap="round" stroke-linejoin="round"/><path d="M347.61153,191.56046c0,0 -10.62358,12.14806 -27.93883,18.37073c-24.49431,8.80263 -47.45774,3.44451 -47.45774,3.44451" fill="none" stroke="#000000" stroke-width="1.73673" stroke-linecap="round" stroke-linejoin="round"/><path d="M365.98228,75.21248c11.86442,13.77805 6.12357,30.61788 6.12357,30.61788" fill="none" stroke="#000000" stroke-width="1.73673" stroke-linecap="round" stroke-linejoin="round"/><path d="M167.73138,139.12731c-3.0618,-0.76545 -7.65448,-1.14818 -8.0372,-13.0126c-0.38272,-11.86442 7.97867,-28.64573 13.01261,-33.67967c6.88903,-6.88902 12.62988,-3.06179 12.62988,-3.06179" fill="none" stroke="#000000" stroke-width="1.73673" stroke-linecap="round" stroke-linejoin="round"/><path d="M260.1775,10.99785c7.47646,2.57809 22.17158,3.86713 22.17158,3.86713l8.63661,4.25385c-14.4373,-1.03124 -30.80819,-8.12099 -30.80819,-8.12099z" fill="#000000" stroke="none" stroke-width="0" stroke-linecap="butt" stroke-linejoin="miter"/><path d="M245.16673,161.57891c-3.15709,-0.7979 -5.0696,-4.00405 -4.2717,-7.16115v-0.00001c0.7979,-3.15709 4.00405,-5.06959 7.16115,-4.27169l10.26027,2.5931c3.15709,0.7979 5.0696,4.00405 4.2717,7.16115v0.00001c-0.7979,3.15709 -4.00405,5.06959 -7.16115,4.27169z" fill="#000000" stroke="none" stroke-width="0" stroke-linecap="butt" stroke-linejoin="miter"/><path d="M208.44237,153.70839l-7.78898,-1.88961c-3.14403,-0.7946 -5.06629,-4.01711 -4.2717,-7.16114v0c0.7946,-3.14404 4.01711,-5.0663 7.16114,-4.27171l7.78898,1.88961c3.14403,0.7946 5.06629,4.01711 4.2717,7.16114v0c-0.7946,3.14404 -4.01711,5.0663 -7.16114,4.27171z" fill="#000000" stroke="none" stroke-width="0" stroke-linecap="butt" stroke-linejoin="miter"/><path d="M224.39273,171.5918c-5.92337,-1.64538 -15.20844,-3.57846 -30.41688,-12.22639c-11.93568,-6.78696 -8.42806,-23.53901 0.59641,-37.87199c10.13897,-16.10305 23.25997,-17.29586 33.39894,-16.10305c10.13897,1.19281 33.10073,6.26229 49.20379,14.31382c16.10306,8.05153 7.45512,35.78456 3.57846,43.53788c-3.5435,7.08699 -11.62999,15.50664 -26.24203,14.31382c-15.15511,-1.23715 -24.75099,-4.47308 -30.11868,-5.9641z" fill="none" stroke="#000000" stroke-width="2" stroke-linecap="round" stroke-linejoin="round"/><path d="M387.53396,160.88371c-0.34451,1.25 -1.63711,1.98405 -2.88711,1.63954l-6.33748,-1.74665c-1.25,-0.34451 -1.98405,-1.63711 -1.63954,-2.88711l0.00001,-0.00004c0.34451,-1.25 1.63711,-1.98405 2.88711,-1.63954l6.33748,1.74665c1.25,0.34451 1.98405,1.63711 1.63954,2.88711z" fill="#ffffff" stroke="#000000" stroke-width="1" stroke-linecap="butt" stroke-linejoin="miter"/><path d="M198.12612,319.83501c0.09873,1.29284 -0.86929,2.42093 -2.16213,2.51966l-6.55469,0.50056c-1.29284,0.09873 -2.42093,-0.86929 -2.51967,-2.16213v-0.00004c-0.09873,-1.29284 0.86929,-2.42093 2.16213,-2.51966l6.55469,-0.50056c1.29284,-0.09873 2.42093,0.86929 2.51967,2.16213z" fill="#ffffff" stroke="#000000" stroke-width="1" stroke-linecap="butt" stroke-linejoin="miter"/><path d="M131.18339,289.83584c-0.09923,1.2928 -1.22769,2.26039 -2.5205,2.16116l-6.55449,-0.50308c-1.2928,-0.09923 -2.26039,-1.22769 -2.16116,-2.5205v-0.00004c0.09923,-1.2928 1.22769,-2.26039 2.5205,-2.16116l6.55449,0.50308c1.2928,0.09923 2.26039,1.22769 2.16116,2.5205z" fill="#ffffff" stroke="#000000" stroke-width="1" stroke-linecap="butt" stroke-linejoin="miter"/><path d="M130.53075,298.64652c-0.09923,1.29281 -1.22771,2.26041 -2.52053,2.16118l-6.55444,-0.50308c-1.29282,-0.09923 -2.26041,-1.2277 -2.16118,-2.52052v0c0.09923,-1.29281 1.22771,-2.26041 2.52053,-2.16118l6.55444,0.50308c1.29282,0.09923 2.26041,1.2277 2.16118,2.52052z" fill="#ffffff" stroke="#000000" stroke-width="1" stroke-linecap="butt" stroke-linejoin="miter"/><path d="M198.36608,332.75643c-0.24647,1.27298 -1.47822,2.10513 -2.7512,1.85866l-6.45387,-1.24957c-1.27298,-0.24647 -2.10513,-1.47822 -1.85867,-2.7512v0c0.24647,-1.27298 1.47822,-2.10513 2.7512,-1.85866l6.45387,1.24957c1.27298,0.24647 2.10513,1.47822 1.85867,2.7512z" fill="#ffffff" stroke="#000000" stroke-width="1" stroke-linecap="butt" stroke-linejoin="miter"/><path d="M326.23296,304.87444v0c-0.06938,1.28939 -1.1811,2.28759 -2.47049,2.21822l-4.92448,-0.24307c-1.2894,-0.06937 -2.28759,-1.18107 -2.21822,-2.47046v0c0.06938,-1.28939 1.1811,-2.28759 2.47049,-2.21822l4.92448,0.24307c1.2894,0.06937 2.28759,1.18107 2.21822,2.47046z" fill="#ffffff" stroke="#000000" stroke-width="1" stroke-linecap="butt" stroke-linejoin="miter"/><path d="M331.77467,208.98179v0c-1.04366,0.76033 -2.51967,0.5285 -3.28,-0.51518l-2.92085,-3.97219c-0.76033,-1.04366 -0.52852,-2.51967 0.51515,-3.27998v0c1.04366,-0.76033 2.51967,-0.5285 3.28,0.51518l2.92085,3.97219c0.76033,1.04366 0.52852,2.51967 -0.51515,3.27998z" fill="#ffffff" stroke="#000000" stroke-width="1" stroke-linecap="butt" stroke-linejoin="miter"/><path d="M321.10723,318.48352v0c-0.65761,1.11126 -2.10487,1.48241 -3.21613,0.82482l-4.25427,-2.49216c-1.11126,-0.65761 -1.48243,-2.10486 -0.82482,-3.2161v0c0.65761,-1.11126 2.10487,-1.48241 3.21613,-0.82482l4.25427,2.49216c1.11126,0.65761 1.48243,2.10486 0.82482,3.2161z" fill="#ffffff" stroke="#000000" stroke-width="1" stroke-linecap="butt" stroke-linejoin="miter"/><path d="M394.42066,145.54523c-0.34451,1.25 -1.63711,1.98405 -2.88711,1.63954l-6.33748,-1.74665c-1.25,-0.34451 -1.98405,-1.63711 -1.63954,-2.88711l0.00001,-0.00004c0.34451,-1.25 1.63711,-1.98405 2.88711,-1.63954l6.33748,1.74665c1.25,0.34451 1.98405,1.63711 1.63954,2.88711z" fill="#ffffff" stroke="#000000" stroke-width="1" stroke-linecap="butt" stroke-linejoin="miter"/><path d="M410.37494,39.15659c-1.28119,0.19935 -2.48141,-0.67765 -2.68076,-1.95884l-1.01071,-6.49561c-0.19935,-1.28119 0.67765,-2.48141 1.95884,-2.68076l0.00004,-0.00001c1.28119,-0.19935 2.48141,0.67765 2.68076,1.95884l1.01071,6.49561c0.19935,1.28119 -0.67765,2.48141 -1.95884,2.68076z" fill="#ffffff" stroke="#000000" stroke-width="1" stroke-linecap="butt" stroke-linejoin="miter"/><path d="M315.01383,32.72668c-1.17162,-0.13507 -2.01192,-1.19435 -1.87685,-2.36597l0.68479,-5.94008c0.13507,-1.17162 1.19435,-2.01192 2.36598,-1.87685h0.00003c1.17162,0.13507 2.01192,1.19435 1.87685,2.36597l-0.68479,5.94008c-0.13507,1.17162 -1.19435,2.01192 -2.36598,1.87685z" fill="#ffffff" stroke="#000000" stroke-width="0.90959" stroke-linecap="butt" stroke-linejoin="miter"/><path d="M332.18613,34.8118c-1.17522,-0.09913 -2.04756,-1.13219 -1.94844,-2.3074l0.50256,-5.95824c0.09913,-1.17522 1.13219,-2.04756 2.3074,-1.94844v0c1.17522,0.09913 2.04756,1.13219 1.94844,2.3074l-0.50256,5.95824c-0.09913,1.17522 -1.13219,2.04756 -2.3074,1.94844z" fill="#ffffff" stroke="#000000" stroke-width="0.90959" stroke-linecap="butt" stroke-linejoin="miter"/><path d="M163.68649,121.35985v0c-0.05025,1.29027 -1.14705,2.30485 -2.43732,2.25462l-4.72778,-0.2808c-1.29029,-0.05024 -2.30485,-1.14702 -2.25462,-2.43729v0c0.05025,-1.29027 1.14705,-2.30485 2.43732,-2.25462l4.72778,0.2808c1.29029,0.05024 2.30485,1.14702 2.25462,2.43729z" fill="#ffffff" stroke="#000000" stroke-width="1" stroke-linecap="butt" stroke-linejoin="miter"/><path d="M372.17218,55.93359c0,0 7.58055,10.37339 1.79539,19.35034" fill="none" stroke="#000000" stroke-width="1.73673" stroke-linecap="round" stroke-linejoin="round"/><path d="M303.61142,133.04685c0,-1.985 1.60916,-3.59416 3.59416,-3.59416c1.985,0 3.59416,1.60916 3.59416,3.59416c0,1.985 -1.60916,3.59416 -3.59416,3.59416c-1.985,0 -3.59416,-1.60916 -3.59416,-3.59416z" fill="#ffffff" stroke="none" stroke-width="0" stroke-linecap="butt" stroke-linejoin="miter"/><path d="M184.17509,113.1008c-1.47397,-0.38663 -2.33462,-1.97427 -1.92232,-3.5461c0.4123,-1.57183 1.94142,-2.53262 3.41538,-2.146c1.47397,0.38663 2.33462,1.97427 1.92232,3.5461c-0.4123,1.57183 -1.94142,2.53262 -3.41538,2.146z" fill="#ffffff" stroke="none" stroke-width="0" stroke-linecap="butt" stroke-linejoin="miter"/></g></g></svg>