<svg version="1.1" xmlns="http://www.w3.org/2000/svg" xmlns:xlink="http://www.w3.org/1999/xlink" width="875.05976" height="491.41917" viewBox="0,0,875.05976,491.41917"><defs><linearGradient x1="404.96751" y1="158.70703" x2="306.90162" y2="0.99288" gradientUnits="userSpaceOnUse" id="color-1"><stop offset="0" stop-color="#ff9a00"/><stop offset="0.32079" stop-color="#ffd600"/><stop offset="0.39027" stop-color="#ffde35"/><stop offset="0.48942" stop-color="#ffea7c"/><stop offset="0.57877" stop-color="#fff3b4"/><stop offset="0.65498" stop-color="#fff9dd"/><stop offset="0.71513" stop-color="#fffdf5"/><stop offset="0.75172" stop-color="#ffffff"/><stop offset="1" stop-color="#ffb700"/></linearGradient><linearGradient x1="20114.28896" y1="46256.32219" x2="11297.34948" y2="22054.47788" gradientUnits="userSpaceOnUse" id="color-2"><stop offset="0" stop-color="#ff9a00"/><stop offset="0.32079" stop-color="#ffd600"/><stop offset="0.39027" stop-color="#ffde35"/><stop offset="0.48942" stop-color="#ffea7c"/><stop offset="0.57877" stop-color="#fff3b4"/><stop offset="0.65498" stop-color="#fff9dd"/><stop offset="0.71513" stop-color="#fffdf5"/><stop offset="0.75172" stop-color="#ffffff"/><stop offset="1" stop-color="#ffb700"/></linearGradient><linearGradient x1="19961.90722" y1="24392.69466" x2="16606.79749" y2="21947.34848" gradientUnits="userSpaceOnUse" id="color-3"><stop offset="0" stop-color="#ff9a00"/><stop offset="0.32079" stop-color="#ffd600"/><stop offset="0.39027" stop-color="#ffde35"/><stop offset="0.48942" stop-color="#ffea7c"/><stop offset="0.57877" stop-color="#fff3b4"/><stop offset="0.65498" stop-color="#fff9dd"/><stop offset="0.71513" stop-color="#fffdf5"/><stop offset="0.75172" stop-color="#ffffff"/><stop offset="1" stop-color="#ffb700"/></linearGradient></defs><g transform="translate(177.52988,73.34408)"><g data-paper-data="{&quot;isPaintingLayer&quot;:true}" fill-rule="nonzero" stroke-miterlimit="10" stroke-dasharray="" stroke-dashoffset="0" style="mix-blend-mode: normal"><path d="M-153.59404,418.07509c-13.2194,0 -23.93584,-10.71644 -23.93584,-23.93583v-443.54751c0,-13.21939 10.71644,-23.93583 23.93584,-23.93583h827.18809c13.21939,0 23.93583,10.71644 23.93583,23.93583v443.54751c0,13.2194 -10.71644,23.93583 -23.93583,23.93583z" fill-opacity="0.10588" fill="#ffffff" stroke="none" stroke-width="0" stroke-linecap="butt" stroke-linejoin="miter"/><path d="M320.64776,297.1914c0,0 1.06884,-16.54984 7.79425,-20.24881c10.0568,-5.53124 24.89035,12.70622 24.89035,12.70622c0,0 13.57669,-5.02841 19.10792,1.00568c5.53123,6.03408 -2.01137,20.61643 -2.01137,20.61643c0,0 12.571,16.09087 7.03976,25.64482c-5.53124,9.55395 -26.14768,-2.5142 -26.14768,-2.5142c0,0 -8.04544,17.59939 -19.10792,17.59939c-11.06248,0 -12.06816,-24.63915 -12.06816,-24.63915c-6.53693,-1.00569 -16.59372,-3.51989 -18.10224,-12.571c-1.50852,-9.05111 18.23346,-16.05671 18.23346,-16.05671c-24.13631,-22.6278 -32.31297,-73.44875 -32.31297,-73.44875c0,0 -3.51989,1.50851 -9.55396,-3.01704c-6.03407,-4.52555 -5.0284,-11.56531 -5.0284,-11.56531c-7.54259,3.01703 -25.75131,4.94271 -25.75131,4.94271c0,0 -1.94733,5.21613 -3.68263,7.07671c-9.42677,10.10735 -30.72483,17.49609 -38.83278,19.20302c-9.80411,2.06401 -23.32584,2.91781 -48.39212,-17.64578c-25.516,-20.93254 -38.63796,-63.60326 -38.63796,-63.60326c-6.17053,-20.16582 -14.48416,-53.20962 -4.33588,-76.88895c7.93538,-18.51587 24.58341,-24.0072 39.51926,-30.07489c13.91117,-5.65141 24.34454,-2.17362 24.34454,-2.17362c49.50452,-38.37212 108.85352,-36.32559 108.85352,-36.32559c0,0 2.08107,-6.77171 5.7941,-10.1472c3.71304,-3.37549 22.95337,-11.13913 39.15574,-10.46403c15.54677,0.64779 43.73089,14.29636 63.12176,57.72095c23.96602,53.67035 15.86483,98.22686 7.42609,108.6909c-8.43874,10.46403 -28.35415,17.89012 -31.05455,18.22766c-2.7004,0.33755 -12.48933,-4.05059 -12.48933,-4.05059c-8.77628,8.10119 -35.78025,19.91541 -35.78025,19.91541c3.71304,9.78893 -3.03795,19.91541 -3.03795,19.91541c23.29091,24.97866 28.6917,68.52252 28.6917,68.52252" fill="#e3ac53" stroke="none" stroke-width="0" stroke-linecap="butt" stroke-linejoin="miter"/><path d="M287.62844,13.45915c1.71876,-10.31257 14.32303,-13.7501 14.32303,-13.7501c0,0 21.19809,-5.72922 25.20853,-6.30213c4.01044,-0.57292 11.45841,-1.71876 24.06268,6.30213c12.60427,8.0209 34.94819,27.5002 49.27122,68.17759c14.32303,40.67739 10.31258,79.0631 3.43753,91.09443c-6.87505,12.03134 -31.51066,19.47932 -33.02285,20.26054c-1.51218,0.78122 -12.48933,-4.05059 -12.48933,-4.05059c0,0 4.26184,-7.0432 7.12645,-16.20994c2.86461,-9.16674 2.86462,-37.8128 -7.44797,-75.62557c-10.31259,-37.81277 -42.39617,-60.1567 -49.27122,-65.31298c-6.87505,-5.15629 -21.19809,-4.58337 -21.19809,-4.58337z" fill="url(#color-1)" stroke="none" stroke-width="0" stroke-linecap="butt" stroke-linejoin="miter"/><path d="M168.46084,48.98024c3.43753,-0.57293 11.45842,1.14585 17.18763,5.7292c5.72921,4.58336 34.37526,22.34391 52.13582,63.59422c17.76056,41.25031 13.17719,82.50061 10.88551,94.53196c-2.29168,12.03135 -20.05224,21.77101 -29.7919,25.78145c-9.73966,4.01044 -29.79191,12.03134 -57.29212,-9.73966c-27.50021,-21.77099 -49.84414,-77.34433 -52.13582,-109.4279c-2.29168,-32.08357 11.45842,-48.12536 11.45842,-48.12536c17.76056,-16.61471 44.11494,-21.77098 47.55246,-22.34391z" fill="url(#color-2)" stroke="none" stroke-width="0" stroke-linecap="butt" stroke-linejoin="miter"/><path d="M138.81606,166.55615c-14.00323,-33.0088 -16.27034,-63.62172 -5.06372,-68.37587c11.20661,-4.75415 31.64323,18.15078 45.64646,51.15958c14.00323,33.0088 16.27034,63.62172 5.06372,68.37587c-11.20661,4.75415 -31.64323,-18.15078 -45.64646,-51.15958z" fill="#e3ac53" stroke="none" stroke-width="0" stroke-linecap="butt" stroke-linejoin="miter"/><path d="M277.77165,202.36703c10.69109,-11.49291 25.12406,-11.76019 32.34054,-12.8293c7.21648,-1.06911 12.02748,3.20733 13.36385,10.15653c1.33638,6.94921 -3.87499,15.32757 -3.87499,15.32757c0,0 -4.94516,-0.8946 -14.56714,0.97633c-9.62198,1.87094 -15.50207,9.88925 -15.50207,9.88925c0,0 -1.60366,0.53455 -6.41465,-0.80183c-4.81099,-1.33638 -8.82015,-5.8801 -9.88926,-11.49291c-1.06911,-5.61283 4.54371,-11.22564 4.54371,-11.22564z" fill="#c8c8c8" stroke="none" stroke-width="0" stroke-linecap="butt" stroke-linejoin="miter"/><path d="M320.27617,298.73407c0,0 -0.15074,-17.26134 8.16586,-21.79149c8.3166,-4.53015 24.89035,12.70622 24.89035,12.70622c0,0 9.95757,-4.11788 17.70504,0.30924c7.74747,4.42712 -0.60849,21.31286 -0.60849,21.31286c0,0 11.67631,20.00698 5.03561,27.38553c-6.6407,7.37855 -24.14353,-4.2549 -24.14353,-4.2549c0,0 -10.16672,16.06058 -20.12776,16.42951c-9.96104,0.36893 -11.04832,-23.46926 -11.04832,-23.46926c0,0 -16.62124,-3.46244 -18.10224,-12.571c-1.481,-9.10856 18.23346,-16.05671 18.23346,-16.05671z" fill="url(#color-3)" stroke="none" stroke-width="0" stroke-linecap="butt" stroke-linejoin="miter"/><path d="M141.97011,98.46327c0,0 -7.56178,15.48364 2.88067,46.81101c10.44245,31.32736 32.04755,62.29465 46.45094,60.13414c0,0 -0.36008,6.12144 -3.96093,10.08237c-3.60085,3.96093 -11.16262,2.88067 -23.04542,-8.28195c-11.8828,-11.16262 -26.64627,-41.04965 -32.40763,-59.77406c-5.76136,-18.72441 -11.52272,-56.89337 10.08237,-48.97152z" fill="#848484" stroke="none" stroke-width="0" stroke-linecap="butt" stroke-linejoin="miter"/><path d="M286.46545,15.21332c0,0 5.29993,-11.09224 7.82052,-11.45232c2.52059,-0.36008 23.7656,0.72017 41.04966,18.36431c17.28406,17.64414 33.48789,47.17109 37.08873,75.61778c3.60085,28.44669 6.48152,50.05177 3.60085,62.65473c-2.88067,12.60296 -4.47189,19.68332 -5.11662,18.84377c-0.64474,-0.83954 -12.48933,-4.05059 -12.48933,-4.05059c0,0 7.52358,-15.51335 7.88367,-30.27682c0.36009,-14.76347 -4.6811,-56.17321 -13.68322,-74.8976c-9.00211,-18.72439 -27.72653,-41.04965 -32.04755,-44.29041c-4.32102,-3.24077 -10.80254,-7.92187 -16.20381,-8.64203c-5.40127,-0.72016 -17.90289,-1.87081 -17.90289,-1.87081z" fill="#848484" stroke="none" stroke-width="0" stroke-linecap="butt" stroke-linejoin="miter"/><path d="M141.97011,98.46327c0,0 13.71496,7.67797 20.55184,19.6425c0,0 -7.17871,2.73475 -3.0766,21.1943c4.10211,18.45955 19.82694,44.7815 30.08224,41.36307c0,0 1.36738,4.78581 1.70922,11.28083c0.34185,6.49503 0.06492,13.46444 0.06492,13.46444c0,0 -12.02944,0.89299 -25.70319,-18.25026c-13.67375,-19.14325 -34.26678,-62.87219 -23.62842,-88.69488z" fill="#c18938" stroke="none" stroke-width="0" stroke-linecap="butt" stroke-linejoin="miter"/><path d="M249.96719,203.27047c0,0 23.41546,-2.42228 30.68233,-5.24829l-7.26869,12.68081c0,0 -11.3022,2.25664 -14.93564,3.06406c-3.63344,0.80743 -10.81568,1.87864 -10.81568,1.87864l2.33766,-12.37523z" fill="#c18938" stroke="none" stroke-width="0" stroke-linecap="butt" stroke-linejoin="miter"/><path d="M314.96528,188.33302c0,0 33.10462,-10.49658 47.63835,-23.41545l-4.03715,8.88173c0,0 -11.30401,8.88173 -20.58946,14.13002c-9.28544,5.24829 -15.33801,7.17712 -15.33801,7.17712l-7.67374,-6.7734z" fill="#c18938" stroke="none" stroke-width="0" stroke-linecap="butt" stroke-linejoin="miter"/><path d="M281.45695,222.64877c0,0 4.03715,-8.88173 18.57088,-13.32258c14.53373,-4.44085 21.39689,0 21.39689,0l-1.82365,5.69565c0,0 -9.48037,-3.67708 -17.95837,0.76378c-8.478,4.44086 -13.67949,9.49972 -13.67949,9.49972l-6.50624,-2.63656z" fill="#848484" stroke="none" stroke-width="0" stroke-linecap="butt" stroke-linejoin="miter"/><path d="M235.95768,114.61093c57.33395,-29.65548 118.62195,-39.93605 118.62195,-39.93605c0,0 5.5357,13.04842 7.51272,23.72438c1.97703,10.67597 3.55865,27.28304 3.55865,27.28304c-31.63252,28.86466 -114.66789,43.09929 -114.66789,43.09929c-1.58162,-24.5152 -15.02545,-54.17068 -15.02545,-54.17068z" fill="#c18938" stroke="none" stroke-width="0" stroke-linecap="butt" stroke-linejoin="miter"/><path d="M201.55729,66.76673c-6.32651,-6.72191 -22.14277,-15.81626 -22.14277,-15.81626c0,0 18.5841,-13.83923 42.3085,-24.9106c23.72439,-11.07137 52.19367,-9.88516 56.54313,-10.67597c4.34946,-0.79081 19.77032,0 26.10218,1.72021c6.33186,1.72021 22.53282,12.51442 22.53282,12.51442c-63.26503,-0.39541 -125.34386,37.16821 -125.34386,37.16821z" fill="#c18938" stroke="none" stroke-width="0" stroke-linecap="butt" stroke-linejoin="miter"/><path d="M289.53183,225.88742c9.40992,-12.87088 30.06922,-10.86559 30.06922,-10.86559l5.44125,6.7928c-20.88404,9.45692 -28.76481,35.46345 -28.76481,35.46345c-5.12249,-10.63904 -6.74566,-31.39067 -6.74566,-31.39067z" fill="#ffffff" stroke="none" stroke-width="0" stroke-linecap="butt" stroke-linejoin="miter"/><path d="M309.10751,284.24696c0,0 8.63899,-28.48529 29.65273,-35.95685c0,0 3.50229,8.17201 5.83716,17.74494c2.33486,9.57292 4.20275,18.91237 4.20275,18.91237c0,0 -10.0399,-8.4055 -14.00917,-9.57292c-3.96926,-1.16742 -8.63899,0.46697 -11.44082,8.63899c-2.80183,8.17202 -3.73578,13.3087 -3.73578,13.3087c0,0 -7.00458,-7.00457 -10.50687,-13.07521z" fill="#ffffff" stroke="none" stroke-width="0" stroke-linecap="butt" stroke-linejoin="miter"/><path d="M296.49926,257.86305c-0.09059,-0.69457 10.74036,-30.35319 28.01833,-35.72336c0,0 4.90321,5.13669 7.93852,11.90778c3.03531,6.77109 6.30413,14.24265 6.30413,14.24265c0,0 -24.28256,11.90778 -29.65273,35.95685c0,0 -11.20734,-15.64356 -12.60825,-26.38393z" fill="#ff3c5a" stroke="none" stroke-width="0" stroke-linecap="butt" stroke-linejoin="miter"/><path d="M330.56164,297.77425c-2.18915,-0.47347 -3.21362,-4.32594 -2.2882,-8.60474c0.92542,-4.2788 3.45027,-7.36363 5.63943,-6.89016c2.18915,0.47347 3.21362,4.32594 2.2882,8.60474c-0.92542,4.2788 -3.45027,7.36363 -5.63943,6.89016z" fill="#ffffff" stroke="none" stroke-width="0" stroke-linecap="butt" stroke-linejoin="miter"/><path d="M250.13376,183.89098c0,0 104.60713,-39.98072 101.32104,-114.46535c0,0 26.83638,58.60187 8.21522,104.60709c0,0 -6.57218,4.38145 -18.62116,11.50131c-12.04898,7.11986 -17.5258,8.7629 -17.5258,8.7629c0,0 2.73841,3.83377 0,11.50131c-2.73841,7.66754 -2.19073,10.40594 -3.83377,9.85826c-1.64304,-0.54768 -18.62116,1.64304 -18.62116,1.64304c0,0 7.66753,-7.11986 5.47681,-14.2397c-2.19073,-7.11985 -7.66753,-11.50131 -15.33508,-7.66753c-7.66755,3.83378 -13.14435,8.21521 -14.78739,10.95362c-1.64304,2.73841 -1.64304,4.38145 -4.38145,4.92913c-2.73841,0.54768 -22.45493,4.38145 -22.45493,4.38145l0.54768,-31.7655z" fill="#000000" stroke="none" stroke-width="0" stroke-linecap="butt" stroke-linejoin="miter" opacity="0.42" style="mix-blend-mode: multiply"/><path d="M363.64649,113.19272c-0.48756,-2.0199 8.56748,-21.67068 8.56748,-21.67068l3.02382,19.15084c0,0 20.66275,-37.29374 14.61512,-71.05969c0,0 18.64687,42.33343 20.66275,66.01998c2.01589,23.68655 -2.51985,47.8771 -6.55161,53.42075c-4.03176,5.54365 -16.631,12.59923 -23.1826,16.12702c-6.55161,3.52778 -8.56748,5.03969 -11.5913,4.53572c-3.02382,-0.50397 -9.52015,-5.68398 -9.52015,-5.68398c0,0 11.03206,-31.60976 3.97648,-60.83998z" fill="#000000" stroke="none" stroke-width="0" stroke-linecap="butt" stroke-linejoin="miter" opacity="0.42" style="mix-blend-mode: multiply"/><path d="M127.74285,133.93305c-7.52352,-37.14738 11.28528,-43.73045 26.33233,-27.74298c15.04705,15.98747 33.38564,62.53926 33.38564,62.53926c-22.10036,-43.73047 -59.71798,-34.79628 -59.71798,-34.79628z" fill="#000000" stroke="none" stroke-width="0" stroke-linecap="butt" stroke-linejoin="miter" opacity="0.42" style="mix-blend-mode: multiply"/><path d="M213.79314,202.58519c0,0 27.74299,-30.5643 30.56431,-64.89037c0,0 10.81506,39.49848 6.11286,62.06905c-4.7022,22.57056 -7.52352,25.39189 -15.51726,29.62387c-7.99374,4.23198 -18.33859,9.87463 -26.80256,11.7555c-8.46397,1.88088 -17.39815,1.88088 -22.10036,0.47022c-4.7022,-1.41066 -28.68343,-15.51726 -35.73674,-24.45144c0,0 31.50476,15.04704 44.2007,-9.4044c12.69594,-24.45144 8.46397,-53.13486 8.46397,-53.13486c0,0 10.81506,28.21321 10.81506,47.96245z" fill="#000000" stroke="none" stroke-width="0" stroke-linecap="butt" stroke-linejoin="miter" opacity="0.42" style="mix-blend-mode: multiply"/><path d="M330.8569,274.41825c0,0 7.42986,-19.31765 2.97195,-37.52083c0,0 5.94389,9.28733 8.91584,23.03259c2.97195,13.74526 6.31539,25.63304 5.57241,24.51856c-0.74298,-1.11448 -17.46019,-10.03032 -17.46019,-10.03032z" fill="#000000" stroke="none" stroke-width="0" stroke-linecap="butt" stroke-linejoin="miter" opacity="0.42" style="mix-blend-mode: multiply"/><path d="M328.62795,349.83138c0,0 17.46019,-14.48824 18.94616,-27.4905c0,0 16.45982,-5.45564 19.06026,-21.05837c2.60045,-15.60273 -5.31501,-13.11901 -5.31501,-13.11901c0,0 12.63077,-2.97194 13.00227,5.57241c0.3715,8.54435 -3.34344,15.97421 -3.34344,15.97421c0,0 10.03033,11.88779 7.80136,20.80362c-2.22897,8.91583 -8.17286,10.40182 -13.00227,9.65883c-4.82941,-0.74299 -12.63077,-5.20091 -12.63077,-5.20091c0,0 -4.45792,6.31538 -10.03033,11.51629c-5.57241,5.20091 -14.48824,3.34344 -14.48824,3.34344z" fill="#000000" stroke="none" stroke-width="0" stroke-linecap="butt" stroke-linejoin="miter" opacity="0.25" style="mix-blend-mode: multiply"/><path d="M320.64776,297.1914c0,0 1.06884,-16.54984 7.79425,-20.24881c10.0568,-5.53124 24.89035,12.70622 24.89035,12.70622c0,0 13.57669,-5.02841 19.10792,1.00568c5.53123,6.03408 -2.01137,20.61643 -2.01137,20.61643c0,0 12.571,16.09087 7.03976,25.64482c-5.53124,9.55395 -26.14768,-2.5142 -26.14768,-2.5142c0,0 -8.04544,17.59939 -19.10792,17.59939c-11.06248,0 -12.06816,-24.63915 -12.06816,-24.63915c-6.53693,-1.00569 -16.59372,-3.51989 -18.10224,-12.571c-1.50852,-9.05111 18.23346,-16.05671 18.23346,-16.05671c-24.13631,-22.6278 -32.31297,-73.44875 -32.31297,-73.44875c0,0 -3.51989,1.50851 -9.55396,-3.01704c-6.03407,-4.52555 -5.0284,-11.56531 -5.0284,-11.56531c-7.54259,3.01703 -25.75131,4.94271 -25.75131,4.94271c0,0 -1.85119,5.73742 -3.68263,7.50345c-11.94854,11.5218 -31.3066,18.1214 -40.53972,19.62975c-9.88795,1.6153 -21.6189,2.06435 -46.68518,-18.49924c-25.516,-20.93254 -38.63796,-63.60326 -38.63796,-63.60326c-6.17053,-20.16582 -14.48416,-53.20962 -4.33588,-76.88895c7.93538,-18.51587 24.58341,-24.0072 39.51926,-30.07489c13.91117,-5.65141 24.34454,-2.17362 24.34454,-2.17362c49.50452,-38.37212 108.85352,-36.32559 108.85352,-36.32559c0,0 2.08107,-6.77171 5.7941,-10.1472c3.71304,-3.37549 22.95337,-11.13913 39.15574,-10.46403c15.54677,0.64779 43.73089,14.29636 63.12176,57.72095c23.96602,53.67035 15.86483,98.22686 7.42609,108.6909c-8.43874,10.46403 -28.35415,17.89012 -31.05455,18.22766c-2.7004,0.33755 -12.48933,-4.05059 -12.48933,-4.05059c-8.77628,8.10119 -35.78025,19.91541 -35.78025,19.91541c3.71304,9.78893 -3.03795,19.91541 -3.03795,19.91541c23.29091,24.97866 28.6917,68.52252 28.6917,68.52252" fill="none" stroke="#000000" stroke-width="3.47347" stroke-linecap="round" stroke-linejoin="round"/><path d="M177.61193,51.53892c0,0 38.36156,16.04064 58.25298,63.90438c27.82232,66.94743 11.06911,101.73157 11.06911,101.73157" fill="none" stroke="#000000" stroke-width="3.47347" stroke-linecap="round" stroke-linejoin="round"/><path d="M271.33653,15.72056c0,0 26.59592,-2.77041 38.78573,3.32449c12.18981,6.0949 38.50678,29.29581 49.31328,72.03061c12.1898,48.2051 7.9409,71.26641 -1.01628,84.11535" fill="none" stroke="#000000" stroke-width="3.47347" stroke-linecap="round" stroke-linejoin="round"/><path d="M273.35043,214.37183c0,0 -1.24482,-12.10007 18.09867,-20.43265c19.34349,-8.33258 32.81588,-3.3839 32.45829,7.70162" fill="none" stroke="#000000" stroke-width="3.47347" stroke-linecap="round" stroke-linejoin="round"/><path d="M288.68403,227.03021c0,0 0.38434,-5.41496 14.96634,-10.77163c14.58201,-5.35667 19.64108,4.46389 19.64108,4.46389" fill="none" stroke="#000000" stroke-width="3.47347" stroke-linecap="round" stroke-linejoin="round"/><path d="M202.7494,66.79714c0,0 51.54527,-36.55027 124.17725,-35.61309" fill="none" stroke="#000000" stroke-width="1.73673" stroke-linecap="round" stroke-linejoin="round"/><path d="M365.35131,126.77708c-33.27013,27.17841 -114.33679,42.64198 -114.33679,42.64198" fill="none" stroke="#000000" stroke-width="1.73673" stroke-linecap="round" stroke-linejoin="round"/><path d="M235.86491,115.4433c0,0 68.10065,-34.58835 117.77156,-39.2743" fill="none" stroke="#000000" stroke-width="1.73673" stroke-linecap="round" stroke-linejoin="round"/><path d="M281.94169,224.24448c0,0 3.28015,-10.30906 20.14952,-14.99499c16.86937,-4.68593 19.68092,1.87437 19.68092,1.87437" fill="none" stroke="#000000" stroke-width="1.73673" stroke-linecap="round" stroke-linejoin="round"/><path d="M296.93667,258.92037c0,0 4.21735,-26.24123 28.1156,-37.01887" fill="none" stroke="#000000" stroke-width="1.73673" stroke-linecap="round" stroke-linejoin="round"/><path d="M309.12009,286.09878c0,0 4.21735,-26.24123 28.1156,-37.01887" fill="none" stroke="#000000" stroke-width="1.73673" stroke-linecap="round" stroke-linejoin="round"/><path d="M293.8208,4.22509c40.79129,-1.03269 72.75366,49.72476 80.54989,100.17098c8.77787,56.79798 -3.46212,74.84552 -3.46212,74.84552" fill="none" stroke="#000000" stroke-width="1.73673" stroke-linecap="round" stroke-linejoin="round"/><path d="M111.04817,100.09044c10.16713,-42.9792 44.64801,-26.6845 68.39704,8.7807c34.66066,51.7599 42.97921,109.98979 26.80424,125.24047c-16.17497,15.25068 -36.97137,-0.46214 -36.97137,-0.46214" fill="none" stroke="#000000" stroke-width="1.73673" stroke-linecap="round" stroke-linejoin="round"/><path d="M138.81606,166.55615c-14.00323,-33.0088 -16.27034,-63.62172 -5.06372,-68.37587c11.20661,-4.75415 31.64323,18.15078 45.64646,51.15958c14.00323,33.0088 16.27034,63.62172 5.06372,68.37587c-11.20661,4.75415 -31.64323,-18.15078 -45.64646,-51.15958z" fill="none" stroke="#000000" stroke-width="1.73673" stroke-linecap="round" stroke-linejoin="round"/><path d="M188.62678,181.36768c-5.9295,2.51545 -16.74265,-9.6037 -24.15185,-27.06888c-7.4092,-17.46518 -8.60875,-33.66268 -2.67925,-36.17813" fill="none" stroke="#000000" stroke-width="1.67546" stroke-linecap="round" stroke-linejoin="round"/><path d="M190.63929,206.10892c-10.97139,1.31188 -28.58858,-19.0105 -40.73866,-47.65097c-10.80547,-25.47095 -13.87535,-49.479 -8.39587,-59.38852" fill="none" stroke="#000000" stroke-width="1.63261" stroke-linecap="round" stroke-linejoin="round"/><path d="M362.48302,165.51124c-14.29995,10.67461 -31.47025,18.51221 -48.03747,24.2208" fill="none" stroke="#000000" stroke-width="1.73673" stroke-linecap="round" stroke-linejoin="round"/><path d="M282.28578,198.71136c-18.75766,4.14777 -32.2255,5.38823 -32.2255,5.38823" fill="none" stroke="#000000" stroke-width="1.73673" stroke-linecap="round" stroke-linejoin="round"/><path d="M266.47976,95.31948c0,-8.46996 6.36139,-15.33622 14.20856,-15.33622c7.84717,0 14.20856,6.86626 14.20856,15.33622c0,8.46996 -6.36139,15.33622 -14.20856,15.33622c-7.84717,0 -14.20856,-6.86626 -14.20856,-15.33622z" fill="#e3ac53" stroke="none" stroke-width="0" stroke-linecap="butt" stroke-linejoin="miter"/><path d="M295.34794,87.42584c0,-8.09629 6.15944,-14.65962 13.7575,-14.65962c7.59806,0 13.7575,6.56334 13.7575,14.65962c0,8.09629 -6.15944,14.65962 -13.7575,14.65962c-7.59806,0 -13.7575,-6.56334 -13.7575,-14.65962z" fill="#e3ac53" stroke="none" stroke-width="0" stroke-linecap="butt" stroke-linejoin="miter"/><path d="M279.30265,132.23188c-7.23296,0 -14.23269,-0.99316 -21.40046,-3.03337c-0.46272,-0.14796 -0.81195,-0.45269 -0.99755,-0.85146c-8.34463,-17.3087 -10.17105,-35.10771 -5.57645,-54.40021c0.05016,-0.26835 0.21004,-0.55676 0.44893,-0.78123c4.66733,-4.67986 9.95473,-8.75656 15.68543,-12.08838c0.25331,-0.14296 0.5204,-0.21192 0.79,-0.21192c0.36491,0 0.72166,0.12791 1.00319,0.36115c1.12169,0.9455 2.31987,2.05152 3.29671,3.03714c5.66299,-3.04592 11.76047,-5.31312 18.15201,-6.74767c0.09028,-1.16872 0.23324,-2.0791 0.42949,-3.32431c0.10722,-0.66461 0.61884,-1.18627 1.27342,-1.30289c2.12425,-0.39751 3.76006,-0.84518 5.2034,-1.24019c2.40012,-0.65709 4.47233,-1.22388 7.58032,-1.22388c0.69408,0 1.44208,0.02758 2.26281,0.08904c0.28842,0.01255 0.58999,0.12665 0.83704,0.32102c14.98257,10.65884 27.07409,28.87292 32.35148,48.73222c0.11662,0.42509 0.04326,0.89033 -0.2019,1.26903c-5.44102,8.28129 -7.73456,10.59237 -13.9681,15.39137c-0.27902,0.21318 -0.61759,0.32729 -0.95992,0.32729h-0.00063c-0.31726,0 -0.62323,-0.0953 -0.88531,-0.27337c-2.5481,-1.71169 -4.96388,-3.60018 -7.17152,-5.60781c-0.33544,-0.30973 -0.52103,-0.73985 -0.51539,-1.18627c0.00502,-0.44516 0.20001,-0.87026 0.53482,-1.16495c0.66398,-0.57809 1.30226,-1.16495 1.91859,-1.76561c-10.24753,8.91079 -22.80114,13.5894 -36.57487,13.5894h-0.13167c0.91917,0.06144 1.83081,0.09405 2.73995,0.10031c0.44956,0.00376 0.87654,0.19687 1.17248,0.53168c0.29531,0.33356 0.43514,0.77873 0.38435,1.22138c-0.33168,2.96692 -0.92795,5.984 -1.77124,8.96472c-0.20627,0.65835 -0.77371,1.10351 -1.42327,1.14238c-1.51168,0.08276 -3.01834,0.1254 -4.48612,0.1254zM278.80733,88.62343c-0.98626,0 -1.95496,0.1743 -2.87977,0.51915c-4.71059,1.75306 -6.9201,7.54269 -4.92501,12.90597c1.56873,4.21714 5.33131,7.05114 9.36223,7.05114c0.96369,0 1.90606,-0.16803 2.80014,-0.50159c2.27095,-0.84393 4.03469,-2.63336 4.96765,-5.03724c0.94927,-2.44777 0.93422,-5.24164 -0.04263,-7.86747c-1.50666,-4.23595 -5.23475,-7.06995 -9.28259,-7.06995zM309.31231,76.45982c-0.93985,0 -1.91546,0.18559 -2.89857,0.55175c-2.23146,0.82888 -3.81712,2.27848 -4.58392,4.19206c-0.78687,1.96122 -0.70161,4.3463 0.24766,6.89689c1.52672,4.10554 4.64663,6.65613 8.14147,6.65613c0.89283,0 1.7957,-0.16803 2.68477,-0.49908c4.46041,-1.65901 5.99027,-6.02914 3.9908,-11.40245c-1.42703,-4.01024 -4.25914,-6.39531 -7.58221,-6.39531z" fill="#5865f2" stroke="none" stroke-width="0" stroke-linecap="butt" stroke-linejoin="miter"/><path d="M305.19134,51.70883c-4.74824,0 -6.83192,1.37233 -12.55735,2.44441c-0.11928,0.02108 -0.21185,0.11372 -0.23138,0.23723c-0.25527,1.62226 -0.40195,2.57999 -0.47535,4.17333c-6.96328,1.46599 -13.52542,3.90694 -19.61885,7.29755c-1.10833,-1.18862 -2.61391,-2.58618 -3.87067,-3.64603c-0.0537,-0.04404 -0.1192,-0.06607 -0.1851,-0.06607c-0.04977,0 -0.09976,0.01255 -0.14508,0.03778c-5.73653,3.33543 -10.91408,7.3662 -15.4523,11.91501c-0.03979,0.03809 -0.06771,0.0873 -0.07821,0.14154c-4.94286,20.75918 -1.96005,38.10527 5.49075,53.56059c0.03592,0.07588 0.10775,0.13442 0.18636,0.15942c7.60499,2.16468 14.53606,2.98362 21.04916,2.98362c1.4904,0 2.95881,-0.04288 4.40853,-0.12235c0.12436,-0.00743 0.2275,-0.09233 0.26435,-0.21074c0.8122,-2.86818 1.39954,-5.79238 1.7314,-8.76118c0.02001,-0.17407 -0.11567,-0.32133 -0.28938,-0.32259c-2.66327,-0.01723 -5.28719,-0.26999 -7.88095,-0.70066c-0.20582,-0.0359 -0.30932,-0.27267 -0.19684,-0.44635c0.32449,-0.50441 0.64399,-1.02254 0.94183,-1.53651c0.05059,-0.08825 0.14523,-0.14124 0.24519,-0.14124c0.00607,0 0.01215,0.00023 0.01826,0.00063c1.43397,0.10369 2.86035,0.15526 4.274,0.15526c14.78304,0 28.36322,-5.63304 38.85361,-16.19728c0.05328,-0.05565 0.12601,-0.0852 0.20141,-0.0852c0.03063,0 0.06169,0.00487 0.09206,0.01482c0.56141,0.19429 1.14301,0.38113 1.72164,0.54964c0.19863,0.05791 0.27844,0.30353 0.14609,0.46522c-1.67296,2.04478 -3.50268,3.92708 -5.51195,5.6785c-0.13065,0.1145 -0.13248,0.3167 -0.00357,0.43544c2.21714,2.01664 4.57269,3.84621 7.03145,5.49785c0.04904,0.03339 0.10574,0.04985 0.16237,0.04985c0.06242,0 0.12476,-0.02007 0.17669,-0.05972c6.2052,-4.77736 8.33864,-6.95411 13.67375,-15.07482c0.04657,-0.07156 0.06058,-0.15824 0.0382,-0.23904c-5.09614,-19.17659 -16.90027,-37.39239 -31.89347,-48.04206c-0.04141,-0.03879 -0.09459,-0.05783 -0.14954,-0.06066c-0.78593,-0.05831 -1.50274,-0.0852 -2.1671,-0.0852M310.21925,96.04019c-4.00891,0 -7.62,-2.85265 -9.34578,-7.49231c-2.16754,-5.82718 -0.15831,-10.78737 5.09257,-12.74053c1.14699,-0.42666 2.26988,-0.63161 3.34568,-0.63161c3.88789,-0.00015 7.16559,2.67545 8.78649,7.23116c2.16754,5.82717 0.54523,11.08597 -4.747,13.05449c-1.05324,0.39178 -2.10582,0.57878 -3.13195,0.57878M280.36438,110.38416c-4.41116,0 -8.76886,-3.05807 -10.56535,-7.88778c-2.24122,-6.0253 0.25176,-12.53762 5.68113,-14.55715c1.09278,-0.40653 2.21507,-0.59909 3.3279,-0.59916c4.45952,-0.00015 8.77303,3.09201 10.48539,7.90502c2.2412,6.0253 -0.25176,12.53762 -5.68099,14.55708c-1.06038,0.39446 -2.15612,0.58201 -3.24809,0.58201M305.19138,49.14065v0c0.74979,0 1.52082,0.03018 2.29892,0.08856c0.57108,0.02939 1.11758,0.23144 1.56537,0.57471c15.20835,10.82868 27.47811,29.30249 32.8208,49.40733c0.2187,0.78971 0.08715,1.63739 -0.36681,2.33461c-5.54301,8.43718 -7.885,10.79654 -14.2614,15.70572c-0.49555,0.37847 -1.11187,0.58686 -1.73543,0.58686c-0.57528,0 -1.13075,-0.17086 -1.5944,-0.48615c-2.60864,-1.75235 -5.07393,-3.68013 -7.3391,-5.74057c-0.23156,-0.21326 -0.42394,-0.46115 -0.57215,-0.73209c-8.19806,5.90226 -17.61723,9.40322 -27.79909,10.31204c0.06971,0.30832 0.08834,0.6284 0.05179,0.94652c-0.34001,3.04168 -0.94987,6.12883 -1.81269,9.17561c-0.006,0.02124 -0.01226,0.04232 -0.01881,0.06333c-0.35235,1.13226 -1.38233,1.94054 -2.57599,2.01201c-1.5276,0.08371 -3.05812,0.12619 -4.54905,0.12619c-7.35188,0 -14.46711,-1.00804 -21.75223,-3.08173c-0.02519,-0.00714 -0.05028,-0.01474 -0.07522,-0.02265c-0.75956,-0.24155 -1.3898,-0.79111 -1.72142,-1.49153c-8.48062,-17.59148 -10.33935,-35.66205 -5.68185,-55.24492c0.122,-0.54595 0.39796,-1.03634 0.76459,-1.38628c4.77718,-4.78841 10.15346,-8.93384 16.02164,-12.34529c0.4254,-0.23677 0.90739,-0.36185 1.39381,-0.36185c0.65935,0 1.30326,0.23011 1.84071,0.67096c0.89355,0.75356 1.84021,1.61239 2.69121,2.43641c5.2569,-2.73751 10.86878,-4.82265 16.72893,-6.21543c0.09103,-0.82214 0.21029,-1.58002 0.3525,-2.48383c0.19025,-1.20264 1.1229,-2.15308 2.29535,-2.36022c2.08131,-0.38976 3.6898,-0.82998 5.10893,-1.2184c2.48965,-0.68138 4.63977,-1.26989 7.92109,-1.26989zM310.21926,93.47205v0c0.739,0 1.49151,-0.14053 2.23659,-0.41766c1.84248,-0.6853 3.06737,-1.86859 3.64063,-3.51687c0.60504,-1.73967 0.46491,-3.89581 -0.41785,-6.26975c-1.24906,-3.5106 -3.5697,-5.52402 -6.36681,-5.52387c-0.78675,0 -1.61121,0.15831 -2.45046,0.47047c-1.8833,0.70058 -3.21117,1.89932 -3.84005,3.46679c-0.66606,1.66004 -0.57642,3.72495 0.25917,5.97138c1.33522,3.5896 3.99402,5.81949 6.93879,5.81949zM280.36437,107.81602v0c0.81042,0 1.602,-0.14162 2.35276,-0.42087c1.92205,-0.71492 3.41999,-2.24141 4.21795,-4.29818c0.83586,-2.1545 0.81859,-4.62508 -0.06122,-6.99103c-1.2983,-3.64924 -4.61502,-6.19788 -8.06565,-6.19772c-0.83296,0.00009 -1.65144,0.14742 -2.43272,0.43804c-4.0474,1.50555 -5.91781,6.5544 -4.16941,11.25479c1.3611,3.65927 4.71593,6.21497 8.15831,6.21497z" fill="#000000" stroke="none" stroke-width="0" stroke-linecap="butt" stroke-linejoin="miter"/></g></g></svg>