<svg version="1.1" xmlns="http://www.w3.org/2000/svg" xmlns:xlink="http://www.w3.org/1999/xlink" width="875.05976" height="491.41917" viewBox="0,0,875.05976,491.41917"><g transform="translate(177.52988,73.34408)"><g data-paper-data="{&quot;isPaintingLayer&quot;:true}" fill-rule="nonzero" stroke-miterlimit="10" stroke-dasharray="" stroke-dashoffset="0" style="mix-blend-mode: normal"><path d="M-153.59404,418.07509c-13.2194,0 -23.93584,-10.71644 -23.93584,-23.93583v-443.54751c0,-13.21939 10.71644,-23.93583 23.93584,-23.93583h827.18809c13.21939,0 23.93583,10.71644 23.93583,23.93583v443.54751c0,13.2194 -10.71644,23.93583 -23.93583,23.93583z" fill-opacity="0.10588" fill="#ffffff" stroke="none" stroke-width="0" stroke-linecap="butt" stroke-linejoin="miter"/><path d="M71.40873,159.45503c1.2156,-7.29239 12.15526,-52.26948 24.31123,-72.32684c3.67426,-6.06127 30.39709,-11.00366 30.39709,-11.00366c5.28988,-8.31215 8.81726,-16.37354 12.09149,-20.40364c4.12802,-5.08091 7.55748,-10.32899 7.55748,-10.32899c6.54966,-10.83171 15.59499,-13.57218 15.59499,-13.57218c0,0 4.86239,-27.95802 11.54817,-32.21249c6.68578,-4.25459 23.09635,7.29346 23.09635,7.29346l4.25459,-2.43119c16.28279,-7.39138 34.64332,-10.33234 34.64332,-10.33234c52.87848,-8.50906 100.28557,17.6264 100.28557,17.6264c0,0 10.33258,-12.15633 16.41056,-9.11746c6.07799,3.03899 11.54817,27.95802 11.54817,27.95802c8.50799,4.86239 23.09515,24.91974 23.09515,24.91974c0,0 5.47019,1.8234 7.29358,3.03899c1.8234,1.2156 16.41056,37.68232 16.41056,37.68232c0,0 21.88075,3.64679 31.60433,11.54817c9.72478,7.90138 10.33258,56.52407 7.90138,74.15023c-2.43119,17.62616 -12.76258,28.56653 -18.84056,35.86012c-6.07799,7.29358 -19.45194,13.07543 -19.45194,13.07543c-19.99168,39.98455 -58.95288,61.0748 -58.95288,61.0748l-2.43119,6.07799c-27.35094,31.60433 -85.09061,47.4071 -90.56079,48.01489c-5.47019,0.6078 -27.95873,-1.8234 -27.95873,-1.8234l-0.6078,-22.48855l-6.07679,4.25459c-4.25459,10.33258 -14.58717,26.13534 -14.58717,26.13534c-5.47019,0.6078 -21.88075,-1.8234 -21.88075,-1.8234c-9.11698,-8.50918 -14.58717,-32.82112 -14.58717,-32.82112c0,0 -0.61019,19.66808 -3.04138,21.49147c-2.43119,1.8234 -22.24973,-1.68607 -22.24973,-1.68607c-15.19496,-9.72478 -40.34994,-61.74231 -42.78114,-69.03589c-2.43119,-7.29358 -4.07189,-13.65935 -4.07189,-13.65935c-17.86856,-23.25994 -17.74915,-59.97742 -17.74915,-59.97742c-12.76317,-15.19496 -13.43044,-27.8644 -12.21496,-35.15798z" fill="#f96058" stroke="none" stroke-width="1" stroke-linecap="butt" stroke-linejoin="miter"/><path d="M172.92471,167.57016l4.80746,3.93457l9.4155,7.77481l6.32039,2.27715c0,0 22.78707,7.2494 24.37523,7.2494c1.58696,0 5.82125,-3.7053 5.82125,-3.7053l18.75578,-3.5441l10.4902,-3.49633c0,0 42.71785,-18.6101 45.89297,-19.66808c3.17512,-1.05917 15.29766,-7.86795 15.29766,-7.86795l16.99687,-12.52376l31.22341,20.10989l-1.58696,14.28983c-28.57847,40.74997 -117.48902,75.1497 -117.48902,75.1497l-14.28864,-12.70168l-46.57242,-4.76328l-10.05435,6.35144c-27.5205,-17.99394 -37.57485,-73.03375 -37.57485,-73.03375l1.89265,-30.36127z" fill="#84b900" stroke="none" stroke-width="1" stroke-linecap="butt" stroke-linejoin="miter"/><path d="M387.10744,200.1847l-13.05394,-1.78041c0,0 21.36131,-43.90718 26.10787,-66.45424c4.74656,-22.54825 7.71391,-35.601 7.71391,-35.601c0,0 31.44671,4.15309 35.601,14.23968c4.15309,10.08778 10.68006,64.08155 5.34003,76.54202c-5.34003,12.46047 -21.36131,32.04137 -21.36131,32.04137c0,0 -5.9335,5.34003 -8.30618,6.52697c-2.37388,1.18694 -7.98855,5.18002 -7.98855,5.18002c0,0 5.61467,-12.89393 6.80161,-17.64049c1.18694,-4.74656 -0.59347,-14.24088 -5.34003,-15.42662c-4.74656,-1.18694 -11.867,-0.59347 -14.24088,4.74656c-2.37268,5.34003 -9.49312,13.05394 -9.49312,13.05394z" fill="#79a4be" stroke="none" stroke-width="1" stroke-linecap="butt" stroke-linejoin="miter"/><path d="M102.29947,180.60499c-3.56082,-5.9335 -13.64741,-2.37388 -15.42781,0c-1.77921,2.37268 -3.24796,14.00803 -3.24796,14.00803c0,0 -9.80526,-16.97537 -12.77201,-24.09581c-2.96675,-7.12044 2.96675,-23.734 5.9335,-36.19447c2.96723,-12.46047 16.01997,-43.31371 18.93478,-47.19454c2.91481,-3.87964 26.74314,-10.93918 26.74314,-10.93918l0.60302,6.51264c0,0 -1.77921,8.30738 -6.52697,26.10787c-4.74656,17.8005 -7.71271,49.84068 -7.71271,49.84068l-2.96735,14.83435z" fill="#79a4be" stroke="none" stroke-width="1" stroke-linecap="butt" stroke-linejoin="miter"/><path d="M162.96589,278.56206l0.9111,-35.56398l18.50741,-12.91303l46.57242,4.76328l15.16869,14.53343l1.36725,26.44461c0,0 -11.85386,4.56028 -12.76616,7.75212c-0.91229,3.19184 -1.36844,11.85386 -1.36844,15.0457c0,3.19184 -0.45615,21.43057 -0.45615,21.43057c0,0 -5.47138,3.19184 -5.92633,4.55909c-0.45615,1.36844 -13.11125,28.11994 -14.99077,27.51095c-1.87952,-0.61019 -19.08416,0.61019 -21.88075,-1.8234c-2.79659,-2.43358 -16.93119,-29.79168 -16.47504,-31.15893c0.45495,-1.36844 0.9111,-27.81305 0,-31.00489c-0.91229,-3.19184 -8.66322,-9.57551 -8.66322,-9.57551z" fill="#ff6700" stroke="none" stroke-width="1" stroke-linecap="butt" stroke-linejoin="miter"/><path d="M263.78881,174.07563c0,0 9.24594,-59.31111 17.07807,-78.88963c7.83093,-19.57971 34.1227,-60.97569 45.31144,-73.84096c11.18755,-12.86682 21.25743,-21.81722 25.42127,-18.69918c4.16384,3.11816 12.05806,26.53011 11.54817,27.95826c-0.51108,1.42815 -10.11883,-3.6659 -10.11883,-3.6659c0,0 -0.74751,-1.72309 -4.66417,-1.72309c-3.91546,0 -11.55773,11.23293 -11.55773,11.23293c0,0 -7.4727,6.70608 -24.61405,27.97068c-25.03796,31.05863 -45.72938,105.63277 -45.72938,105.63277z" fill="#f4d761" stroke="none" stroke-width="1" stroke-linecap="butt" stroke-linejoin="miter"/><path d="M170.79204,163.11257c0,0 -17.06254,-31.58045 -12.4342,-86.3874c1.36486,-16.17413 4.47431,-51.46466 6.15321,-59.85562c1.67772,-8.3912 6.71325,-18.46048 11.74759,-18.46048c5.03434,0 19.74689,8.49139 19.74689,8.49139l-18.62801,12.20684c0,0 -2.67957,9.44297 -6.15321,34.1227c-8.92353,63.39614 2.25686,108.48906 2.25686,108.48906z" fill="#f4d761" stroke="none" stroke-width="1" stroke-linecap="butt" stroke-linejoin="miter"/><path d="M357.06619,268.3262c0,0 28.18442,-32.3602 28.70744,-36.53598c0.52182,-4.17578 2.08729,-13.04916 2.08729,-13.04916c0,0 6.78489,-10.43885 8.35156,-13.04797c1.56547,-2.61031 7.30672,-9.91703 13.56979,-7.82974c6.26307,2.08849 10.43885,8.35156 7.30672,17.74676c-3.13094,9.3952 -13.04797,29.22807 -22.96499,40.71056c-9.91703,11.48369 -13.56979,16.1801 -21.92135,21.92254c-8.35156,5.74125 -19.99526,13.7095 -19.99526,13.7095z" fill="#909ea8" stroke="none" stroke-width="1" stroke-linecap="butt" stroke-linejoin="miter"/><path d="M104.96949,235.44418c1.56547,7.82854 -0.52182,24.00864 -0.52182,24.00864c0,0 -10.96067,-19.83406 -16.70192,-37.57962c-5.74125,-17.74557 -2.61031,-37.0578 -2.61031,-37.0578c0,0 2.08849,-4.17578 7.30791,-7.30672c5.21943,-3.13213 10.96067,1.04365 10.96067,1.04365c-5.74125,10.96067 0,49.06212 1.56547,56.89186z" fill="#909ea8" stroke="none" stroke-width="1" stroke-linecap="butt" stroke-linejoin="miter"/><path d="M374.0535,198.40549l13.05394,1.77921c0,0 1.55233,27.39989 0.16956,30.16305c-1.38158,2.76435 -17.96767,23.49756 -22.11479,28.10442c-4.14593,4.60685 -6.97715,5.46541 -8.09602,9.87404c-1.11768,4.40863 -4.80388,26.98315 -8.9498,31.59c-4.14712,4.60804 -28.10442,20.73322 -42.84681,28.56534c-14.74359,7.83212 -38.23996,17.96767 -41.92616,18.4286c-3.685,0.46092 -32.08675,-2.68673 -32.08675,-2.68673l1.46994,-60.64492c0,0 2.51359,-3.47245 10.34571,-5.77588c7.83212,-2.30343 47.45367,-14.74359 76.019,-33.17219c28.56414,-18.4286 54.96219,-46.22493 54.96219,-46.22493z" fill="#a23e35" stroke="none" stroke-width="1" stroke-linecap="butt" stroke-linejoin="miter"/><path d="M105.85909,173.48455c0,0 6.83027,42.1208 16.04397,59.62755c9.2149,17.50794 18.4286,30.86876 26.26191,36.85839c7.83212,5.98843 16.5849,10.13555 19.34925,12.43897c2.76435,2.30343 3.6862,10.59647 4.14712,17.04702c0.46092,6.44935 -1.18574,39.51527 -1.18574,39.51527c0,0 -23.23247,-0.81557 -24.15432,-2.19715c-0.92065,-1.38277 -15.20332,-18.4286 -21.19295,-28.56534c-5.98962,-10.13555 -20.01675,-32.46528 -19.6836,-39.95947c0.33315,-7.49419 1.71593,-28.22621 0.79408,-30.99056c-0.92065,-2.76435 -9.97315,-53.83495 -0.37972,-63.77467z" fill="#a23e35" stroke="none" stroke-width="1" stroke-linecap="butt" stroke-linejoin="miter"/><path d="M260.66742,286.53986c0,0 3.88561,9.22922 4.37161,26.23206c0.486,17.00284 -5.82364,33.27488 -5.82364,33.27488l-27.95873,-1.8234l0.7487,-58.16955z" fill="#000000" stroke="none" stroke-width="1" stroke-linecap="butt" stroke-linejoin="miter"/><path d="M160.1084,282.16825c2.42881,0 8.74442,0.97081 10.20122,2.42881c1.458,1.45681 0.16598,54.37469 0.16598,54.37469c0,0 -15.22482,-0.45257 -20.08243,-1.42457c-4.85881,-0.97081 -6.80161,-4.85761 -6.80161,-4.85761c-6.80042,-19.91764 0.486,-51.49332 0.486,-51.49332c0,0 13.60203,0.972 16.03084,0.972z" fill="#000000" stroke="none" stroke-width="1" stroke-linecap="butt" stroke-linejoin="miter"/><path d="M256.03191,300.31862c0,1.71354 -1.38874,3.10228 -3.10228,3.10228h-13.18529c-1.71354,0 -3.10347,-1.38874 -3.10347,-3.10228c0,-1.71354 1.38994,-3.10228 3.10347,-3.10228h13.18529c1.71354,0 3.10228,1.38874 3.10228,3.10228z" fill="#f4d761" stroke="none" stroke-width="1" stroke-linecap="butt" stroke-linejoin="miter"/><path d="M256.03191,315.83122c0,1.71234 -1.38874,3.10228 -3.10228,3.10228h-13.18529c-1.71354,0 -3.10347,-1.38994 -3.10347,-3.10228c0,-1.71354 1.38994,-3.10347 3.10347,-3.10347h13.18529c1.71354,0 3.10228,1.38994 3.10228,3.10347z" fill="#f4d761" stroke="none" stroke-width="1" stroke-linecap="butt" stroke-linejoin="miter"/><path d="M256.03191,331.34262c0,1.71354 -1.38874,3.10228 -3.10228,3.10228h-13.18529c-1.71354,0 -3.10347,-1.38874 -3.10347,-3.10228c0,-1.71354 1.38994,-3.10228 3.10347,-3.10228h13.18529c1.71354,0 3.10228,1.38874 3.10228,3.10228z" fill="#f4d761" stroke="none" stroke-width="1" stroke-linecap="butt" stroke-linejoin="miter"/><path d="M164.04058,294.88903c0,1.71354 -1.38994,3.10228 -3.10347,3.10228h-10.00062c-1.71354,0 -3.10228,-1.38874 -3.10228,-3.10228c0,-1.71354 1.38874,-3.10228 3.10228,-3.10228h10.00062c1.71354,0 3.10347,1.38874 3.10347,3.10228z" fill="#f4d761" stroke="none" stroke-width="1" stroke-linecap="butt" stroke-linejoin="miter"/><path d="M164.04058,310.40163c0,1.71354 -1.38994,3.10228 -3.10347,3.10228h-10.00062c-1.71354,0 -3.10228,-1.38874 -3.10228,-3.10228c0,-1.71354 1.38874,-3.10228 3.10228,-3.10228h10.00062c1.71354,0 3.10347,1.38874 3.10347,3.10228z" fill="#f4d761" stroke="none" stroke-width="1" stroke-linecap="butt" stroke-linejoin="miter"/><path d="M164.04058,325.91422c0,1.71354 -1.38994,3.10228 -3.10347,3.10228h-10.00062c-1.71354,0 -3.10228,-1.38874 -3.10228,-3.10228c0,-1.71354 1.38874,-3.10347 3.10228,-3.10347h10.00062c1.71354,0 3.10347,1.38994 3.10347,3.10347z" fill="#f4d761" stroke="none" stroke-width="1" stroke-linecap="butt" stroke-linejoin="miter"/><path d="M265.39965,173.09885c0.70333,-11.6031 13.71308,-64.34664 38.6782,-107.24481c24.96512,-42.89816 51.68915,-54.50126 51.68915,-54.50126l4.92209,17.93185l3.8677,2.46224c-54.85352,30.9428 -95.28944,138.53986 -95.6417,139.59426z" fill="#000000" stroke="none" stroke-width="1" stroke-linecap="butt" stroke-linejoin="miter"/><path d="M314.5382,150.08729l-46.98796,86.63816l-25.86308,10.18809l-10.18809,-12.53928l34.96096,-61.55841z" fill="#ffffff" stroke="none" stroke-width="1" stroke-linecap="butt" stroke-linejoin="miter"/><path d="M200.94793,186.94687l-27.88828,48.53313l-9.74388,-10.5105l22.41451,-44.10898z" fill="#ffffff" stroke="none" stroke-width="1" stroke-linecap="butt" stroke-linejoin="miter"/><path d="M408.86758,90.79767c0,0 -1.17142,15.8159 -7.02969,35.73115c-5.85708,19.91645 -25.18841,69.70697 -25.18841,69.70697c0,0 -11.12904,18.15873 -43.93225,41.58942c-32.80321,23.43069 -88.45081,39.8329 -88.45081,39.8329l1.96549,-19.27283c84.35026,-29.28897 125.0656,-84.14368 125.0656,-84.14368c5.27197,-28.11636 3.06049,-82.22954 3.06049,-82.22954c5.27197,-11.13024 20.04302,-29.45017 21.79955,-29.45017z" fill="#000000" stroke="none" stroke-width="1" stroke-linecap="butt" stroke-linejoin="miter"/><path d="M386.28948,199.25449c0,0 -0.62093,31.06579 -0.62093,32.92979c0,1.864 -13.6689,18.63995 -13.6689,18.63995l-6.83505,31.68673l-11.80491,9.31998l-3.10706,5.59199c0,0 -13.6689,16.77476 -39.76364,29.2018c-26.09593,12.42584 -54.05467,19.26089 -54.05467,19.26089c0,0 4.34892,-18.63995 5.59199,-34.17285c1.24187,-15.5329 -2.48612,-24.85287 -2.48612,-24.85287c88.84845,-28.58086 126.74929,-87.60539 126.74929,-87.60539z" fill="#000000" stroke="none" stroke-width="1" stroke-linecap="butt" stroke-linejoin="miter"/><path d="M386.91041,201.73942c0,0 4.97105,-12.42584 16.77596,-13.6689c11.80491,-1.24306 14.28983,1.864 14.28983,1.864c0,0 9.31998,-13.04797 15.5329,-37.27871c6.21292,-24.23194 6.21292,-47.84175 6.21292,-47.84175c0,0 11.8061,11.80491 11.18397,52.81161c-0.39525,26.09952 -1.24187,34.79378 -8.07691,44.73469c-6.83385,9.9421 -11.18397,15.53409 -18.01782,19.88301c-6.83505,4.34892 -14.91196,11.18397 -14.91196,11.18397c0,0 9.94091,-19.88301 8.69904,-26.09593c-1.24306,-6.21292 -3.10706,-9.31998 -9.31998,-9.31998c-6.21411,0 -9.31998,1.864 -11.80491,7.45598c-2.48612,5.59199 -9.31998,13.6689 -9.31998,13.6689z" fill="#000000" stroke="none" stroke-width="1" stroke-linecap="butt" stroke-linejoin="miter"/><path d="M136.09737,133.52985l-1.1332,27.64946c0,0 6.55563,51.25688 35.75981,75.09716l-8.34439,7.74734c0,0 -35.16395,-33.37638 -38.14444,-78.6723l2.47776,-42.91368z" fill="#000000" stroke="none" stroke-width="1" stroke-linecap="butt" stroke-linejoin="miter"/><path d="M211.97547,302.03932l12.60854,23.47965l-15.21765,25.65173c0,0 -4.78238,-35.65234 2.60912,-49.13138z" fill="#000000" stroke="none" stroke-width="1" stroke-linecap="butt" stroke-linejoin="miter"/><path d="M182.84413,230.29879l48.65493,4.07547l14.39014,13.75129v28.6955l-10.00062,2.60912l0.43465,-26.08757l-11.73923,-10.00062l-50.43654,-5.65169z" fill="#000000" stroke="none" stroke-width="1" stroke-linecap="butt" stroke-linejoin="miter"/><path d="M122.53116,75.02715l0.54093,9.73552c0,0 -5.40929,13.52203 -9.19579,31.91241c-3.78531,18.39038 -8.65367,54.0893 -8.65367,55.71208c0,1.62159 -4.86836,34.61586 -4.86836,34.61586l-6.48995,-29.7487c0,0 -4.32743,0.54093 -7.573,5.40929c-3.24557,4.86836 -3.24557,15.14481 -3.24557,15.14481l-7.57217,-18.39038c1.62267,-18.93131 19.4726,-14.60388 19.4726,-14.60388c1.62159,-40.02515 23.79848,-86.00171 23.79848,-86.00171z" fill="#000000" stroke="none" stroke-width="1" stroke-linecap="butt" stroke-linejoin="miter"/><path d="M161.36101,31.81972c0,0 4.86239,-27.95814 11.54817,-32.21261c6.68578,-4.25459 23.09635,7.29346 23.09635,7.29346l4.25459,-2.43119c12.07,-6.17662 42.00617,-11.45563 46.53301,-11.8215c18.76056,-1.51603 37.74202,1.34683 55.78015,6.44446c2.05863,0.58153 32.55961,12.73571 32.61574,12.67003c0.00358,-0.00358 10.33377,-12.15478 16.41056,-9.11638c6.07799,3.03899 11.54817,27.95814 11.54817,27.95814c8.50799,4.86239 23.09515,24.91974 23.09515,24.91974c0,0 5.47019,1.8234 7.29358,3.03899c1.8234,1.2156 16.41056,37.68232 16.41056,37.68232c0,0 21.88075,3.64679 31.60553,11.54817c9.72358,7.90138 10.33138,56.52407 7.90019,74.15023c-2.43119,17.62616 -12.76258,28.56653 -18.84056,35.86012c-6.07799,7.29239 -19.45075,13.07543 -19.45075,13.07543c-19.99287,39.98335 -58.95407,61.07361 -58.95407,61.07361l-2.43119,6.07799c-27.35094,31.60553 -85.09061,47.40829 -90.56079,48.01609c-5.47019,0.6078 -27.95873,-1.8234 -27.95873,-1.8234l-0.6078,-22.48855l-6.07679,4.25459c-4.25459,10.33258 -14.58717,26.13534 -14.58717,26.13534c-5.47019,0.6078 -21.88075,-1.8234 -21.88075,-1.8234c-9.11698,-8.50918 -14.58717,-32.82112 -14.58717,-32.82112c0,0 -0.61019,19.66808 -3.04138,21.49147c-2.43119,1.8234 -22.24973,-1.68607 -22.24973,-1.68607c-15.19496,-9.72478 -40.34994,-61.74231 -42.78114,-69.03589c-2.43119,-7.29358 -4.07189,-13.65935 -4.07189,-13.65935c-17.86856,-23.25994 -17.74915,-59.97742 -17.74915,-59.97742c-12.76317,-15.19496 -13.43044,-27.8644 -12.21496,-35.15798c1.2156,-7.29358 12.15526,-52.26948 24.31123,-72.32684c3.67426,-6.06127 26.74314,-10.94037 26.74314,-10.94037" fill="none" stroke="#000000" stroke-width="4.63129" stroke-linecap="round" stroke-linejoin="round"/><path d="M262.77501,173.39977c0,0 2.36671,-87.93257 72.41401,-161.6374" fill="none" stroke="#000000" stroke-width="4.63129" stroke-linecap="round" stroke-linejoin="round"/><path d="M173.85372,166.93609c-27.57782,-57.39099 -11.45026,-141.1239 -11.45026,-141.1239" fill="none" stroke="#000000" stroke-width="4.63129" stroke-linecap="round" stroke-linejoin="round"/><path d="M313.43962,147.82685l16.44519,-9.64l32.60738,24.38478l-2.2688,11.34159c-30.33858,39.12838 -115.41008,74.98252 -115.41008,74.98252c0,0 -10.80425,-10.18928 -15.19496,-12.96557c-2.68673,-1.7004 -44.34064,-5.87499 -47.17663,-5.87499c-0.63407,0.2018 -10.15585,6.27979 -10.15585,6.27979c-30.05677,-23.33278 -36.77361,-71.31782 -36.77361,-71.31782l1.22515,-31.27357" fill="none" stroke="#000000" stroke-width="2.31564" stroke-linecap="round" stroke-linejoin="round"/><path d="M107.12962,269.93705c-2.38343,-12.87482 -2.38343,-23.36621 -1.90698,-31.47298c0,0 -8.10677,-36.71748 -2.86107,-56.26973c5.2457,-19.55105 6.19859,-23.36621 6.19859,-23.36621c0,0 1.43054,-43.87136 14.30655,-75.34314c0,0 9.99703,-29.02387 39.23465,-56.41063" fill="none" stroke="#000000" stroke-width="4.63129" stroke-linecap="round" stroke-linejoin="round"/><path d="M75.97391,182.37226c0,0 -2.22533,-12.45927 9.83738,-16.68162c12.24075,-4.28444 18.97191,7.13954 17.54377,13.26052" fill="none" stroke="#000000" stroke-width="4.63129" stroke-linecap="round" stroke-linejoin="round"/><path d="M175.71652,166.93609c0,0 -20.12422,-56.27331 0.74631,-146.45796" fill="none" stroke="#000000" stroke-width="2.31564" stroke-linecap="round" stroke-linejoin="round"/><path d="M176.50463,20.19393c0,0 13.25932,-8.99757 22.25689,-13.73338" fill="none" stroke="#000000" stroke-width="2.31564" stroke-linecap="round" stroke-linejoin="round"/><path d="M163.23576,243.46856c-34.80095,-25.31021 -37.86382,-79.55355 -37.86382,-79.55355l1.91295,-43.9836c0,0 39.10927,51.51362 81.91787,69.49323c0,0 64.96638,-9.74627 120.68205,-51.23778l32.60738,24.38478c0,0 4.0504,-47.61367 0.23524,-71.45753c0,0 5.2457,-14.30536 23.36621,-35.28695" fill="none" stroke="#000000" stroke-width="4.63129" stroke-linecap="round" stroke-linejoin="round"/><path d="M135.51226,165.01717l-9.09668,-0.7905" fill="none" stroke="#000000" stroke-width="2.31564" stroke-linecap="round" stroke-linejoin="round"/><path d="M395.77543,62.17979c-11.12785,9.85374 -21.41863,29.06686 -21.41863,29.06686c3.77456,32.93695 -3.05929,83.37826 -3.05929,83.37826c-31.90644,47.6889 -125.83102,84.90671 -125.83102,84.90671" fill="none" stroke="#000000" stroke-width="2.31564" stroke-linecap="round" stroke-linejoin="round"/><path d="M364.18065,91.25143l9.79404,-0.00478" fill="none" stroke="#000000" stroke-width="2.31564" stroke-linecap="round" stroke-linejoin="round"/><path d="M370.14998,173.8595l-8.41365,-1.91176" fill="none" stroke="#000000" stroke-width="2.31564" stroke-linecap="round" stroke-linejoin="round"/><path d="M407.97678,92.53748c0,0 -1.49024,17.62735 -10.5093,48.29312c-9.3558,31.81091 -23.06411,58.49076 -23.06411,58.49076c-41.19179,52.36262 -124.62259,77.49611 -133.69897,79.94044c-9.07638,2.44314 -9.07638,8.37783 -9.07638,8.37783l-0.69736,37.35155" fill="none" stroke="#000000" stroke-width="4.63129" stroke-linecap="round" stroke-linejoin="round"/><path d="M385.616,199.98767c-31.47417,57.58205 -125.53727,87.26746 -125.53727,87.26746l-26.82434,-1.0723" fill="none" stroke="#000000" stroke-width="2.31564" stroke-linecap="round" stroke-linejoin="round"/><path d="M374.40337,199.32136c0,0 12.28493,-0.04896 13.0014,1.73861c0.71527,1.78877 0.35704,27.89784 -1.0735,31.11594c-1.43054,3.2193 -19.31343,27.89784 -29.32837,36.83928c-2.1458,13.23305 -6.79445,27.18137 -6.79445,27.18137" fill="none" stroke="#000000" stroke-width="4.63129" stroke-linecap="round" stroke-linejoin="round"/><path d="M162.57183,281.26551c0,-0.6078 1.00185,-36.62434 1.40665,-37.23214c0.406,-0.6078 14.0343,-11.34518 18.46323,-13.97817" fill="none" stroke="#000000" stroke-width="4.63129" stroke-linecap="round" stroke-linejoin="round"/><path d="M387.40357,201.05998c0,0 8.24051,-14.92749 24.57345,-12.20493c17.13538,2.8563 19.20715,22.61393 13.5268,32.42707" fill="none" stroke="#000000" stroke-width="4.63129" stroke-linecap="round" stroke-linejoin="round"/><path d="M387.00833,219.67485c0.84184,-1.26217 7.15029,-8.46022 9.92539,-14.43551c3.90949,-8.42201 14.1155,-9.46207 18.94684,-3.60977c5.81528,7.04521 -2.88018,24.16029 -10.03644,36.36761" fill="none" stroke="#000000" stroke-width="2.31564" stroke-linecap="round" stroke-linejoin="round"/><path d="M390.91782,214.86262c0,0 14.13579,7.82018 14.43671,24.66182" fill="none" stroke="#000000" stroke-width="2.31564" stroke-linecap="round" stroke-linejoin="round"/><path d="M374.07619,248.84799c0,0 7.21835,9.92419 6.0147,21.05204" fill="none" stroke="#000000" stroke-width="2.31564" stroke-linecap="round" stroke-linejoin="round"/><path d="M85.74084,198.67416c0,0 -1.06992,-9.63641 -0.42749,-14.13341c0.64243,-4.49699 10.27884,-11.5637 16.48818,-4.28205" fill="none" stroke="#000000" stroke-width="2.31564" stroke-linecap="round" stroke-linejoin="round"/><path d="M84.24224,202.31498c0,0 5.5681,-10.70633 15.63201,-11.13501" fill="none" stroke="#000000" stroke-width="2.31564" stroke-linecap="round" stroke-linejoin="round"/><path d="M91.30894,233.1515c1.71354,-9.85016 10.92127,-12.84855 10.92127,-12.84855" fill="none" stroke="#000000" stroke-width="2.31564" stroke-linecap="round" stroke-linejoin="round"/><path d="M266.4636,171.34472c0,0 26.59865,-109.19716 84.85537,-147.45862" fill="none" stroke="#000000" stroke-width="2.31564" stroke-linecap="round" stroke-linejoin="round"/><path d="M351.59958,24.1082c0,0 13.85279,9.13728 21.7494,18.34979" fill="none" stroke="#000000" stroke-width="2.31564" stroke-linecap="round" stroke-linejoin="round"/><path d="M260.07873,287.25513c0,0 10.71469,26.65 -0.86334,58.79168" fill="none" stroke="#000000" stroke-width="2.31564" stroke-linecap="round" stroke-linejoin="round"/><path d="M171.29595,339.09235c0,0 -0.34868,-43.63492 -0.34868,-49.22094c0,-5.58482 -4.18891,-7.67928 -4.18891,-7.67928c-58.646,-26.53059 -59.62874,-115.29784 -59.62874,-115.29784" fill="none" stroke="#000000" stroke-width="4.63129" stroke-linecap="round" stroke-linejoin="round"/><path d="M143.12825,280.81294c-44.70603,-35.40755 -41.09865,-106.33251 -41.09865,-106.33251" fill="none" stroke="#000000" stroke-width="2.31564" stroke-linecap="round" stroke-linejoin="round"/><path d="M146.73564,336.02589c-10.37915,-23.42711 -2.3703,-54.5944 -2.3703,-54.5944l24.11253,2.16372" fill="none" stroke="#000000" stroke-width="2.31564" stroke-linecap="round" stroke-linejoin="round"/><path d="M173.51699,322.65193c1.03051,-11.54101 9.47999,-21.63954 9.47999,-21.63954c6.38965,-1.44248 28.64654,1.23709 28.64654,1.23709l11.33443,23.49279" fill="none" stroke="#000000" stroke-width="2.31564" stroke-linecap="round" stroke-linejoin="round"/><path d="M189.592,349.8548c-8.65605,-14.83793 -7.83093,-46.78138 -7.83093,-46.78138" fill="none" stroke="#000000" stroke-width="2.31564" stroke-linecap="round" stroke-linejoin="round"/><path d="M209.37591,350.06019c0,0 -2.67837,-27.61483 2.2676,-46.98677" fill="none" stroke="#000000" stroke-width="2.31564" stroke-linecap="round" stroke-linejoin="round"/><path d="M244.68315,249.39966l-0.32718,26.14012" fill="none" stroke="#000000" stroke-width="4.63129" stroke-linecap="round" stroke-linejoin="round"/><path d="M174.56183,237.63775l51.39182,5.97529l10.22272,10.0651v26.10668" fill="none" stroke="#000000" stroke-width="2.31564" stroke-linecap="round" stroke-linejoin="round"/><path d="M215.80257,260.57528v0c-0.13255,1.87952 -1.7625,3.29573 -3.64202,3.16437l-27.22078,-1.90698c-1.87832,-0.13135 -3.29573,-1.7625 -3.16318,-3.64082v0c0.13135,-1.87952 1.7613,-3.29573 3.64082,-3.16437l27.22078,1.90698c1.87832,0.13135 3.29573,1.7613 3.16437,3.64082z" fill="#000000" stroke="none" stroke-width="1" stroke-linecap="butt" stroke-linejoin="miter"/><path d="M216.53097,275.56605v0c-0.13255,1.87952 -1.7625,3.29573 -3.64082,3.16437l-27.22078,-1.90698c-1.87952,-0.13255 -3.29692,-1.7625 -3.16437,-3.64202v0c0.13135,-1.87832 1.7613,-3.29573 3.64082,-3.16318l27.22078,1.90698c1.87952,0.13135 3.29573,1.7613 3.16437,3.64082z" fill="#000000" stroke="none" stroke-width="1" stroke-linecap="butt" stroke-linejoin="miter"/><path d="M180.92043,5.87137c3.25393,0 12.20135,3.25369 12.20135,3.25369l8.13543,-2.44027c-27.65782,35.7911 -23.5907,161.06089 -23.5907,161.06089c-28.46981,-84.59744 0,-161.87431 3.25393,-161.87431z" fill="#000000" stroke="none" stroke-width="1" stroke-linecap="butt" stroke-linejoin="miter"/></g></g></svg>