<svg version="1.1" xmlns="http://www.w3.org/2000/svg" xmlns:xlink="http://www.w3.org/1999/xlink" width="875.05976" height="491.41917" viewBox="0,0,875.05976,491.41917"><defs><linearGradient x1="299.83361" y1="40.47716" x2="323.69086" y2="178.70883" gradientUnits="userSpaceOnUse" id="color-1"><stop offset="0.18483" stop-color="#af6308"/><stop offset="1" stop-color="#af6308" stop-opacity="0"/></linearGradient><linearGradient x1="37423.60499" y1="9097.6978" x2="48902.35531" y2="27213.68601" gradientUnits="userSpaceOnUse" id="color-2"><stop offset="0.18483" stop-color="#af6308"/><stop offset="1" stop-color="#af6308" stop-opacity="0"/></linearGradient><linearGradient x1="18059.01528" y1="11757.82055" x2="14879.43506" y2="18319.90581" gradientUnits="userSpaceOnUse" id="color-3"><stop offset="0.18483" stop-color="#af6308"/><stop offset="1" stop-color="#af6308" stop-opacity="0"/></linearGradient><linearGradient x1="26392.49541" y1="29476.90668" x2="56890.52716" y2="30743.46814" gradientUnits="userSpaceOnUse" id="color-4"><stop offset="0.18483" stop-color="#af6308"/><stop offset="1" stop-color="#af6308" stop-opacity="0"/></linearGradient><linearGradient x1="8663.3477" y1="21275.39487" x2="39784.81429" y2="22942.73258" gradientUnits="userSpaceOnUse" id="color-5"><stop offset="0.18483" stop-color="#af6308"/><stop offset="1" stop-color="#af6308" stop-opacity="0"/></linearGradient><linearGradient x1="6791.66876" y1="10699.28138" x2="21389.51006" y2="16240.16197" gradientUnits="userSpaceOnUse" id="color-6"><stop offset="0.18483" stop-color="#af6308"/><stop offset="1" stop-color="#af6308" stop-opacity="0"/></linearGradient><linearGradient x1="26120.75388" y1="8573.68163" x2="24189.77608" y2="44792.01891" gradientUnits="userSpaceOnUse" id="color-7"><stop offset="0.18483" stop-color="#af6308"/><stop offset="1" stop-color="#af6308" stop-opacity="0"/></linearGradient><linearGradient x1="20130.93748" y1="8958.30152" x2="18708.72589" y2="28989.16302" gradientUnits="userSpaceOnUse" id="color-8"><stop offset="0.18483" stop-color="#af6308"/><stop offset="1" stop-color="#af6308" stop-opacity="0"/></linearGradient><linearGradient x1="24998.14713" y1="21761.49915" x2="21834.83148" y2="33241.48971" gradientUnits="userSpaceOnUse" id="color-9"><stop offset="0.18483" stop-color="#af6308"/><stop offset="1" stop-color="#af6308" stop-opacity="0"/></linearGradient><linearGradient x1="18407.16507" y1="13567.49913" x2="16008.03457" y2="20030.1014" gradientUnits="userSpaceOnUse" id="color-10"><stop offset="0.18483" stop-color="#af6308"/><stop offset="1" stop-color="#af6308" stop-opacity="0"/></linearGradient><linearGradient x1="73014.33061" y1="74270.05623" x2="64992.15263" y2="65065.4178" gradientUnits="userSpaceOnUse" id="color-11"><stop offset="0.18483" stop-color="#af6308"/><stop offset="1" stop-color="#af6308" stop-opacity="0"/></linearGradient><linearGradient x1="5916.85551" y1="16513.34007" x2="27395.61751" y2="14912.09785" gradientUnits="userSpaceOnUse" id="color-12"><stop offset="0.18483" stop-color="#af6308"/><stop offset="1" stop-color="#af6308" stop-opacity="0"/></linearGradient><linearGradient x1="364.63372" y1="285.12823" x2="432.63403" y2="199.65565" gradientUnits="userSpaceOnUse" id="color-13"><stop offset="0" stop-color="#ffffff" stop-opacity="0"/><stop offset="0.01611" stop-color="#ffffff" stop-opacity="0.05527"/><stop offset="0.09335" stop-color="#ffffff" stop-opacity="0.30188"/><stop offset="0.16976" stop-color="#ffffff" stop-opacity="0.51473"/><stop offset="0.24349" stop-color="#ffffff" stop-opacity="0.68885"/><stop offset="0.31397" stop-color="#ffffff" stop-opacity="0.82424"/><stop offset="0.38038" stop-color="#ffffff" stop-opacity="0.92115"/><stop offset="0.44112" stop-color="#ffffff" stop-opacity="0.97972"/><stop offset="0.49097" stop-color="#ffffff"/><stop offset="0.61835" stop-color="#ffffff" stop-opacity="0.9907"/><stop offset="0.68818" stop-color="#ffffff" stop-opacity="0.95932"/><stop offset="0.74409" stop-color="#ffffff" stop-opacity="0.9055"/><stop offset="0.79264" stop-color="#ffffff" stop-opacity="0.82909"/><stop offset="0.83641" stop-color="#ffffff" stop-opacity="0.72994"/><stop offset="0.87674" stop-color="#ffffff" stop-opacity="0.60791"/><stop offset="0.91446" stop-color="#ffffff" stop-opacity="0.46271"/><stop offset="0.95008" stop-color="#ffffff" stop-opacity="0.29428"/><stop offset="0.98283" stop-color="#ffffff" stop-opacity="0.10939"/><stop offset="1" stop-color="#ffffff" stop-opacity="0"/></linearGradient><linearGradient x1="222.77594" y1="246.23826" x2="326.39932" y2="211.81599" gradientUnits="userSpaceOnUse" id="color-14"><stop offset="0" stop-color="#ffffff" stop-opacity="0"/><stop offset="0.0563" stop-color="#ffffff" stop-opacity="0.20452"/><stop offset="0.12156" stop-color="#ffffff" stop-opacity="0.41299"/><stop offset="0.18772" stop-color="#ffffff" stop-opacity="0.59284"/><stop offset="0.2534" stop-color="#ffffff" stop-opacity="0.73966"/><stop offset="0.31854" stop-color="#ffffff" stop-opacity="0.85365"/><stop offset="0.38297" stop-color="#ffffff" stop-opacity="0.93493"/><stop offset="0.44641" stop-color="#ffffff" stop-opacity="0.98368"/><stop offset="0.50771" stop-color="#ffffff"/><stop offset="0.56666" stop-color="#ffffff" stop-opacity="0.98354"/><stop offset="0.62813" stop-color="#ffffff" stop-opacity="0.93443"/><stop offset="0.69075" stop-color="#ffffff" stop-opacity="0.85256"/><stop offset="0.75419" stop-color="#ffffff" stop-opacity="0.73777"/><stop offset="0.81826" stop-color="#ffffff" stop-opacity="0.58995"/><stop offset="0.88287" stop-color="#ffffff" stop-opacity="0.40889"/><stop offset="0.94663" stop-color="#ffffff" stop-opacity="0.1991"/><stop offset="1" stop-color="#ffffff" stop-opacity="0"/></linearGradient><linearGradient x1="164.66936" y1="179.86831" x2="267.28443" y2="171.16505" gradientUnits="userSpaceOnUse" id="color-15"><stop offset="0" stop-color="#ffffff" stop-opacity="0"/><stop offset="0.03714" stop-color="#ffffff" stop-opacity="0.17485"/><stop offset="0.08378" stop-color="#ffffff" stop-opacity="0.36634"/><stop offset="0.13301" stop-color="#ffffff" stop-opacity="0.53633"/><stop offset="0.18391" stop-color="#ffffff" stop-opacity="0.67953"/><stop offset="0.23696" stop-color="#ffffff" stop-opacity="0.79621"/><stop offset="0.2928" stop-color="#ffffff" stop-opacity="0.88639"/><stop offset="0.35272" stop-color="#ffffff" stop-opacity="0.95031"/><stop offset="0.41961" stop-color="#ffffff" stop-opacity="0.9881"/><stop offset="0.50771" stop-color="#ffffff"/><stop offset="0.56376" stop-color="#ffffff" stop-opacity="0.98259"/><stop offset="0.62491" stop-color="#ffffff" stop-opacity="0.93112"/><stop offset="0.6885" stop-color="#ffffff" stop-opacity="0.84548"/><stop offset="0.75373" stop-color="#ffffff" stop-opacity="0.72557"/><stop offset="0.8203" stop-color="#ffffff" stop-opacity="0.57116"/><stop offset="0.88792" stop-color="#ffffff" stop-opacity="0.38219"/><stop offset="0.95514" stop-color="#ffffff" stop-opacity="0.16314"/><stop offset="1" stop-color="#ffffff" stop-opacity="0"/></linearGradient><linearGradient x1="138.23144" y1="222.36169" x2="272.11411" y2="206.2784" gradientUnits="userSpaceOnUse" id="color-16"><stop offset="0" stop-color="#ffffff" stop-opacity="0"/><stop offset="0.00088" stop-color="#ffffff" stop-opacity="0.00595"/><stop offset="0.03722" stop-color="#ffffff" stop-opacity="0.23587"/><stop offset="0.07438" stop-color="#ffffff" stop-opacity="0.43939"/><stop offset="0.11162" stop-color="#ffffff" stop-opacity="0.61136"/><stop offset="0.14892" stop-color="#ffffff" stop-opacity="0.75177"/><stop offset="0.18629" stop-color="#ffffff" stop-opacity="0.86063"/><stop offset="0.2238" stop-color="#ffffff" stop-opacity="0.9382"/><stop offset="0.26156" stop-color="#ffffff" stop-opacity="0.98462"/><stop offset="0.29995" stop-color="#ffffff"/><stop offset="0.59569" stop-color="#ffffff" stop-opacity="0"/></linearGradient><linearGradient x1="12939.18533" y1="9844.55337" x2="24328.73691" y2="12024.73776" gradientUnits="userSpaceOnUse" id="color-17"><stop offset="0" stop-color="#ffffff" stop-opacity="0"/><stop offset="0.00088" stop-color="#ffffff" stop-opacity="0.00595"/><stop offset="0.03722" stop-color="#ffffff" stop-opacity="0.23587"/><stop offset="0.07438" stop-color="#ffffff" stop-opacity="0.43939"/><stop offset="0.11162" stop-color="#ffffff" stop-opacity="0.61136"/><stop offset="0.14892" stop-color="#ffffff" stop-opacity="0.75177"/><stop offset="0.18629" stop-color="#ffffff" stop-opacity="0.86063"/><stop offset="0.2238" stop-color="#ffffff" stop-opacity="0.9382"/><stop offset="0.26156" stop-color="#ffffff" stop-opacity="0.98462"/><stop offset="0.29995" stop-color="#ffffff"/><stop offset="0.59569" stop-color="#ffffff" stop-opacity="0"/></linearGradient><linearGradient x1="340.94607" y1="317.16244" x2="340.94607" y2="73.52892" gradientUnits="userSpaceOnUse" id="color-18"><stop offset="0" stop-color="#af6308" stop-opacity="0"/><stop offset="0.51046" stop-color="#af6308"/><stop offset="0.99444" stop-color="#af6308" stop-opacity="0"/><stop offset="1" stop-color="#af6308" stop-opacity="0"/></linearGradient><linearGradient x1="36737.52056" y1="36957.76602" x2="36737.52056" y2="21571.62634" gradientUnits="userSpaceOnUse" id="color-19"><stop offset="0" stop-color="#af6308" stop-opacity="0"/><stop offset="0.51046" stop-color="#af6308"/><stop offset="0.99444" stop-color="#af6308" stop-opacity="0"/><stop offset="1" stop-color="#af6308" stop-opacity="0"/></linearGradient><linearGradient x1="24232.22937" y1="5947.53831" x2="24232.22937" y2="5344.16224" gradientUnits="userSpaceOnUse" id="color-20"><stop offset="0" stop-color="#af6308" stop-opacity="0"/><stop offset="0.51046" stop-color="#af6308"/><stop offset="0.99444" stop-color="#af6308" stop-opacity="0"/><stop offset="1" stop-color="#af6308" stop-opacity="0"/></linearGradient></defs><g transform="translate(177.52988,73.34408)"><g data-paper-data="{&quot;isPaintingLayer&quot;:true}" fill-rule="nonzero" stroke-miterlimit="10" stroke-dasharray="" stroke-dashoffset="0" style="mix-blend-mode: normal"><path d="M-153.59404,418.07509c-13.2194,0 -23.93584,-10.71644 -23.93584,-23.93583v-443.54751c0,-13.21939 10.71644,-23.93583 23.93584,-23.93583h827.18809c13.21939,0 23.93583,10.71644 23.93583,23.93583v443.54751c0,13.2194 -10.71644,23.93583 -23.93583,23.93583z" fill-opacity="0.10588" fill="#ffffff" stroke="none" stroke-width="0" stroke-linecap="butt" stroke-linejoin="miter"/><path d="M307.20512,108.98704l0.60125,-18.63886c-8.11693,-2.70564 -14.4301,-14.7307 -14.73072,-15.63258c-0.30062,-0.90188 4.81003,-3.60752 7.51567,-7.51567c2.70564,-3.90815 -1.80377,-12.3257 -4.50941,-17.13573c-2.70564,-4.81003 -6.91443,-7.81629 -11.1232,-7.81629c-4.20877,0 -12.62633,-1.50313 -15.03134,-5.41128c-2.40502,-3.90815 -3.60752,-14.43009 -3.00626,-18.63886c0.60126,-4.20877 20.142,-12.02506 37.27773,-17.73697c17.13572,-5.7119 25.25264,-7.51567 28.25891,-6.61378c3.00628,0.90188 6.6138,14.43009 6.91443,18.33824c0.30062,3.90815 -3.3069,13.22758 -2.40502,17.13573c0.90189,3.90815 18.33824,18.03761 25.85391,23.74951c7.51567,5.7119 24.95203,11.42381 24.95203,11.42381c0,0 1.20251,6.01252 -8.11692,18.0376c-9.31943,12.02506 -24.05014,15.63258 -24.05014,15.63258l-6.31316,-3.3069c-13.22757,19.24011 -42.08775,14.12945 -42.08775,14.12945z" fill="#52f752" stroke="none" stroke-width="0" stroke-linecap="butt" stroke-linejoin="miter"/><path d="M380.53699,80.35949c0,0 -28.22078,-16.32717 -37.62536,-36.92767c0,0 8.95674,4.9262 18.80916,11.19592c9.85242,6.26972 27.66727,9.55321 27.66727,9.55321c0,0 -1.67863,9.66601 -8.85107,16.17852z" fill="#af6308" stroke="none" stroke-width="0" stroke-linecap="butt" stroke-linejoin="miter" opacity="0.4" style="mix-blend-mode: multiply"/><path d="M268.98697,16.37991c0,0 6.52274,-2.3719 9.19113,12.74899c0,0 16.60333,-5.92976 29.05583,-0.88946c12.4525,5.0403 20.45768,18.67873 26.38743,32.02069c5.92975,13.34196 15.67153,34.59746 15.67153,34.59746c0,0 -4.40498,5.4284 -7.07338,6.91084c0,0 -17.49279,-17.1963 -21.64363,-27.57337c-4.15084,-10.37707 -17.49279,-16.60332 -17.49279,-16.60332l-13.34197,-16.89981l-17.1963,1.18595c0,0 -9.48761,-15.41737 -3.55785,-25.49796z" fill="#af6308" stroke="none" stroke-width="0" stroke-linecap="butt" stroke-linejoin="miter" opacity="0.4" style="mix-blend-mode: multiply"/><path d="M84.35595,224.36038c0,0 11.28274,-11.98791 21.15513,-14.80859c0,0 -26.7965,-16.21893 -34.5534,-37.37407c-7.75688,-21.15513 -9.8724,-50.06715 -9.8724,-50.06715l11.98791,-11.98791c0,0 9.8724,-2.11551 15.51377,2.82068c5.64137,4.9362 44.4258,26.79649 77.56884,31.73269c33.14304,4.9362 66.99127,-7.75688 85.32572,-23.97581c18.33445,-16.21893 19.74479,-24.68098 28.91202,-33.8482c9.16722,-9.16722 11.98791,-11.98791 16.21894,-14.80859c4.23103,-2.82068 7.75688,-4.9362 6.34654,-9.87239c-1.41034,-4.9362 -7.75688,-16.9241 -10.57757,-19.03961c-2.82068,-2.11551 -9.8724,-3.52585 -12.69308,-2.82068c-2.82068,0.70517 -9.16722,1.41034 -11.28274,-7.05171c-2.11551,-8.46205 -3.52586,-18.33444 6.34654,-23.27064c9.8724,-4.9362 43.01546,-15.51376 49.362,-16.9241c6.34654,-1.41034 14.10342,2.11551 14.80859,9.16722c0.70517,7.05171 -4.23103,15.51376 -2.82068,21.15513c1.41034,5.64137 8.46205,16.9241 12.69308,21.15513c4.23103,4.23103 21.15513,15.51376 43.01546,20.44996c21.86031,4.9362 45.13097,19.03961 55.70854,46.54129c10.57757,27.50166 23.27065,64.17057 5.64137,111.41703c-17.62928,47.24647 -46.54131,88.14638 -94.49295,110.00669c-47.95165,21.8603 -90.96709,20.44996 -117.05844,7.75688c-26.09133,-12.69308 -43.01546,-30.32235 -43.01546,-30.32235l-1.41034,-17.62927c0,0 -40.19477,-2.82068 -67.69645,-14.10342c-27.50167,-11.28273 -31.7327,-19.03961 -37.37409,-25.38615c-5.64139,-6.34654 -9.8724,-10.57756 -9.8724,-10.57756l2.11551,-18.33444z" fill="#ffe652" stroke="none" stroke-width="0" stroke-linecap="butt" stroke-linejoin="miter"/><path d="M303.8039,58.93657l2.95068,35.40811c-1.10651,-4.79486 -8.11436,-22.13007 -8.11436,-22.13007z" fill="#af6308" stroke="none" stroke-width="0" stroke-linecap="butt" stroke-linejoin="miter" opacity="0.4" style="mix-blend-mode: multiply"/><path d="M277.44257,41.2485c0,0 21.04199,-2.92388 26.09102,-2.92388c5.04903,0 13.46409,4.62828 21.45841,13.88485c7.9943,9.25656 23.08823,33.05444 23.95633,41.35164" fill="none" stroke="#000000" stroke-width="4.08582" stroke-linecap="round" stroke-linejoin="round"/><path d="M204.52606,285.23123l4.0167,14.39315l-6.35976,9.37229l-6.02504,-1.3389l1.67363,-24.10015z" fill="#000000" stroke="none" stroke-width="0" stroke-linecap="butt" stroke-linejoin="miter"/><path d="M89.72464,220.11415l4.34238,15.71883l-6.87541,10.23552l-6.51356,-1.46221l2.00455,-23.6071z" fill="#000000" stroke="none" stroke-width="0" stroke-linecap="butt" stroke-linejoin="miter"/><path d="M78.44188,113.62483l-7.06233,11.94263l-10.98531,0.47182l-3.36444,-5.71048l17.80198,-13.16101z" fill="#000000" stroke="none" stroke-width="0" stroke-linecap="butt" stroke-linejoin="miter"/><path d="M289.74114,40.69195c0,0 18.45518,-2.84708 24.60238,2.07067c6.14721,4.91775 11.06496,15.16309 15.98272,24.9986c4.91777,9.83551 3.1201,12.02224 7.62805,20.62832c4.50794,8.60608 8.05764,5.75545 18.41745,21.48701c5.94639,9.02971 9.89776,18.6464 11.1272,39.13706c1.22944,20.49066 -22.64648,56.74679 -25.44149,60.16291c-12.62283,15.42789 -8.44491,17.99129 -46.98498,7.71395c-31.55709,-8.41521 -13.90532,-54.83117 -13.90532,-54.83117c0,0 49.09929,-54.13018 26.09138,-102.06332c-9.20873,-19.18485 -15.73158,-20.33594 -17.51741,-19.30406z" fill="url(#color-1)" stroke="none" stroke-width="0" stroke-linecap="butt" stroke-linejoin="miter" opacity="0.5"/><path d="M272.19147,19.30799c2.37096,-3.55738 10.446,-5.94681 34.2491,-14.26356c3.5774,-1.24994 10.77524,-4.11046 17.89203,-5.49428c5.16212,-1.00376 6.65221,0.47313 8.69511,5.43443c1.52164,3.69543 0.68091,7.47264 -1.73902,15.21643c-2.41995,7.74379 0.59457,11.16805 5.43443,18.91184c4.83986,7.74379 8.10479,12.06915 18.26849,17.877c10.16371,5.80785 24.08461,10.7663 32.79636,12.21826c8.71175,1.45196 14.27278,4.64028 24.43651,10.93211c10.16372,6.29183 20.07388,18.11769 26.36571,32.15329c6.29183,14.03561 16.23574,45.29903 16.71972,55.94673c0.48399,10.6477 -39.70268,-1.82007 -55.19025,-9.07987c-15.48757,-7.2598 -26.13528,-28.07121 -30.97514,-39.2029c-4.83986,-11.13169 -5.77966,-15.27497 -12.55547,-22.53478c-6.7758,-7.2598 2.0821,-14.5747 -32.01227,-53.35378c-5.89258,-6.70224 -14.54454,-10.41377 -22.07709,-10.73688c-4.3485,-0.18652 -8.65102,-0.04007 -12.85479,0.91527c-3.13145,0.71163 -7.65564,0.79799 -10.91867,0.64812c-6.09351,-0.27993 -9.81141,-10.66607 -6.53476,-15.58743z" fill="url(#color-2)" stroke="none" stroke-width="0" stroke-linecap="butt" stroke-linejoin="miter"/><path d="M305.16213,68.07108c0,0 3.7311,7.34961 4.69907,19.93326c0.96797,12.58365 -2.41993,25.1673 -15.02358,45.45528c-12.60365,20.28799 -28.05123,39.72632 -42.08684,43.59821c-14.03561,3.87189 -25.65129,-31.45911 -25.65129,-31.45911c0,0 9.19575,-3.3879 25.65129,-15.97155c16.45554,-12.58365 24.68332,-26.61924 30.00716,-34.84701c5.32385,-8.22778 8.71176,-9.67973 15.48757,-14.03561c6.7758,-4.35587 6.91661,-12.67346 6.91661,-12.67346z" fill="url(#color-3)" stroke="none" stroke-width="0" stroke-linecap="butt" stroke-linejoin="miter"/><path d="M205.3653,293.81622c0,0 13.86697,18.75584 72.94328,13.26037c70.48789,-6.55701 99.99444,-47.53833 99.99444,-47.53833c0,0 21.68389,-20.94646 27.02821,-38.31544c0,0 30.28437,8.46181 31.62044,26.27613c0,0 -22.71328,42.7544 -57.8966,66.80374c-35.18332,24.04934 -81.5006,34.29259 -110.89424,28.50293c-29.39364,-5.78966 -38.30082,-15.14218 -48.54408,-24.4947c-10.24326,-9.35252 -18.2597,-14.25147 -18.2597,-14.25147l4.00823,-10.24324z" fill="url(#color-4)" stroke="none" stroke-width="0" stroke-linecap="butt" stroke-linejoin="miter" opacity="0.56"/><path d="M194.69776,286.91338c0,0 -36.54402,-3.97218 -54.28641,-9.26841c-17.74239,-5.29623 -32.83666,-14.29982 -37.86807,-20.12568c-5.03143,-5.82585 -8.47397,-11.12208 -10.85728,-12.97577c-2.38331,-1.85369 -4.50181,-6.35548 -4.50181,-8.73879c0,-2.38331 1.85369,-11.65171 1.85369,-11.65171c0,0 47.66611,23.03861 93.21372,19.33125c45.54761,-3.70736 90.03598,-14.82945 115.1931,-51.63826c25.15711,-36.80881 44.75317,30.45333 39.98656,37.33843c-4.76661,6.8851 -40.25138,32.57183 -52.43272,36.80881c-12.18133,4.23698 -22.509,4.5018 -36.0144,6.8851c-13.5054,2.3833 -24.89229,4.23698 -33.63108,6.8851c-8.73879,2.64812 -17.74239,-0.52962 -20.65531,7.14992z" fill="url(#color-5)" stroke="none" stroke-width="0" stroke-linecap="butt" stroke-linejoin="miter" opacity="0.45"/><path d="M112.99718,204.30856c0,0 -19.94512,-11.08061 -30.47171,-26.03945c-10.52659,-14.95883 -12.74271,-29.36364 -13.85078,-37.67409c-1.10807,-8.31045 -2.77016,-17.72898 -2.77016,-17.72898l8.8645,-7.75644c0,0 4.98628,-0.55403 9.41853,2.21612c4.43225,2.77015 50.41683,37.67409 99.72559,33.79589c49.30877,-3.87822 64.82164,18.83705 63.71357,24.37736c-1.10807,5.54031 -2.21612,6.09434 -8.8645,9.97256c-6.64838,3.87822 -40.44427,14.95883 -66.48373,18.83705c-26.03946,3.87822 -59.28133,0 -59.28133,0z" fill="url(#color-6)" stroke="none" stroke-width="0" stroke-linecap="butt" stroke-linejoin="miter" opacity="0.56"/><path d="M356.43419,88.97111c0,0 36.05769,4.6526 46.52606,47.68919c10.46837,43.03659 1.26281,108.80413 -59.22106,138.46447c-60.48387,29.66034 -28.59687,-15.17048 -28.59687,-15.17048c0,0 38.384,-18.02884 52.92338,-51.76022c14.53939,-33.73138 25.58932,-77.34953 -11.63151,-117.47824" fill="url(#color-7)" stroke="none" stroke-width="0" stroke-linecap="butt" stroke-linejoin="miter"/><path d="M314.9256,89.95803c0,0 18.70686,19.98715 8.01666,64.80131c-15.54286,65.15692 -93.81319,78.43491 -93.81319,78.43491l3.62578,-36.34746c0,0 80.1666,-29.39441 82.17076,-106.88875z" fill="url(#color-8)" stroke="none" stroke-width="0" stroke-linecap="butt" stroke-linejoin="miter"/><path d="M289.34702,40.58618c0,0 6.14782,-3.16872 13.82253,-1.78671c8.63739,1.55535 17.37004,6.79978 21.26911,12.9269c3.89906,6.12711 6.1271,12.25422 10.58318,19.49535c4.45609,7.24113 10.02618,15.59627 14.48226,21.72339c4.45609,6.12711 16.15329,18.38133 21.72339,28.40751c5.5701,10.02617 5.01308,41.21872 1.11402,56.25799c-3.89906,15.03927 -19.49536,41.21874 -31.19256,44.00378c-11.6972,2.78504 -72.4113,-59.04305 -70.74027,-59.60005c1.67103,-0.55701 10.5832,-7.24113 21.72339,-22.8374c11.14019,-15.59627 15.59628,-46.78882 16.15329,-59.04305c0.55701,-12.25422 -3.89908,-12.25422 -7.79814,-21.72339c-3.89906,-9.46916 -11.14019,-17.82431 -11.14019,-17.82431z" fill="url(#color-9)" stroke="none" stroke-width="0" stroke-linecap="butt" stroke-linejoin="miter"/><path d="M304.0599,60.99325c0,0 7.95143,23.24265 1.83495,44.65034c-6.11648,21.4077 -7.95143,26.30088 -17.73781,38.53386c-9.78638,12.23298 -11.62133,13.45627 -18.96111,20.1844c-7.33978,6.72813 -14.06791,15.29121 -20.79606,14.67956c-6.72815,-0.61165 -21.40771,-8.56308 -26.91254,-17.73781c-5.50483,-9.17473 -4.28155,-22.01935 -4.28155,-22.01935c0,0 32.41739,-14.06791 41.59212,-23.85428c9.17473,-9.78638 15.90286,-22.01935 19.57276,-26.30088c3.6699,-4.28153 7.33978,-7.33978 12.23298,-11.00968c4.8932,-3.6699 13.45628,-17.12616 13.45628,-17.12616z" fill="url(#color-10)" stroke="none" stroke-width="0" stroke-linecap="butt" stroke-linejoin="miter"/><path d="M89.92096,222.44316c-2.95004,-4.42507 11.80018,-11.80018 18.19195,-14.25855c6.39177,-2.45837 23.60037,0.49169 31.46717,-0.49167c7.8668,-0.98336 24.09207,-0.98336 41.79234,-3.9334c17.70027,-2.95004 32.94218,-5.9001 46.21739,-11.80018c13.27521,-5.90008 27.04209,-14.25855 43.75902,-28.02543c16.71694,-13.76688 22.12535,-24.09203 33.43387,-48.18407c11.30851,-24.09204 2.45837,-53.5925 2.45837,-53.5925c21.142,42.28397 -10.32515,96.36814 -47.20075,120.46019c-36.87559,24.09204 -79.65127,28.02543 -96.3682,29.50045c-16.71694,1.47503 -48.18411,0.98334 -53.59252,1.9667c-5.40841,0.98336 -20.15865,8.35847 -20.15865,8.35847z" fill="#ffffff" stroke="none" stroke-width="0" stroke-linecap="butt" stroke-linejoin="miter"/><path d="M76.33099,116.11844c0,0 8.18563,-4.28772 12.25599,-3.17512c4.07036,1.1126 13.47027,8.24241 21.26609,13.30971c7.79583,5.0673 20.65895,10.13459 30.01395,13.25292c9.355,3.11834 33.13228,6.62647 46.3852,7.40604c13.25292,0.77958 32.7425,-6.62645 52.62188,-17.54062c19.87938,-10.91417 17.15083,-12.47332 25.72625,-21.43854c8.57542,-8.96522 14.03252,-17.93042 15.79321,-21.08083c1.76069,-3.15042 8.76367,-7.37395 13.83097,-10.88208c5.0673,-3.50812 9.7448,-10.13457 9.7448,-10.13457c0,0 -0.40199,0.88114 -1.18157,2.83009c-0.77958,1.94895 -10.7468,10.27458 -16.59367,15.73166c-5.84688,5.45708 -11.45913,29.38261 -44.20163,50.82115c-32.7425,21.43854 -62.36667,19.48959 -95.88875,12.08354c-33.52208,-7.40603 -58.07895,-27.2854 -61.91611,-29.97607c-3.83716,-2.69068 -7.85659,-1.20725 -7.85659,-1.20725z" fill="#ffffff" stroke="none" stroke-width="0" stroke-linecap="butt" stroke-linejoin="miter"/><path d="M205.05674,287.8459c0,0 9.01193,-4.70187 16.06475,-7.44463c7.05282,-2.74276 17.63205,-4.70187 30.17039,-6.66098c12.53834,-1.95911 33.30496,-7.83645 48.19425,-12.93015c14.88929,-5.0937 34.87226,-19.98297 52.89612,-41.92506c18.02386,-21.94208 25.07668,-62.29986 22.33392,-83.4583c-2.74276,-21.15843 -20.37481,-41.53323 -20.37481,-41.53323c38.39867,28.60308 29.77855,78.75642 15.2811,112.06138c-14.49745,33.30495 -41.53326,51.72064 -74.05458,63.47533c-25.31889,9.1514 -51.32884,10.97104 -63.08353,12.93015c-11.75469,1.95911 -27.42763,5.48552 -27.42763,5.48552z" fill="#ffffff" stroke="none" stroke-width="0" stroke-linecap="butt" stroke-linejoin="miter"/><path d="M193.73437,287.22722l0.4741,4.74103c0,0 -18.7271,-1.18527 -25.83866,-2.13347c-7.11155,-0.94821 -10.90439,-1.89641 -17.54183,-3.79282c-6.63744,-1.89641 -15.17131,-4.74105 -23.94223,-8.53387c-8.77092,-3.79282 -17.06773,-8.77091 -21.57171,-11.85259c-4.50399,-3.08168 -10.66733,-11.3785 -12.3267,-14.93427c-1.65937,-3.55576 -4.50399,-5.68923 -4.50399,-5.68923l1.89641,-2.13347c0,0 7.11156,7.11156 11.85259,13.03785c4.74103,5.92629 16.7527,11.85581 32.9502,19.20119c20.38645,9.24501 58.5518,12.08963 58.5518,12.08963z" fill="#fff064" stroke="none" stroke-width="0" stroke-linecap="butt" stroke-linejoin="miter"/><path d="M200.25638,308.0431c0,0 6.80096,-0.40005 13.60192,6.80096c6.80096,7.20101 40.1817,31.0629 83.61175,27.60386c45.20635,-3.60051 90.01264,-30.00421 113.21589,-58.40818c23.20326,-28.40397 47.20663,-70.40986 43.60612,-119.2167c-2.71354,-36.78339 -21.60304,-71.61004 -21.60304,-71.61004c0,0 17.20241,22.8032 24.00337,44.40623c6.80096,21.60303 6.00085,55.20773 -2.00029,84.01177c-8.00114,28.80404 -28.40398,58.40818 -47.60668,76.41071c-19.2027,18.00253 -42.0059,33.60471 -54.80769,39.20549c-12.80179,5.60078 -42.40596,13.20184 -53.60753,14.80208c-11.20157,1.60022 -49.60697,-7.20101 -56.40793,-10.00141c-6.80096,-2.8004 -25.6036,-18.00253 -29.20411,-22.00309c-3.60051,-4.00056 -12.80179,-12.00168 -12.80179,-12.00168z" fill="#fff064" stroke="none" stroke-width="0" stroke-linecap="butt" stroke-linejoin="miter"/><path d="M116.18345,205.63318c0.81128,2.63667 -10.54666,2.63667 -10.54666,2.63667c0,0 -12.16922,-6.28744 -20.07922,-14.19743c-7.90999,-7.90999 -8.11281,-11.56076 -12.9805,-20.48485c-4.86769,-8.92409 -8.72127,-31.84279 -8.72127,-36.71047c0,-4.86768 -0.40564,-9.53255 -0.40564,-9.53255l3.04231,-0.81128c0,0 1.41975,6.69307 2.83949,15.21152c1.41974,8.51845 4.05641,20.48485 12.77768,34.27664c8.72129,13.79179 34.07383,29.61177 34.07383,29.61177z" fill="#fff064" stroke="none" stroke-width="0" stroke-linecap="butt" stroke-linejoin="miter"/><path d="M203.45016,291.10352l-3.09353,-5.65732c0,0 12.06043,-3.30955 30.38407,-7.20821c18.32364,-3.89865 32.74862,-5.4581 48.73309,-9.74662c15.98447,-4.28852 38.59662,-19.8831 56.5304,-34.30809c17.93378,-14.42499 35.08783,-46.3939 37.81688,-77.1932c2.72905,-30.7993 -17.54391,-60.42901 -17.54391,-60.42901c24.95135,12.86553 41.09565,43.76407 33.29835,89.76809c-7.79729,46.00402 -37.61702,80.21942 -95.28684,96.97706c-37.54449,10.90964 -90.83849,7.79729 -90.83849,7.79729z" fill="#ffffff" stroke="none" stroke-width="0" stroke-linecap="butt" stroke-linejoin="miter" opacity="0.5" style="mix-blend-mode: overlay"/><path d="M110.07972,207.10588c2.23613,-0.74539 9.68991,-0.74539 29.06977,-0.74539c19.37986,0 66.33871,2.98151 111.80682,-27.579c45.4681,-30.56051 58.13954,-74.53785 58.13954,-74.53785c2.07307,56.70536 -43.63403,103.85856 -106.24585,116.53c-62.61181,12.67144 -108.42323,-5.46859 -108.42323,-5.46859c0,0 13.41683,-7.45378 15.65296,-8.19917z" fill="#ffffff" stroke="none" stroke-width="0" stroke-linecap="butt" stroke-linejoin="miter" opacity="0.5" style="mix-blend-mode: overlay"/><path d="M76.53769,113.18819l10.4353,-2.98151c0,0 13.41683,10.43529 31.30591,20.12522c17.8891,9.68991 53.66728,16.39832 67.0841,16.39832c13.41681,0 41.74121,-9.68992 55.15802,-18.63446c13.41681,-8.94454 26.83364,-24.59749 35.77818,-37.26893c8.94454,-12.67142 15.65296,-13.41681 15.65296,-13.41681c-4.47227,5.96303 -6.7364,18.06209 -15.68096,35.95118c-8.94456,17.88909 -32.91587,47.61773 -99.25458,49.85388c-64.27807,2.16667 -100.47895,-50.02688 -100.47895,-50.02688z" fill="#ffffff" stroke="none" stroke-width="0" stroke-linecap="butt" stroke-linejoin="miter" opacity="0.5" style="mix-blend-mode: overlay"/><path d="M266.78277,25.89715c0,0 1.71788,8.58941 3.92658,12.02516c2.20869,3.43575 6.64047,3.02215 10.7981,2.20871c11.28893,-2.20871 30.92185,-8.34399 47.119,15.95173" fill="none" stroke="#000000" stroke-width="3.5" stroke-linecap="round" stroke-linejoin="round"/><path d="M273.9647,14.97134c0,0 -6.27946,2.51179 -3.86428,12.65553c2.41518,10.14374 -2.8016,-0.86947 -3.09143,-4.63714c-0.28983,-3.76767 -0.86947,-5.98965 1.44911,-7.63197c2.31858,-1.64232 5.50661,-0.38643 5.50661,-0.38643z" fill="#000000" stroke="none" stroke-width="0" stroke-linecap="butt" stroke-linejoin="miter"/><path d="M270.48686,29.1726c0,0 1.35249,10.04714 11.49625,7.9218c10.14376,-2.12536 11.10983,0.38643 11.10983,0.38643c0,0 -6.18286,1.44911 -9.95055,2.22196c-3.76769,0.77285 -8.21161,1.93215 -10.43357,-0.19321c-2.22196,-2.12536 -4.0575,-8.11501 -2.22196,-10.33697z" fill="#000000" stroke="none" stroke-width="0" stroke-linecap="butt" stroke-linejoin="miter"/><path d="M200.96245,306.38297c0,0 -3.76347,-12.826 5.61804,-4.92579c23.48998,19.78103 81.86506,16.1119 132.24161,-3.92423c75.34696,-29.96752 92.20908,-86.01164 84.50315,-150.22776c-4.18941,-34.91181 -24.60414,-55.08648 -42.78826,-66.94569c6.72022,-8.30145 8.85107,-16.17852 8.85107,-16.17852c0,0 42.53885,4.71462 62.44551,58.97196c14.5499,39.65699 16.26809,72.77829 -3.42486,116.44525c-19.69295,43.66696 -59.93507,81.34044 -95.89613,96.75231c-35.96104,15.41187 -110.45179,28.25509 -151.55012,-29.96752z" fill="url(#color-11)" stroke="none" stroke-width="0" stroke-linecap="butt" stroke-linejoin="miter" style="mix-blend-mode: overlay"/><path d="M70.18472,122.5067c0,0 19.65979,41.54385 76.78615,53.24442c57.12637,11.70058 136.37825,-30.69266 146.01403,-38.26362c0,0 -12.07086,31.41426 -59.6803,51.78132c-20.11062,8.60321 -43.36098,15.83019 -72.95658,17.20673c-29.5956,1.37654 -55.74984,2.06481 -55.74984,2.06481c0,0 -26.84252,-12.38885 -35.10175,-39.91961c-8.25923,-27.53078 -11.01232,-47.49059 -11.01232,-47.49059l11.70059,1.37654z" fill="url(#color-12)" stroke="none" stroke-width="0" stroke-linecap="butt" stroke-linejoin="miter" style="mix-blend-mode: overlay"/><path d="M281.56918,23.01536c0,0 9.78833,-3.91533 12.9206,-5.08993" fill="none" stroke="#ffffff" stroke-width="4.40701" stroke-linecap="round" stroke-linejoin="round"/><path d="M306.0017,300.50231c0,0 93.4347,-25.289 99.45539,-118.40902c0,0 33.93674,-13.95052 47.91321,11.67302c0,0 -11.64707,92.24476 -96.90362,133.24242l-50.46501,-26.50642z" fill="url(#color-13)" stroke="none" stroke-width="0" stroke-linecap="butt" stroke-linejoin="miter" opacity="0.75"/><path d="M165.28274,227.07473c0,0 81.61379,39.89177 146.61275,-46.2576c0,0 37.42686,8.28473 35.13242,37.38186c0,0 -60.15572,70.89456 -153.96155,58.64898z" fill="url(#color-14)" stroke="none" stroke-width="0" stroke-linecap="butt" stroke-linejoin="miter" opacity="0.75"/><path d="M116.03641,147.95406c0,0 71.39992,55.949 154.7475,-12.60582c0,0 19.93711,-3.78419 10.89997,23.96897c0,0 -59.92128,80.73322 -148.2601,46.88448l-17.38735,-58.24763z" fill="url(#color-15)" stroke="none" stroke-width="0" stroke-linecap="butt" stroke-linejoin="miter" opacity="0.75"/><path d="M114.85835,208.17156c0,0 30.90623,3.61242 68.23452,-1.20414c37.3283,-4.81654 67.43176,-24.48414 67.43176,-24.48414c0,0 7.62622,7.22481 6.0207,27.69517c-1.60553,20.47036 -30.50484,26.08966 -30.50484,26.08966c-68.23452,18.06207 -123.22351,-6.42207 -123.22351,-6.42207c-17.6607,-16.85793 12.04138,-21.67449 12.04138,-21.67449z" fill="url(#color-16)" stroke="none" stroke-width="0" stroke-linecap="butt" stroke-linejoin="miter" opacity="0.25"/><path d="M60.83155,129.26262c-6.16062,-23.62491 25.21167,-17.38734 25.21167,-17.38734c0,0 8.79078,4.51763 43.07653,20.04464c34.28575,15.52701 70.23313,14.62265 70.23313,14.62265c0,0 20.9806,-3.72348 14.48742,15.75603c-2.60811,7.82432 -18.69141,15.21393 -64.76791,12.17115c-46.07651,-3.0428 -88.24084,-45.20712 -88.24084,-45.20712z" fill="url(#color-17)" stroke="none" stroke-width="0" stroke-linecap="butt" stroke-linejoin="miter" opacity="0.25"/><path d="M319.94296,48.00195c0,0 3.75183,12.53534 6.08293,20.30565c2.3311,7.77031 17.48322,22.92243 22.92243,25.25352c5.43922,2.3311 20.59135,19.81431 24.86502,42.73673c4.27367,22.92243 -0.77704,60.21994 -27.97314,92.07824c-27.19612,31.8583 -74.20655,42.73673 -104.51079,47.01042c-30.30424,4.27367 -33.02386,8.54735 -36.13198,8.54735c-3.10812,0 -5.82774,-1.94259 -6.99329,-0.38851c-1.16555,1.55408 -2.71961,13.59805 -2.71961,13.59805" fill="none" stroke="#000000" stroke-width="4.08582" stroke-linecap="round" stroke-linejoin="round"/><path d="M286.10766,42.20928c0,0 7.82667,2.79524 12.29907,10.06287c4.4724,7.26763 12.85813,21.24384 8.94479,49.75531c-3.91334,28.51148 -30.18862,63.73152 -65.40869,82.73917c-35.22007,19.00765 -88.88873,24.0391 -110.13259,22.92099c-21.24385,-1.1181 -30.74768,2.23619 -30.74768,2.23619" fill="none" stroke="#000000" stroke-width="3.70847" stroke-linecap="round" stroke-linejoin="round"/><path d="M319.18336,46.04158c0,0 10.52276,13.07372 19.13228,26.4663c8.60952,13.39258 7.33403,20.08888 7.33403,20.08888c0,0 -11.1605,-10.84162 -17.53792,-19.45113c-6.37743,-8.60951 -8.92839,-27.10404 -8.92839,-27.10404z" fill="#000000" stroke="#000000" stroke-width="1.17629" stroke-linecap="butt" stroke-linejoin="miter"/><path d="M80.42645,241.27284c-0.58078,-8.13082 1.06291,-20.14145 3.96676,-21.303c2.90385,-1.16154 3.10126,-0.47077 9.67381,-4.69598c4.68615,-3.01251 12.38481,-5.69031 12.38481,-5.69031c-40.50165,-21.42236 -44.31814,-64.60273 -44.89891,-74.47587c-0.58078,-9.87314 -2.90387,-11.03468 -4.06541,-13.93853c-1.16154,-2.90385 9.87314,-10.4539 12.777,-12.19623c2.90385,-1.74232 4.06541,1.16154 6.3885,1.74232c2.32309,0.58078 5.22695,1.16154 6.96928,0.58078c1.74232,-0.58076 9.29237,4.06541 19.74627,9.87314c10.45391,5.80773 35.42714,23.2309 78.98509,24.39244c43.55796,1.16154 74.33892,-27.29631 83.63127,-38.91175c9.29237,-11.61545 13.49293,-20.36729 20.46221,-26.17501c6.96928,-5.80772 11.50132,-6.47565 13.77493,-13.04994c2.73763,-7.916 -1.71386,-14.20612 -6.94082,-21.1754c-5.22695,-6.96928 -14.51932,-3.48463 -19.74627,-4.64617c-5.22695,-1.16154 -8.71159,-16.8424 -6.96928,-23.81168c1.74231,-6.96928 40.65409,-18.58472 55.17341,-23.2309c14.51932,-4.64617 16.26164,6.3885 17.42319,10.4539c1.16154,4.06541 -0.58078,11.61545 -2.90387,16.8424c-2.32309,5.22695 5.22695,13.93853 11.61545,22.06935c6.3885,8.13082 34.84637,19.74627 44.13872,20.32705c9.29237,0.58078 32.75675,9.96577 45.39183,30.42258c15.87146,25.69664 44.51162,80.14695 5.35004,155.45854c-38.98484,74.97169 -114.04611,105.66671 -163.41178,100.43976c-49.36569,-5.22695 -72.01582,-33.6848 -74.91968,-37.16945c-2.90387,-3.48465 -6.3885,-4.06541 -8.13082,-5.22695c-1.74232,-1.16154 -0.58078,-14.51931 -0.58078,-14.51931c-53.43109,-1.74232 -89.28049,-24.24955 -95.44046,-29.79352c-7.77012,-6.9931 -7.66947,-11.53979 -12.17318,-15.28123c-4.73299,-3.9319 -6.34908,-4.8134 -6.34908,-4.8134l-1.32226,-2.49759z" fill="none" stroke="#000000" stroke-width="3.70847" stroke-linecap="round" stroke-linejoin="round"/><path d="M288.91027,261.66337c0,0 85.02232,-31.7127 83.96866,-111.80094c0,0 8.96294,87.7425 -83.96866,111.80094z" fill="#000000" stroke="#000000" stroke-width="1.17629" stroke-linecap="butt" stroke-linejoin="miter"/><path d="M204.52606,285.23123c0,0 4.04716,13.48822 4.0167,14.39315c-0.03046,0.90493 -5.45836,8.46521 -5.45836,8.46521c0,0 -4.07093,-1.35697 -4.26478,-1.93853c-0.19385,-0.58156 -1.74468,-0.96927 -1.55084,-6.20331c0.19385,-5.23403 1.35697,-14.73286 1.35697,-14.73286c0,0 1.33252,-2.68123 5.90031,0.01636z" fill="#000000" stroke="#000000" stroke-width="1.17629" stroke-linecap="butt" stroke-linejoin="miter"/><path d="M90.10187,220.58593c0,0 4.87692,15.2033 4.84645,16.10823c-0.03046,0.90493 -6.53459,8.73148 -6.53459,8.73148c0,0 -2.9947,-1.62326 -3.18857,-2.20482c-0.19386,-0.58156 -1.74468,-0.96927 -1.55084,-6.20331c0.19385,-5.23403 1.35697,-14.73286 1.35697,-14.73286c0,0 1.83837,-1.11105 5.07055,-1.69872z" fill="#000000" stroke="#000000" stroke-width="1.17629" stroke-linecap="butt" stroke-linejoin="miter"/><path d="M78.45741,115.2003c0,0 -4.78979,9.65528 -5.43674,10.23145c-0.64695,0.57617 -9.62637,1.64994 -9.62637,1.64994c0,0 -1.87416,-3.83999 -1.60587,-4.36457c0.26829,-0.52458 -0.53505,-1.902 3.21905,-5.22182c3.75409,-3.31983 8.02501,-5.01601 8.02501,-5.01601c0,0 4.13471,-2.36438 5.42491,2.72101z" fill="#000000" stroke="#000000" stroke-width="1.17629" stroke-linecap="butt" stroke-linejoin="miter"/><path d="M205.19743,283.93385c0,0 5.54026,12.11769 4.40394,14.95849c-1.13632,2.84081 -7.38612,11.07918 -7.38612,11.07918" fill="none" stroke="#000000" stroke-width="3.70847" stroke-linecap="round" stroke-linejoin="round"/><path d="M91.6914,217.84196c0,0 6.3188,16.47789 5.18247,19.3187c-1.13632,2.84081 -7.38612,11.07918 -7.38612,11.07918" fill="none" stroke="#000000" stroke-width="3.70847" stroke-linecap="round" stroke-linejoin="round"/><path d="M81.96083,113.77925c0,0 -7.33431,12.61856 -9.72938,13.43169c-2.39507,0.81313 -10.84162,1.36285 -10.84162,1.36285" fill="none" stroke="#000000" stroke-width="3.01609" stroke-linecap="round" stroke-linejoin="round"/><path d="M373.97047,75.00144c7.1862,3.47685 13.81609,8.05177 19.97146,13.15384c6.14921,5.11941 11.79738,10.86972 16.76911,17.17567c4.99805,6.28978 9.1726,13.22202 12.66503,20.46997c3.43261,7.28248 6.02141,14.96517 7.77579,22.83245c3.52115,15.74325 3.5612,32.21812 0.47322,48.05882c-3.14203,15.85025 -9.51772,30.97877 -18.18052,44.56838c-8.73744,13.56486 -19.70295,25.60143 -32.03179,35.91127c-12.34464,10.29488 -25.99048,19.03603 -40.56868,25.75944c-1.80216,0.88155 -3.66008,1.64595 -5.52624,2.3915l-5.5779,2.27453c-1.83396,0.82108 -3.79165,1.32312 -5.68603,1.98536l-5.72717,1.86471l-5.84622,1.4629l-2.92142,0.73026c-0.98062,0.21251 -1.97686,0.35696 -2.96426,0.53851l-5.93387,1.03523l-5.99489,0.60063c-8.00256,0.58944 -16.07626,0.3968 -23.98541,-0.91082c-7.87624,-1.33729 -15.70431,-3.55295 -22.65914,-7.49688c3.5283,1.86219 7.30961,3.17601 11.12938,4.25318l2.87482,0.78124l2.91417,0.61935c1.93055,0.46795 3.9108,0.67783 5.86848,0.98963c7.8691,1.05431 15.84632,0.99672 23.71093,0.1748l5.89204,-0.7136l5.82784,-1.13059c0.969,-0.19701 1.94576,-0.35645 2.90781,-0.58392l2.86587,-0.77468l5.72836,-1.54686l5.60861,-1.94436c1.85434,-0.68808 3.76739,-1.21342 5.5624,-2.05939l5.45359,-2.3445c1.82293,-0.76753 3.63751,-1.55313 5.40201,-2.45803c14.2093,-6.9857 27.68095,-15.51404 39.73423,-25.76312c12.0644,-10.21116 22.73518,-22.09822 31.20449,-35.40148c8.54921,-13.23235 14.85732,-27.95374 18.01825,-43.39446c3.15267,-15.43545 3.04982,-31.50003 -0.01182,-46.95812c-1.5719,-7.72251 -3.96347,-15.28824 -7.19662,-22.49318c-3.28753,-7.17446 -7.2797,-14.0541 -12.065,-20.36288c-9.46754,-12.6715 -21.54257,-23.55376 -35.48088,-31.29476z" fill="url(#color-18)" stroke="none" stroke-width="0" stroke-linecap="butt" stroke-linejoin="miter"/><path d="M337.06175,102.46454c0,0 29.47267,54.52444 -13.26271,104.62796c-42.73538,50.10352 -145.15295,65.57669 -195.25649,42.73536" fill="none" stroke="url(#color-19)" stroke-width="1" stroke-linecap="butt" stroke-linejoin="miter"/><path d="M275.21229,156.97868c0,0 -92.67609,63.30688 -177.5204,7.83177" fill="none" stroke="url(#color-20)" stroke-width="1" stroke-linecap="butt" stroke-linejoin="miter"/><path d="M413.65011,196.20937c-9.98294,-4.00777 -12.65668,-20.75494 -5.97197,-37.40586c6.68471,-16.65092 20.19652,-26.90021 30.17946,-22.89244c9.98294,4.00777 12.65668,20.75494 5.97197,37.40586c-6.68471,16.65092 -20.19652,26.90021 -30.17946,22.89244z" fill="#ffffff" stroke="none" stroke-width="0" stroke-linecap="butt" stroke-linejoin="miter"/><path d="M445.72507,174.07789c-4.93335,12.57826 -17.35051,29.48953 -32.98471,24.39825c-7.66807,-3.26673 -10.5834,-11.75977 -10.95102,-19.28975c-0.4229,-14.52317 5.56685,-28.85486 16.07567,-38.80399c8.69114,-8.46777 22.58436,-10.62397 28.66271,1.95571c4.62162,10.07734 2.90053,21.74185 -0.80267,31.73977zM441.93412,172.55599c4.29239,-10.44106 7.38662,-28.98474 -4.68818,-35.12064c-6.05031,-2.23427 -12.51286,1.35751 -16.95582,5.5725c-10.96746,10.73418 -17.88023,30.41644 -11.68289,45.02131c4.80888,9.9694 15.53273,7.11646 22.24719,0.68985c4.83877,-4.31934 8.4581,-10.07669 11.07971,-16.16302z" fill="#211500" stroke="none" stroke-width="0" stroke-linecap="butt" stroke-linejoin="miter"/><path d="M419.85171,151.53146c0.01366,-0.01444 0.03134,-0.02459 0.05171,-0.02685c6.43894,-1.61967 12.88914,-1.22356 19.34887,1.8731c0.02745,0.0128 0.04797,0.03696 0.05668,0.06653c0.9788,3.36862 1.22183,6.37378 1.0787,9.19744c-0.00244,0.04492 -0.03333,0.08354 -0.07678,0.09541c-1.02991,0.28784 -2.08445,0.50564 -3.15792,0.64156c-0.0628,0.00757 -0.11789,-0.04036 -0.11871,-0.10306c-0.0098,-0.96226 -0.09762,-1.9059 -0.26682,-2.84462c-0.01335,-0.07423 -0.0995,-0.1099 -0.16197,-0.06895c-0.18193,0.11938 -0.36956,0.23525 -0.55453,0.34383c-0.03413,0.02079 -0.05339,0.05816 -0.04948,0.09707c0.48324,5.86915 -1.52863,11.36953 -5.70659,15.60173c-0.02688,0.02765 -0.03626,0.06864 -0.02315,0.10531c0.07128,0.20225 0.13862,0.41145 0.20104,0.6188c0.02131,0.07161 0.1106,0.09872 0.16869,0.0506c0.72632,-0.61114 1.4109,-1.27229 2.04,-1.99946c0.04108,-0.04738 0.11332,-0.05011 0.15642,-0.00381c0.73729,0.78713 1.40245,1.63394 1.99949,2.52936c0.02387,0.03787 0.02299,0.0861 -0.00412,0.12198c-1.70803,2.2374 -3.8327,4.37655 -6.75397,6.31865c-0.02527,0.01573 -0.05821,0.02172 -0.08743,0.01381c-5.99009,-1.57775 -11.45181,-4.82548 -15.99248,-11.04942c-0.01244,-0.0156 -0.01939,-0.03479 -0.02051,-0.05464c-0.18494,-2.31242 -0.07774,-4.67891 0.35137,-7.03588c0.00861,-0.04266 0.04184,-0.07625 0.08519,-0.084c0.58562,-0.09658 1.32231,-0.18227 1.90848,-0.20792c0.49765,-2.46788 1.36594,-4.84178 2.59595,-7.09726c-0.42026,-0.3937 -0.94288,-0.92756 -1.32841,-1.37797c-0.02936,-0.03434 -0.03307,-0.08146 -0.01089,-0.11915c1.19456,-2.07837 2.63955,-3.95554 4.27119,-5.60214zM426.10403,168.68967c-1.70335,-0.65079 -3.57652,0.07921 -4.14941,1.64548c-0.56842,1.55408 0.38384,3.30364 2.10846,3.93446c1.72463,0.63081 3.58994,-0.11591 4.14942,-1.64553c0.56841,-1.55403 -0.38384,-3.30359 -2.10848,-3.93441zM429.87712,158.37413c-1.70336,-0.65074 -3.57652,0.07923 -4.14942,1.64553c-0.56842,1.55406 0.38385,3.30359 2.10848,3.93441c1.72463,0.63081 3.58994,-0.11591 4.14941,-1.64548c0.5729,-1.56632 -0.38382,-3.30364 -2.10846,-3.93446z" fill="#5865f2" stroke="none" stroke-width="0" stroke-linecap="butt" stroke-linejoin="miter"/></g></g></svg>