<svg version="1.1" xmlns="http://www.w3.org/2000/svg" xmlns:xlink="http://www.w3.org/1999/xlink" width="875.05976" height="491.41917" viewBox="0,0,875.05976,491.41917"><g transform="translate(177.52988,73.34408)"><g data-paper-data="{&quot;isPaintingLayer&quot;:true}" fill-rule="nonzero" stroke-miterlimit="10" stroke-dasharray="" stroke-dashoffset="0" style="mix-blend-mode: normal"><path d="M-153.59404,418.07509c-13.2194,0 -23.93584,-10.71644 -23.93584,-23.93583v-443.54751c0,-13.21939 10.71644,-23.93583 23.93584,-23.93583h827.18809c13.21939,0 23.93583,10.71644 23.93583,23.93583v443.54751c0,13.2194 -10.71644,23.93583 -23.93583,23.93583z" fill-opacity="0.10588" fill="#ffffff" stroke="none" stroke-width="0" stroke-linecap="butt" stroke-linejoin="miter"/><path d="M75.08259,195.31418c0,0 -17.81217,-32.95198 -13.35888,-54.326c4.45329,-21.37402 38.29573,-35.62336 52.54507,-25.82681c14.24934,9.79655 165.64986,-22.26497 218.19494,-23.15543c52.54458,-0.89046 139.82256,40.96711 139.82256,40.96711c0,0 26.71777,-1.78141 32.06103,29.38915c5.34326,31.17056 -0.89046,101.52732 -68.57534,144.27585c-67.68488,42.74853 -268.06715,104.19919 -360.68888,-111.32387z" fill="#ffffff" stroke="none" stroke-width="0" stroke-linecap="butt" stroke-linejoin="miter"/><path d="M106.25315,112.48949c0,0 40.9676,-48.09178 63.23208,-71.24722c22.26448,-23.15543 66.79393,-40.96711 100.63637,-46.31037c33.84244,-5.34375 99.74591,2.67188 126.46367,22.26448c26.71777,19.5926 77.48143,88.16844 81.93472,112.21433c4.45329,24.04589 -1.78141,81.93422 -44.52994,115.77666c-42.74803,33.84244 -120.22946,67.68488 -191.47668,47.20132c-71.24722,-20.48356 -100.63686,-102.41778 -109.54245,-139.82256c-8.90609,-37.40478 -26.71777,-40.07665 -26.71777,-40.07665z" fill="#5865f2" stroke="none" stroke-width="0" stroke-linecap="butt" stroke-linejoin="miter"/><path d="M95.56614,162.3622c0,0 9.79655,13.35888 15.1403,34.73339c5.34326,21.37402 18.70214,56.99738 54.326,97.96449c35.62385,40.96711 122.01088,54.326 122.01088,54.326c-105.98012,16.03027 -170.99361,-56.99738 -170.99361,-56.99738c-28.49869,-8.90559 -54.326,-45.41991 -51.65412,-78.37189c2.67188,-32.95198 31.17056,-51.65461 31.17056,-51.65461z" fill="#ede583" stroke="none" stroke-width="0" stroke-linecap="butt" stroke-linejoin="miter"/><path d="M67.76015,173.57364c0,0 6.11712,-18.73363 17.96862,-20.26266c11.8515,-1.52903 14.5278,9.55794 15.67457,17.58685c1.14678,8.02842 -0.38226,47.02471 -0.38226,47.02471l45.11292,59.25895c0,0 -32.11416,1.14678 -50.08327,-22.55671c-17.96862,-23.70348 -13.76328,-47.02471 -13.76328,-47.02471l-12.6165,-8.79293l3.82357,-12.99876l-5.73486,-12.23425z" fill="#000000" stroke="none" stroke-width="0" stroke-linecap="butt" stroke-linejoin="miter" opacity="0.42" style="mix-blend-mode: multiply"/><path d="M331.77644,344.36654c0,0 67.86642,-11.45792 79.32434,-44.95008c11.45792,-33.49265 -1.76272,-36.13648 -1.76272,-36.13648c0,0 48.47601,-29.08561 60.81505,-66.1032c12.33904,-37.0176 10.13994,-65.35738 10.13994,-65.35738c0,0 24.23382,8.06728 24.23382,38.91561c0,30.84833 -4.40704,96.95202 -67.86592,135.73234c-63.45937,38.78081 -104.88401,37.8992 -104.88401,37.8992z" fill="#000000" stroke="none" stroke-width="0" stroke-linecap="butt" stroke-linejoin="miter" opacity="0.42" style="mix-blend-mode: multiply"/><path d="M115.45196,291.54891c0,0 40.02253,13.34117 57.8106,11.11748c0,0 64.48168,48.91731 123.40462,45.58177c0,0 -126.73967,11.11748 -181.21522,-56.69925z" fill="#000000" stroke="none" stroke-width="0" stroke-linecap="butt" stroke-linejoin="miter" opacity="0.42" style="mix-blend-mode: multiply"/><path d="M109.57541,114.25221c0,0 47.10883,-68.55615 93.59582,-97.28459c48.71806,-30.10742 148.00152,-32.54561 197.35913,4.66238c49.35762,37.20799 79.58311,111.43308 79.58311,111.43308c0,0 35.68929,6.07481 23.53966,73.65687c-12.14963,67.58206 -71.40858,122.29179 -167.816,138.96063c-162.50078,28.09577 -222.48883,-55.43243 -222.48883,-55.43243c0,0 -73.44631,-31.63695 -40.79443,-104.53422c0,0 -21.63919,-27.51918 -5.79685,-52.16872c19.04308,-29.62923 42.81839,-19.29201 42.81839,-19.29201z" fill="none" stroke="#000000" stroke-width="3.47347" stroke-linecap="round" stroke-linejoin="round"/><path d="M472.23806,114.02984c0,0 19.4578,30.95508 -4.4218,87.55889c-26.54066,62.91034 -130.89728,109.67036 -211.38119,94.63535c-80.4839,-15.03551 -103.47895,-83.13709 -120.28358,-136.20364c-16.80462,-53.06607 -34.19666,-48.12917 -34.19666,-48.12917" fill="none" stroke="#000000" stroke-width="3.47347" stroke-linecap="round" stroke-linejoin="round"/><path d="M234.23356,26.06311c2.37178,-2.68565 5.50512,-4.58661 8.96807,-5.50561c39.42922,-10.46562 73.35726,-7.6004 85.05182,-6.09203c3.06545,0.39505 5.96707,1.55954 8.46922,3.37391c17.6513,12.79902 38.18454,41.22097 47.04734,54.16315c2.98919,4.36523 3.97805,9.84525 2.50953,14.92826c-5.68665,19.68313 -18.20673,37.48841 -24.44734,45.54733c-2.36735,3.05709 -5.63795,5.28717 -9.36706,6.30801c-26.58641,7.2762 -73.14621,8.57204 -88.88671,8.80277c-3.62088,0.05313 -7.18518,-0.94851 -10.19357,-2.9641c-25.90209,-17.35514 -42.39382,-47.30316 -49.1564,-61.54316c-2.44213,-5.14204 -2.30831,-11.13863 0.36947,-16.16211c8.71274,-16.34513 22.98226,-33.32194 29.63612,-40.85642z" fill="none" stroke="#000000" stroke-width="3.47347" stroke-linecap="round" stroke-linejoin="round"/><path d="M338.35355,344.07578c-163.37353,23.05655 -211.46335,-97.49712 -222.66249,-129.11784c-11.19865,-31.62072 -16.9896,-58.71681 -25.69152,-59.94722c-7.64419,-1.08085 -10.47841,6.88951 -10.47841,6.88951" fill="none" stroke="#000000" stroke-width="3.47347" stroke-linecap="round" stroke-linejoin="round"/><path d="M360.07244,136.66723c0,0 35.56187,43.6444 57.38407,119.61795" fill="none" stroke="#000000" stroke-width="3.47347" stroke-linecap="round" stroke-linejoin="round"/><path d="M386.75282,76.91483c0,0 48.95273,6.93182 77.232,27.29337" fill="none" stroke="#000000" stroke-width="3.47347" stroke-linecap="round" stroke-linejoin="round"/><path d="M211.41906,278.2653c7.91822,-48.64082 41.96531,-133.64049 41.96531,-133.64049" fill="none" stroke="#000000" stroke-width="3.47347" stroke-linecap="round" stroke-linejoin="round"/><path d="M131.28347,136.9939c43.41613,-54.78648 71.21475,-64.63517 71.21475,-64.63517" fill="none" stroke="#000000" stroke-width="3.47347" stroke-linecap="round" stroke-linejoin="round"/><path d="M215.02617,11.23669c9.20668,3.94607 20.60606,11.39889 20.60606,11.39889" fill="none" stroke="#000000" stroke-width="3.47347" stroke-linecap="round" stroke-linejoin="round"/><path d="M349.62157,0.71449c-4.82276,6.57662 -12.89889,17.1244 -12.89889,17.1244" fill="none" stroke="#000000" stroke-width="3.47347" stroke-linecap="round" stroke-linejoin="round"/><path d="M174.28438,303.68722c-55.97753,2.81897 -88.59743,-33.82768 -88.59743,-33.82768" fill="none" stroke="#000000" stroke-width="3.47347" stroke-linecap="round" stroke-linejoin="round"/><path d="M65.92904,208.89937c4.96838,-35.60713 31.88097,-45.95812 31.88097,-45.95812" fill="none" stroke="#000000" stroke-width="3.47347" stroke-linecap="round" stroke-linejoin="round"/><path d="M97.79869,161.9209c0,0 4.47789,11.19521 13.43366,43.10028c8.95578,31.90507 37.50268,72.20655 37.50268,72.20655c0,0 -41.98057,-3.91803 -55.97409,-34.70387c-13.99352,-30.78585 0.55986,-47.57817 0.55986,-47.57817l-13.99401,-16.79232c5.59761,-10.07549 18.4719,-16.23247 18.4719,-16.23247z" fill="#000000" stroke="none" stroke-width="0" stroke-linecap="butt" stroke-linejoin="miter"/><path d="M480.29304,131.81889c0,0 2.62612,70.90038 -44.64113,112.91538c-47.26676,42.015 -162.80826,95.84657 -254.71614,9.19044c0,0 13.59749,3.06102 34.02398,4.6914c1.85521,-7.34999 5.47215,-20.47126 11.40676,-37.36197c9.36312,-26.6484 26.6484,-73.46353 26.6484,-73.46353c-9.6583,30.78585 -21.84434,92.42346 -25.53705,111.57477c44.41482,1.77305 109.82484,-5.16812 146.46363,-54.01999c2.8972,-3.86244 5.55874,-7.79965 8.01661,-11.79098c-9.60517,-27.14234 -25.9503,-56.5674 -25.9503,-56.5674l6.48216,-0.72024c0,0 10.80311,12.96433 20.16624,32.41032c1.77108,3.67893 3.80094,8.1578 5.92673,13.00073c17.13277,-34.02644 20.61147,-70.82708 19.27676,-100.94335l-20.88156,-4.24715l-2.16023,-5.76192c0,0 12.54714,0.73844 22.58426,2.21484c-2.37374,-32.41918 -9.82656,-55.34978 -9.82656,-55.34978c0,0 64.33557,60.39638 82.71694,114.22844z" fill="#000000" stroke="none" stroke-width="0" stroke-linecap="butt" stroke-linejoin="miter" opacity="0.42" style="mix-blend-mode: multiply"/><path d="M261.3085,144.97951c0,0 76.44485,-10.27818 88.00805,-21.19888c11.5632,-10.92069 26.33846,-33.40459 25.05344,-46.25232c-1.28502,-12.84773 -12.20571,-33.40459 -12.20571,-33.40459c0,0 29.6007,29.08216 24.11526,42.80658c-5.48544,13.72442 -19.10359,46.94599 -33.81489,51.85534c-14.7113,4.90934 -89.22912,11.97596 -91.15665,6.19436z" fill="#000000" stroke="none" stroke-width="0" stroke-linecap="butt" stroke-linejoin="miter" opacity="0.42" style="mix-blend-mode: multiply"/><path d="M135.65805,186.10504c9.54564,22.1282 35.14517,68.12027 43.82298,81.57066c8.67781,13.45039 9.11124,33.84342 -9.97956,25.59953c-19.09129,-8.2439 -49.89731,-62.47986 -60.7442,-91.98414c-10.8469,-29.50427 -10.41298,-54.23597 -10.41298,-54.23597c0,0 27.76861,16.92171 37.31425,39.04992z" fill="#ffffff" stroke="none" stroke-width="0" stroke-linecap="butt" stroke-linejoin="miter"/><path d="M48.56554,160.99896c17.68721,-4.55267 32.34391,1.94032 45.86022,9.31048c16.30872,8.8928 29.40342,18.60719 40.66652,31.93213c10.59649,12.5373 6.67206,44.69819 -0.54264,64.93577c-7.21519,20.23757 -20.5603,25.86125 -35.2721,25.85289c-14.71179,-0.00836 -26.07821,-1.8434 -59.89999,-29.8147c-33.82178,-27.9713 -24.49801,-52.78761 -24.02917,-65.77801c0.52345,-14.48992 17.08652,-32.28635 33.21764,-36.43904z" fill="#5865f2" stroke="none" stroke-width="0" stroke-linecap="butt" stroke-linejoin="miter"/><path d="M78.29366,286.21746c-18.45271,-4.33571 -44.5875,-28.56806 -55.70842,-45.52962c-11.12142,-16.96156 -6.70355,-33.07743 -5.42837,-43.11307c1.27469,-10.03515 13.32691,-21.57277 24.95357,-15.18162c11.11453,6.10974 30.39965,22.28219 44.57914,36.01595c14.17949,13.73376 8.80277,45.55717 5.91394,55.07133c-2.88883,9.51416 -14.30936,12.73704 -14.30936,12.73704z" fill="#ffffff" stroke="none" stroke-width="0" stroke-linecap="butt" stroke-linejoin="miter" opacity="0.35"/><path d="M70.63274,255.4695c-6.68092,-4.95608 -13.25409,-10.27277 -13.25409,-10.27277" fill="#436ed1" stroke="#436ed1" stroke-width="8.53556" stroke-linecap="round" stroke-linejoin="round"/><path d="M33.76372,228.13431c-2.56315,-1.64514 -4.18861,-3.31143 -5.50708,-4.25158" fill="#436ed1" stroke="#436ed1" stroke-width="7.58716" stroke-linecap="round" stroke-linejoin="round"/><path d="M48.56554,160.99896c17.68721,-4.55267 32.34391,1.94032 45.86022,9.31048c16.30872,8.8928 29.40342,18.60719 40.66652,31.93213c10.59649,12.5373 6.67206,44.69819 -0.54264,64.93577c-7.21519,20.23757 -20.5603,25.86125 -35.2721,25.85289c-14.71179,-0.00836 -26.07821,-1.8434 -59.89999,-29.8147c-33.82178,-27.9713 -24.65544,-54.74269 -23.17659,-67.65684c1.82766,-15.96336 16.23394,-30.40703 32.36506,-34.55973z" fill="none" stroke="#000000" stroke-width="3.80103" stroke-linecap="round" stroke-linejoin="round"/><path d="M32.87523,180.01645c2.82291,0.24205 5.74569,1.08577 8.57401,2.64039c11.11453,6.10974 30.72435,20.92288 44.52453,35.03694c15.72328,16.08094 10.36329,48.24282 5.96806,56.04985c-1.79617,3.19041 -3.28388,6.15304 -5.66451,8.10369" fill="none" stroke="#000000" stroke-width="1.89679" stroke-linecap="round" stroke-linejoin="round"/><path d="M137.79565,175.73929c7.44002,22.83319 14.88005,45.66639 44.38333,87.22779c9.26571,13.05239 5.68272,38.31836 -13.40857,30.07446c-19.09129,-8.2439 -49.89731,-62.47986 -60.7442,-91.98414c-10.8469,-29.50427 -10.41347,-54.23597 -10.41347,-54.23597c0,0 32.71633,6.00397 40.18292,28.91785z" fill="#ffffff" stroke="none" stroke-width="0" stroke-linecap="butt" stroke-linejoin="miter"/><path d="M77.51734,154.43119c19.52471,-4.77307 20.82646,12.58305 20.82646,12.58305c0,0 18.70017,74.61227 63.82441,124.94349" fill="none" stroke="#000000" stroke-width="3.47347" stroke-linecap="round" stroke-linejoin="round"/><path d="M81.95882,165.37452l17.53224,5.17993c0,0 6.7739,19.12523 17.13326,47.01733c10.35985,27.89209 41.04091,72.12046 41.04091,72.12046l-17.13326,-3.58644c0,0 -16.33676,9.96136 -17.53224,10.75834c-1.19548,0.79699 -8.76588,-8.76588 -8.76588,-8.76588l15.93827,-10.35985c-31.47804,-34.26701 -48.21281,-112.36389 -48.21281,-112.36389z" fill="#000000" stroke="none" stroke-width="0" stroke-linecap="butt" stroke-linejoin="miter" opacity="0.42" style="mix-blend-mode: multiply"/></g></g></svg>